G75*
%MOIN*%
%OFA0B0*%
%FSLAX24Y24*%
%IPPOS*%
%LPD*%
%AMOC8*
5,1,8,0,0,1.08239X$1,22.5*
%
%ADD10C,0.0000*%
%ADD11C,0.1000*%
%ADD12C,0.0060*%
%ADD13C,0.0050*%
%ADD14R,0.0170X0.0740*%
%ADD15C,0.0100*%
%ADD16C,0.0080*%
%ADD17C,0.0040*%
%ADD18C,0.0160*%
%ADD19R,0.1000X0.0200*%
%ADD20R,0.0300X0.0750*%
%ADD21R,0.0240X0.0340*%
%ADD22C,0.0200*%
%ADD23R,0.4200X0.0300*%
%ADD24R,0.0750X0.0200*%
%ADD25R,0.0300X0.0200*%
D10*
X000267Y000130D02*
X000267Y019815D01*
X019952Y019815D01*
X019952Y000130D01*
X012326Y000130D01*
X012326Y004786D01*
X005161Y004786D01*
X005161Y000130D01*
X000267Y000130D01*
D11*
X013067Y012630D02*
X019317Y012630D01*
D12*
X019417Y012130D02*
X018917Y012130D01*
X018667Y011880D01*
X018667Y011380D01*
X018917Y011130D01*
X018667Y010880D01*
X018667Y010380D01*
X018917Y010130D01*
X019417Y010130D01*
X019667Y010380D01*
X019667Y010880D01*
X019417Y011130D01*
X018917Y011130D01*
X019417Y011130D02*
X019667Y011380D01*
X019667Y011880D01*
X019417Y012130D01*
X019417Y010130D02*
X019667Y009880D01*
X019667Y009380D01*
X019417Y009130D01*
X019667Y008880D01*
X019667Y008380D01*
X019417Y008130D01*
X019667Y007880D01*
X019667Y007380D01*
X019417Y007130D01*
X018917Y007130D01*
X018667Y007380D01*
X018667Y007880D01*
X018917Y008130D01*
X018667Y008380D01*
X018667Y008880D01*
X018917Y009130D01*
X018667Y009380D01*
X018667Y009880D01*
X018917Y010130D01*
X018917Y009130D02*
X019417Y009130D01*
X019417Y008130D02*
X018917Y008130D01*
X018917Y007130D02*
X018667Y006880D01*
X018667Y006380D01*
X018917Y006130D01*
X018667Y005880D01*
X018667Y005380D01*
X018917Y005130D01*
X018667Y004880D01*
X018667Y004380D01*
X018917Y004130D01*
X019417Y004130D01*
X019667Y004380D01*
X019667Y004880D01*
X019417Y005130D01*
X018917Y005130D01*
X019417Y005130D02*
X019667Y005380D01*
X019667Y005880D01*
X019417Y006130D01*
X018917Y006130D01*
X019417Y006130D02*
X019667Y006380D01*
X019667Y006880D01*
X019417Y007130D01*
X017267Y006130D02*
X017267Y005330D01*
X017265Y005313D01*
X017261Y005296D01*
X017254Y005280D01*
X017244Y005266D01*
X017231Y005253D01*
X017217Y005243D01*
X017201Y005236D01*
X017184Y005232D01*
X017167Y005230D01*
X015467Y005230D01*
X015450Y005232D01*
X015433Y005236D01*
X015417Y005243D01*
X015403Y005253D01*
X015390Y005266D01*
X015380Y005280D01*
X015373Y005296D01*
X015369Y005313D01*
X015367Y005330D01*
X015367Y006130D01*
X015369Y006147D01*
X015373Y006164D01*
X015380Y006180D01*
X015390Y006194D01*
X015403Y006207D01*
X015417Y006217D01*
X015433Y006224D01*
X015450Y006228D01*
X015467Y006230D01*
X017167Y006230D01*
X017184Y006228D01*
X017201Y006224D01*
X017217Y006217D01*
X017231Y006207D01*
X017244Y006194D01*
X017254Y006180D01*
X017261Y006164D01*
X017265Y006147D01*
X017267Y006130D01*
X016467Y005730D02*
X016417Y005730D01*
X016217Y005730D02*
X016167Y005730D01*
X015117Y004380D02*
X014117Y004380D01*
X014117Y002780D01*
X015117Y002780D01*
X015117Y004380D01*
X014617Y003830D02*
X014617Y003580D01*
X014867Y003580D01*
X014867Y003480D01*
X014617Y003580D02*
X014367Y003580D01*
X014617Y003580D02*
X014867Y003180D01*
X014367Y003180D01*
X014617Y003580D01*
X014617Y002980D01*
X013667Y002880D02*
X013667Y002380D01*
X013417Y002130D01*
X013667Y001880D01*
X013667Y001380D01*
X013417Y001130D01*
X013667Y000880D01*
X013667Y000380D01*
X013417Y000130D01*
X012917Y000130D01*
X012667Y000380D01*
X012667Y000880D01*
X012917Y001130D01*
X012667Y001380D01*
X012667Y001880D01*
X012917Y002130D01*
X012667Y002380D01*
X012667Y002880D01*
X012917Y003130D01*
X012667Y003380D01*
X012667Y003880D01*
X012917Y004130D01*
X012667Y004380D01*
X012667Y004880D01*
X012917Y005130D01*
X012667Y005380D01*
X012667Y005880D01*
X012917Y006130D01*
X012667Y006380D01*
X012667Y006880D01*
X012917Y007130D01*
X012667Y007380D01*
X012667Y007880D01*
X012917Y008130D01*
X012667Y008380D01*
X012667Y008880D01*
X012917Y009130D01*
X012667Y009380D01*
X012667Y009880D01*
X012917Y010130D01*
X012667Y010380D01*
X012667Y010880D01*
X012917Y011130D01*
X012667Y011380D01*
X012667Y011880D01*
X012917Y012130D01*
X013417Y012130D01*
X013667Y011880D01*
X013667Y011380D01*
X013417Y011130D01*
X013667Y010880D01*
X013667Y010380D01*
X013417Y010130D01*
X012917Y010130D01*
X013417Y010130D02*
X013667Y009880D01*
X013667Y009380D01*
X013417Y009130D01*
X013667Y008880D01*
X013667Y008380D01*
X013417Y008130D01*
X013667Y007880D01*
X013667Y007380D01*
X013417Y007130D01*
X012917Y007130D01*
X013417Y007130D02*
X013667Y006880D01*
X013667Y006380D01*
X013417Y006130D01*
X013667Y005880D01*
X013667Y005380D01*
X013417Y005130D01*
X013667Y004880D01*
X013667Y004380D01*
X013417Y004130D01*
X012917Y004130D01*
X013417Y004130D02*
X013667Y003880D01*
X013667Y003380D01*
X013417Y003130D01*
X013667Y002880D01*
X013417Y003130D02*
X012917Y003130D01*
X012917Y002130D02*
X013417Y002130D01*
X013417Y001130D02*
X012917Y001130D01*
X015717Y001330D02*
X015717Y003730D01*
X015719Y003760D01*
X015724Y003790D01*
X015733Y003819D01*
X015746Y003846D01*
X015761Y003872D01*
X015780Y003896D01*
X015801Y003917D01*
X015825Y003936D01*
X015851Y003951D01*
X015878Y003964D01*
X015907Y003973D01*
X015937Y003978D01*
X015967Y003980D01*
X017167Y003980D01*
X017197Y003978D01*
X017227Y003973D01*
X017256Y003964D01*
X017283Y003951D01*
X017309Y003936D01*
X017333Y003917D01*
X017354Y003896D01*
X017373Y003872D01*
X017388Y003846D01*
X017401Y003819D01*
X017410Y003790D01*
X017415Y003760D01*
X017417Y003730D01*
X017417Y001330D01*
X017415Y001273D01*
X017409Y001217D01*
X017400Y001161D01*
X017387Y001105D01*
X017370Y001051D01*
X017350Y000998D01*
X017326Y000947D01*
X017298Y000897D01*
X017268Y000849D01*
X017234Y000803D01*
X017197Y000760D01*
X017158Y000719D01*
X017116Y000681D01*
X017071Y000646D01*
X017024Y000614D01*
X016975Y000585D01*
X016925Y000559D01*
X016872Y000537D01*
X016819Y000518D01*
X016764Y000503D01*
X016708Y000492D01*
X016652Y000484D01*
X016595Y000480D01*
X016539Y000480D01*
X016482Y000484D01*
X016426Y000492D01*
X016370Y000503D01*
X016315Y000518D01*
X016262Y000537D01*
X016209Y000559D01*
X016159Y000585D01*
X016110Y000614D01*
X016063Y000646D01*
X016018Y000681D01*
X015976Y000719D01*
X015937Y000760D01*
X015900Y000803D01*
X015866Y000849D01*
X015836Y000897D01*
X015808Y000947D01*
X015784Y000998D01*
X015764Y001051D01*
X015747Y001105D01*
X015734Y001161D01*
X015725Y001217D01*
X015719Y001273D01*
X015717Y001330D01*
X017117Y002880D02*
X017117Y003180D01*
X017067Y003380D02*
X016817Y003380D01*
X016817Y003030D01*
X016687Y003030D01*
X016687Y003730D01*
X016817Y003730D01*
X016817Y003380D01*
X016467Y003380D02*
X016267Y003380D01*
X016967Y003030D02*
X017267Y003030D01*
X018667Y002880D02*
X018667Y002380D01*
X018917Y002130D01*
X018667Y001880D01*
X018667Y001380D01*
X018917Y001130D01*
X018667Y000880D01*
X018667Y000380D01*
X018917Y000130D01*
X019417Y000130D01*
X019667Y000380D01*
X019667Y000880D01*
X019417Y001130D01*
X018917Y001130D01*
X019417Y001130D02*
X019667Y001380D01*
X019667Y001880D01*
X019417Y002130D01*
X018917Y002130D01*
X019417Y002130D02*
X019667Y002380D01*
X019667Y002880D01*
X019417Y003130D01*
X018917Y003130D01*
X018667Y002880D01*
X018917Y003130D02*
X018667Y003380D01*
X018667Y003880D01*
X018917Y004130D01*
X019417Y004130D02*
X019667Y003880D01*
X019667Y003380D01*
X019417Y003130D01*
X013417Y005130D02*
X012917Y005130D01*
X012917Y006130D02*
X013417Y006130D01*
X013417Y008130D02*
X012917Y008130D01*
X012467Y008480D02*
X012467Y008630D01*
X012417Y008680D01*
X012417Y010580D01*
X012467Y010630D01*
X012467Y010780D01*
X012465Y010797D01*
X012461Y010814D01*
X012454Y010830D01*
X012444Y010844D01*
X012431Y010857D01*
X012417Y010867D01*
X012401Y010874D01*
X012384Y010878D01*
X012367Y010880D01*
X011667Y010880D01*
X011650Y010878D01*
X011633Y010874D01*
X011617Y010867D01*
X011603Y010857D01*
X011590Y010844D01*
X011580Y010830D01*
X011573Y010814D01*
X011569Y010797D01*
X011567Y010780D01*
X011567Y010630D01*
X011617Y010580D01*
X011617Y008680D01*
X011567Y008630D01*
X011567Y008480D01*
X011569Y008463D01*
X011573Y008446D01*
X011580Y008430D01*
X011590Y008416D01*
X011603Y008403D01*
X011617Y008393D01*
X011633Y008386D01*
X011650Y008382D01*
X011667Y008380D01*
X012367Y008380D01*
X012384Y008382D01*
X012401Y008386D01*
X012417Y008393D01*
X012431Y008403D01*
X012444Y008416D01*
X012454Y008430D01*
X012461Y008446D01*
X012465Y008463D01*
X012467Y008480D01*
X012917Y009130D02*
X013417Y009130D01*
X013417Y011130D02*
X012917Y011130D01*
X011267Y011630D02*
X011267Y010130D01*
X011017Y009880D01*
X010517Y009880D01*
X010267Y010130D01*
X010267Y011630D01*
X010017Y011880D01*
X009517Y011880D01*
X009267Y011630D01*
X009267Y010130D01*
X009017Y009880D01*
X008517Y009880D01*
X008267Y010130D01*
X008017Y009880D01*
X007517Y009880D01*
X007267Y010130D01*
X007267Y011630D01*
X007517Y011880D01*
X008017Y011880D01*
X008267Y011630D01*
X008267Y010130D01*
X009267Y010130D02*
X009517Y009880D01*
X010017Y009880D01*
X010267Y010130D01*
X010267Y011630D02*
X010517Y011880D01*
X011017Y011880D01*
X011267Y011630D01*
X009267Y011630D02*
X009017Y011880D01*
X008517Y011880D01*
X008267Y011630D01*
X006517Y013680D02*
X011017Y013680D01*
X011047Y013682D01*
X011077Y013687D01*
X011106Y013696D01*
X011133Y013709D01*
X011159Y013724D01*
X011183Y013743D01*
X011204Y013764D01*
X011223Y013788D01*
X011238Y013814D01*
X011251Y013841D01*
X011260Y013870D01*
X011265Y013900D01*
X011267Y013930D01*
X011267Y015830D01*
X011265Y015860D01*
X011260Y015890D01*
X011251Y015919D01*
X011238Y015946D01*
X011223Y015972D01*
X011204Y015996D01*
X011183Y016017D01*
X011159Y016036D01*
X011133Y016051D01*
X011106Y016064D01*
X011077Y016073D01*
X011047Y016078D01*
X011017Y016080D01*
X006517Y016080D01*
X006487Y016078D01*
X006457Y016073D01*
X006428Y016064D01*
X006401Y016051D01*
X006375Y016036D01*
X006351Y016017D01*
X006330Y015996D01*
X006311Y015972D01*
X006296Y015946D01*
X006283Y015919D01*
X006274Y015890D01*
X006269Y015860D01*
X006267Y015830D01*
X006267Y013930D01*
X006269Y013900D01*
X006274Y013870D01*
X006283Y013841D01*
X006296Y013814D01*
X006311Y013788D01*
X006330Y013764D01*
X006351Y013743D01*
X006375Y013724D01*
X006401Y013709D01*
X006428Y013696D01*
X006457Y013687D01*
X006487Y013682D01*
X006517Y013680D01*
X005737Y013730D02*
X005737Y013517D01*
X005630Y013410D01*
X005737Y013404D02*
X005737Y013191D01*
X005737Y013297D02*
X005310Y013297D01*
X005310Y013191D01*
X005096Y013297D02*
X004989Y013297D01*
X005096Y013410D02*
X005416Y013410D01*
X005310Y013624D01*
X005310Y013730D01*
X005416Y013837D01*
X005630Y013837D01*
X005737Y013730D01*
X005737Y013620D02*
X005310Y013620D01*
X005523Y013620D02*
X005310Y013834D01*
X005310Y013941D01*
X005416Y014055D02*
X005416Y014482D01*
X005416Y014585D02*
X005310Y014478D01*
X005310Y014264D01*
X005416Y014157D01*
X005630Y014157D01*
X005737Y014264D01*
X005737Y014478D01*
X005737Y014699D02*
X005737Y015126D01*
X005737Y014913D02*
X005096Y014913D01*
X005310Y014699D01*
X005416Y014585D02*
X005523Y014585D01*
X005523Y014157D01*
X005096Y013837D02*
X005096Y013410D01*
X005096Y012974D02*
X005203Y012868D01*
X005737Y012868D01*
X005416Y012761D02*
X005416Y012974D01*
X005416Y012543D02*
X005523Y012543D01*
X005523Y012116D01*
X005630Y012116D02*
X005416Y012116D01*
X005310Y012223D01*
X005310Y012437D01*
X005416Y012543D01*
X005737Y012437D02*
X005737Y012223D01*
X005630Y012116D01*
X005737Y011899D02*
X005737Y011579D01*
X005630Y011472D01*
X005416Y011472D01*
X005310Y011579D01*
X005310Y011899D01*
X005843Y011899D01*
X005950Y011792D01*
X005950Y011685D01*
X005737Y011254D02*
X005737Y010934D01*
X005630Y010827D01*
X005416Y010827D01*
X005310Y010934D01*
X005310Y011254D01*
X005096Y011254D02*
X005737Y011254D01*
X005737Y010611D02*
X005737Y010398D01*
X005737Y010504D02*
X005310Y010504D01*
X005310Y010398D01*
X005310Y010181D02*
X005310Y010074D01*
X005523Y009860D01*
X005310Y009860D02*
X005737Y009860D01*
X005416Y009429D02*
X005416Y009216D01*
X005096Y009216D02*
X005096Y009643D01*
X005000Y009399D02*
X004573Y009399D01*
X004786Y009399D02*
X004786Y010040D01*
X004573Y009826D01*
X004989Y010504D02*
X005096Y010504D01*
X004760Y011517D02*
X004760Y011944D01*
X004547Y011730D02*
X004974Y011730D01*
X004167Y012630D02*
X003217Y012630D01*
X003217Y011980D01*
X003217Y012630D02*
X000617Y012630D01*
X000617Y004630D01*
X000517Y004630D01*
X000517Y008630D01*
X003217Y008630D01*
X003217Y009280D01*
X003217Y008630D02*
X003217Y007980D01*
X003217Y007280D02*
X003217Y005980D01*
X003217Y005280D02*
X003217Y004630D01*
X000617Y004630D01*
X000723Y004376D02*
X001223Y004376D01*
X001473Y004126D01*
X001473Y003626D01*
X001223Y003376D01*
X001473Y003126D01*
X001473Y002626D01*
X001223Y002376D01*
X001473Y002126D01*
X001473Y001626D01*
X001223Y001376D01*
X001473Y001126D01*
X001473Y000626D01*
X001223Y000376D01*
X000723Y000376D01*
X000473Y000626D01*
X000473Y001126D01*
X000723Y001376D01*
X000473Y001626D01*
X000473Y002126D01*
X000723Y002376D01*
X001223Y002376D01*
X000723Y002376D02*
X000473Y002626D01*
X000473Y003126D01*
X000723Y003376D01*
X000473Y003626D01*
X000473Y004126D01*
X000723Y004376D01*
X000723Y003376D02*
X001223Y003376D01*
X001863Y003796D02*
X002291Y003796D01*
X002512Y003799D02*
X002939Y003799D01*
X002726Y003585D02*
X002726Y004012D01*
X003203Y004143D02*
X003203Y003643D01*
X003453Y003393D01*
X003203Y003143D01*
X003203Y002643D01*
X003453Y002393D01*
X003953Y002393D01*
X004203Y002643D01*
X004203Y003143D01*
X003953Y003393D01*
X003453Y003393D01*
X003011Y003208D02*
X003011Y002888D01*
X003225Y002888D02*
X002584Y002888D01*
X002584Y003208D01*
X002691Y003315D01*
X002904Y003315D01*
X003011Y003208D01*
X002691Y002670D02*
X002798Y002563D01*
X002798Y002243D01*
X002904Y002243D02*
X002584Y002243D01*
X002584Y002563D01*
X002691Y002670D01*
X002403Y002588D02*
X001976Y002588D01*
X002189Y002588D02*
X002189Y003228D01*
X001976Y003015D01*
X002077Y003582D02*
X002077Y004009D01*
X003203Y004143D02*
X003453Y004393D01*
X003953Y004393D01*
X004203Y004143D01*
X004203Y003643D01*
X003953Y003393D01*
X003953Y002393D02*
X004203Y002143D01*
X004203Y001643D01*
X003953Y001393D01*
X004203Y001143D01*
X004203Y000643D01*
X003953Y000393D01*
X003453Y000393D01*
X003203Y000643D01*
X003203Y001143D01*
X003453Y001393D01*
X003203Y001643D01*
X003203Y002143D01*
X003453Y002393D01*
X003011Y002350D02*
X002904Y002243D01*
X003011Y002350D02*
X003011Y002563D01*
X003011Y002026D02*
X003011Y001812D01*
X003118Y001919D02*
X002691Y001919D01*
X002584Y001812D01*
X002691Y001596D02*
X002798Y001489D01*
X002798Y001169D01*
X002904Y001169D02*
X002584Y001169D01*
X002584Y001489D01*
X002691Y001596D01*
X002361Y001702D02*
X001934Y001702D01*
X002361Y002129D01*
X002361Y002236D01*
X002254Y002343D01*
X002040Y002343D01*
X001934Y002236D01*
X001994Y001436D02*
X002208Y001436D01*
X002315Y001329D01*
X002315Y001223D01*
X002208Y001116D01*
X002315Y001009D01*
X002315Y000902D01*
X002208Y000796D01*
X001994Y000796D01*
X001888Y000902D01*
X002101Y001116D02*
X002208Y001116D01*
X001888Y001329D02*
X001994Y001436D01*
X001223Y001376D02*
X000723Y001376D01*
X002904Y001169D02*
X003011Y001276D01*
X003011Y001489D01*
X003453Y001393D02*
X003953Y001393D01*
X003080Y000725D02*
X003080Y000298D01*
X003217Y004630D02*
X004167Y004630D01*
X004167Y012630D01*
X004167Y012880D02*
X003217Y012880D01*
X003217Y013530D01*
X003217Y012880D02*
X000617Y012880D01*
X000517Y012880D01*
X000517Y016880D01*
X000617Y016880D01*
X003217Y016880D01*
X003217Y016230D01*
X003217Y016880D02*
X004167Y016880D01*
X004167Y012880D01*
X004760Y013767D02*
X004760Y014194D01*
X004547Y013980D02*
X004974Y013980D01*
X005203Y015344D02*
X005096Y015450D01*
X005096Y015664D01*
X005203Y015771D01*
X005310Y015771D01*
X005737Y015344D01*
X005737Y015771D01*
X005523Y015988D02*
X005737Y016202D01*
X005523Y016415D01*
X005096Y016415D01*
X005096Y015988D02*
X005523Y015988D01*
X004974Y015980D02*
X004547Y015980D01*
X003217Y015530D02*
X003217Y014230D01*
X000947Y013880D02*
X000949Y013908D01*
X000955Y013935D01*
X000964Y013961D01*
X000977Y013986D01*
X000994Y014009D01*
X001013Y014029D01*
X001035Y014046D01*
X001059Y014060D01*
X001085Y014070D01*
X001112Y014077D01*
X001140Y014080D01*
X001168Y014079D01*
X001195Y014074D01*
X001222Y014065D01*
X001247Y014053D01*
X001270Y014038D01*
X001291Y014019D01*
X001309Y013998D01*
X001324Y013974D01*
X001335Y013948D01*
X001343Y013922D01*
X001347Y013894D01*
X001347Y013866D01*
X001343Y013838D01*
X001335Y013812D01*
X001324Y013786D01*
X001309Y013762D01*
X001291Y013741D01*
X001270Y013722D01*
X001247Y013707D01*
X001222Y013695D01*
X001195Y013686D01*
X001168Y013681D01*
X001140Y013680D01*
X001112Y013683D01*
X001085Y013690D01*
X001059Y013700D01*
X001035Y013714D01*
X001013Y013731D01*
X000994Y013751D01*
X000977Y013774D01*
X000964Y013799D01*
X000955Y013825D01*
X000949Y013852D01*
X000947Y013880D01*
X000617Y012880D02*
X000617Y016880D01*
X000947Y015880D02*
X000949Y015908D01*
X000955Y015935D01*
X000964Y015961D01*
X000977Y015986D01*
X000994Y016009D01*
X001013Y016029D01*
X001035Y016046D01*
X001059Y016060D01*
X001085Y016070D01*
X001112Y016077D01*
X001140Y016080D01*
X001168Y016079D01*
X001195Y016074D01*
X001222Y016065D01*
X001247Y016053D01*
X001270Y016038D01*
X001291Y016019D01*
X001309Y015998D01*
X001324Y015974D01*
X001335Y015948D01*
X001343Y015922D01*
X001347Y015894D01*
X001347Y015866D01*
X001343Y015838D01*
X001335Y015812D01*
X001324Y015786D01*
X001309Y015762D01*
X001291Y015741D01*
X001270Y015722D01*
X001247Y015707D01*
X001222Y015695D01*
X001195Y015686D01*
X001168Y015681D01*
X001140Y015680D01*
X001112Y015683D01*
X001085Y015690D01*
X001059Y015700D01*
X001035Y015714D01*
X001013Y015731D01*
X000994Y015751D01*
X000977Y015774D01*
X000964Y015799D01*
X000955Y015825D01*
X000949Y015852D01*
X000947Y015880D01*
X001667Y017680D02*
X001567Y017780D01*
X001517Y018930D01*
X001667Y017680D02*
X005367Y017680D01*
X005467Y017780D01*
X005517Y018930D01*
X006767Y018930D02*
X006817Y017780D01*
X006917Y017680D01*
X010617Y017680D01*
X010717Y017780D01*
X010767Y018930D01*
X012267Y018930D02*
X012317Y017780D01*
X012417Y017680D01*
X016117Y017680D01*
X016217Y017780D01*
X016267Y018930D01*
X016121Y018185D02*
X016014Y018185D01*
X015908Y018078D01*
X015908Y017971D01*
X015908Y018078D02*
X015801Y018185D01*
X015694Y018185D01*
X015587Y018078D01*
X015587Y017864D01*
X015694Y017758D01*
X015587Y017540D02*
X016228Y017113D01*
X016228Y017540D02*
X015587Y017113D01*
X016121Y017758D02*
X016228Y017864D01*
X016228Y018078D01*
X016121Y018185D01*
X016167Y015380D02*
X015367Y015380D01*
X015267Y015280D01*
X015267Y014480D01*
X015367Y014380D01*
X015267Y014280D01*
X015267Y013480D01*
X015367Y013380D01*
X016167Y013380D01*
X016267Y013480D01*
X016267Y014280D01*
X016167Y014380D01*
X016267Y014480D01*
X016267Y015280D01*
X016167Y015380D01*
X005950Y007925D02*
X005950Y007818D01*
X005950Y007925D02*
X005843Y008032D01*
X005310Y008032D01*
X005310Y008249D02*
X005416Y008249D01*
X005416Y008356D01*
X005310Y008356D01*
X005310Y008249D01*
X005630Y008249D02*
X005737Y008249D01*
X005737Y008356D01*
X005630Y008356D01*
X005630Y008249D01*
X005737Y008032D02*
X005737Y007711D01*
X005630Y007605D01*
X005310Y007605D01*
X005310Y007387D02*
X005203Y007387D01*
X005096Y007280D01*
X005096Y006960D01*
X005737Y006960D01*
X005737Y007280D01*
X005630Y007387D01*
X005523Y007387D01*
X005416Y007280D01*
X005416Y006960D01*
X005416Y007280D02*
X005310Y007387D01*
X004974Y007451D02*
X004547Y007451D01*
X004974Y007878D01*
X004974Y007985D01*
X004867Y008092D01*
X004653Y008092D01*
X004547Y007985D01*
X005096Y009216D02*
X005737Y009216D01*
X003217Y009980D02*
X003217Y011280D01*
X000947Y011630D02*
X000949Y011658D01*
X000955Y011685D01*
X000964Y011711D01*
X000977Y011736D01*
X000994Y011759D01*
X001013Y011779D01*
X001035Y011796D01*
X001059Y011810D01*
X001085Y011820D01*
X001112Y011827D01*
X001140Y011830D01*
X001168Y011829D01*
X001195Y011824D01*
X001222Y011815D01*
X001247Y011803D01*
X001270Y011788D01*
X001291Y011769D01*
X001309Y011748D01*
X001324Y011724D01*
X001335Y011698D01*
X001343Y011672D01*
X001347Y011644D01*
X001347Y011616D01*
X001343Y011588D01*
X001335Y011562D01*
X001324Y011536D01*
X001309Y011512D01*
X001291Y011491D01*
X001270Y011472D01*
X001247Y011457D01*
X001222Y011445D01*
X001195Y011436D01*
X001168Y011431D01*
X001140Y011430D01*
X001112Y011433D01*
X001085Y011440D01*
X001059Y011450D01*
X001035Y011464D01*
X001013Y011481D01*
X000994Y011501D01*
X000977Y011524D01*
X000964Y011549D01*
X000955Y011575D01*
X000949Y011602D01*
X000947Y011630D01*
X000617Y012630D02*
X000517Y012630D01*
X000517Y008630D01*
X000947Y007630D02*
X000949Y007658D01*
X000955Y007685D01*
X000964Y007711D01*
X000977Y007736D01*
X000994Y007759D01*
X001013Y007779D01*
X001035Y007796D01*
X001059Y007810D01*
X001085Y007820D01*
X001112Y007827D01*
X001140Y007830D01*
X001168Y007829D01*
X001195Y007824D01*
X001222Y007815D01*
X001247Y007803D01*
X001270Y007788D01*
X001291Y007769D01*
X001309Y007748D01*
X001324Y007724D01*
X001335Y007698D01*
X001343Y007672D01*
X001347Y007644D01*
X001347Y007616D01*
X001343Y007588D01*
X001335Y007562D01*
X001324Y007536D01*
X001309Y007512D01*
X001291Y007491D01*
X001270Y007472D01*
X001247Y007457D01*
X001222Y007445D01*
X001195Y007436D01*
X001168Y007431D01*
X001140Y007430D01*
X001112Y007433D01*
X001085Y007440D01*
X001059Y007450D01*
X001035Y007464D01*
X001013Y007481D01*
X000994Y007501D01*
X000977Y007524D01*
X000964Y007549D01*
X000955Y007575D01*
X000949Y007602D01*
X000947Y007630D01*
X000947Y005630D02*
X000949Y005658D01*
X000955Y005685D01*
X000964Y005711D01*
X000977Y005736D01*
X000994Y005759D01*
X001013Y005779D01*
X001035Y005796D01*
X001059Y005810D01*
X001085Y005820D01*
X001112Y005827D01*
X001140Y005830D01*
X001168Y005829D01*
X001195Y005824D01*
X001222Y005815D01*
X001247Y005803D01*
X001270Y005788D01*
X001291Y005769D01*
X001309Y005748D01*
X001324Y005724D01*
X001335Y005698D01*
X001343Y005672D01*
X001347Y005644D01*
X001347Y005616D01*
X001343Y005588D01*
X001335Y005562D01*
X001324Y005536D01*
X001309Y005512D01*
X001291Y005491D01*
X001270Y005472D01*
X001247Y005457D01*
X001222Y005445D01*
X001195Y005436D01*
X001168Y005431D01*
X001140Y005430D01*
X001112Y005433D01*
X001085Y005440D01*
X001059Y005450D01*
X001035Y005464D01*
X001013Y005481D01*
X000994Y005501D01*
X000977Y005524D01*
X000964Y005549D01*
X000955Y005575D01*
X000949Y005602D01*
X000947Y005630D01*
X004547Y005517D02*
X004653Y005410D01*
X004867Y005410D01*
X004974Y005517D01*
X004974Y005624D01*
X004867Y005730D01*
X004760Y005730D01*
X004867Y005730D02*
X004974Y005837D01*
X004974Y005944D01*
X004867Y006051D01*
X004653Y006051D01*
X004547Y005944D01*
X000947Y009630D02*
X000949Y009658D01*
X000955Y009685D01*
X000964Y009711D01*
X000977Y009736D01*
X000994Y009759D01*
X001013Y009779D01*
X001035Y009796D01*
X001059Y009810D01*
X001085Y009820D01*
X001112Y009827D01*
X001140Y009830D01*
X001168Y009829D01*
X001195Y009824D01*
X001222Y009815D01*
X001247Y009803D01*
X001270Y009788D01*
X001291Y009769D01*
X001309Y009748D01*
X001324Y009724D01*
X001335Y009698D01*
X001343Y009672D01*
X001347Y009644D01*
X001347Y009616D01*
X001343Y009588D01*
X001335Y009562D01*
X001324Y009536D01*
X001309Y009512D01*
X001291Y009491D01*
X001270Y009472D01*
X001247Y009457D01*
X001222Y009445D01*
X001195Y009436D01*
X001168Y009431D01*
X001140Y009430D01*
X001112Y009433D01*
X001085Y009440D01*
X001059Y009450D01*
X001035Y009464D01*
X001013Y009481D01*
X000994Y009501D01*
X000977Y009524D01*
X000964Y009549D01*
X000955Y009575D01*
X000949Y009602D01*
X000947Y009630D01*
D13*
X006221Y016255D02*
X006521Y016255D01*
X006371Y016255D02*
X006371Y016705D01*
X006221Y016555D01*
X006681Y016630D02*
X006681Y016330D01*
X006982Y016630D01*
X006982Y016330D01*
X006906Y016255D01*
X006756Y016255D01*
X006681Y016330D01*
X006681Y016630D02*
X006756Y016705D01*
X006906Y016705D01*
X006982Y016630D01*
X007017Y017025D02*
X006867Y017025D01*
X006792Y017100D01*
X006792Y017400D01*
X006867Y017475D01*
X007017Y017475D01*
X007092Y017400D01*
X007092Y017100D01*
X007017Y017025D01*
X007092Y017025D02*
X006942Y017175D01*
X007252Y017100D02*
X007327Y017025D01*
X007477Y017025D01*
X007552Y017100D01*
X007552Y017175D01*
X007477Y017250D01*
X007402Y017250D01*
X007477Y017250D02*
X007552Y017325D01*
X007552Y017400D01*
X007477Y017475D01*
X007327Y017475D01*
X007252Y017400D01*
X008486Y013505D02*
X008410Y013430D01*
X008410Y013355D01*
X008486Y013280D01*
X008636Y013280D01*
X008711Y013205D01*
X008711Y013130D01*
X008636Y013055D01*
X008486Y013055D01*
X008410Y013130D01*
X008486Y013505D02*
X008636Y013505D01*
X008711Y013430D01*
X008871Y013505D02*
X008871Y013205D01*
X009021Y013055D01*
X009171Y013205D01*
X009171Y013505D01*
X009331Y013430D02*
X009406Y013505D01*
X009556Y013505D01*
X009632Y013430D01*
X009632Y013355D01*
X009331Y013055D01*
X009632Y013055D01*
X010481Y013055D02*
X010782Y013055D01*
X010631Y013055D02*
X010631Y013505D01*
X010481Y013355D01*
X013911Y011950D02*
X014136Y011725D01*
X014136Y012025D01*
X013911Y011950D02*
X014362Y011950D01*
X014136Y011564D02*
X013986Y011564D01*
X013911Y011489D01*
X013911Y011264D01*
X014362Y011264D01*
X014212Y011264D02*
X014212Y011489D01*
X014136Y011564D01*
X013911Y011104D02*
X013911Y010954D01*
X013911Y011029D02*
X014287Y011029D01*
X014362Y010954D01*
X014362Y010879D01*
X014287Y010804D01*
X011392Y009216D02*
X011392Y008915D01*
X011392Y009066D02*
X010941Y009066D01*
X011091Y008915D01*
X011016Y008755D02*
X010941Y008680D01*
X010941Y008455D01*
X011392Y008455D01*
X011242Y008455D02*
X011242Y008680D01*
X011166Y008755D01*
X011016Y008755D01*
X011242Y008605D02*
X011392Y008755D01*
X011132Y009155D02*
X010831Y009155D01*
X010981Y009155D02*
X010981Y009605D01*
X010831Y009455D01*
X010671Y009380D02*
X010596Y009305D01*
X010371Y009305D01*
X010371Y009155D02*
X010371Y009605D01*
X010596Y009605D01*
X010671Y009530D01*
X010671Y009380D01*
X010211Y009605D02*
X010061Y009605D01*
X010136Y009605D02*
X010136Y009230D01*
X010061Y009155D01*
X009986Y009155D01*
X009910Y009230D01*
X015291Y004045D02*
X015742Y004045D01*
X015742Y003895D02*
X015742Y004195D01*
X015441Y003895D02*
X015291Y004045D01*
X015366Y003734D02*
X015291Y003659D01*
X015291Y003434D01*
X015742Y003434D01*
X015742Y003659D01*
X015667Y003734D01*
X015366Y003734D01*
X015841Y003573D02*
X015841Y003346D01*
X015841Y003459D02*
X016182Y003459D01*
X015841Y003214D02*
X015841Y002987D01*
X015841Y003100D02*
X016182Y003100D01*
X017591Y003159D02*
X017591Y003009D01*
X017666Y002934D01*
X017967Y002934D01*
X018042Y003009D01*
X018042Y003159D01*
X017967Y003234D01*
X017967Y003395D02*
X017892Y003395D01*
X017816Y003470D01*
X017816Y003620D01*
X017892Y003695D01*
X017967Y003695D01*
X018042Y003620D01*
X018042Y003470D01*
X017967Y003395D01*
X017816Y003470D02*
X017741Y003395D01*
X017666Y003395D01*
X017591Y003470D01*
X017591Y003620D01*
X017666Y003695D01*
X017741Y003695D01*
X017816Y003620D01*
X017666Y003234D02*
X017591Y003159D01*
X017006Y004655D02*
X016856Y004655D01*
X016781Y004730D01*
X016621Y004730D02*
X016546Y004655D01*
X016396Y004655D01*
X016321Y004730D01*
X016321Y005030D01*
X016396Y005105D01*
X016546Y005105D01*
X016621Y005030D01*
X016781Y005030D02*
X016781Y004955D01*
X016856Y004880D01*
X017082Y004880D01*
X017082Y004730D02*
X017082Y005030D01*
X017006Y005105D01*
X016856Y005105D01*
X016781Y005030D01*
X017082Y004730D02*
X017006Y004655D01*
X020287Y010804D02*
X020362Y010879D01*
X020362Y010954D01*
X020287Y011029D01*
X019911Y011029D01*
X019911Y010954D02*
X019911Y011104D01*
X019911Y011264D02*
X019911Y011489D01*
X019986Y011564D01*
X020136Y011564D01*
X020212Y011489D01*
X020212Y011264D01*
X020362Y011264D02*
X019911Y011264D01*
X019911Y011725D02*
X020136Y011725D01*
X020061Y011875D01*
X020061Y011950D01*
X020136Y012025D01*
X020287Y012025D01*
X020362Y011950D01*
X020362Y011800D01*
X020287Y011725D01*
X019911Y011725D02*
X019911Y012025D01*
X016892Y014099D02*
X016892Y014174D01*
X016817Y014249D01*
X016441Y014249D01*
X016441Y014174D02*
X016441Y014324D01*
X016441Y014484D02*
X016441Y014709D01*
X016516Y014784D01*
X016666Y014784D01*
X016742Y014709D01*
X016742Y014484D01*
X016892Y014484D02*
X016441Y014484D01*
X016892Y014099D02*
X016817Y014024D01*
X016892Y014945D02*
X016591Y015245D01*
X016516Y015245D01*
X016441Y015170D01*
X016441Y015020D01*
X016516Y014945D01*
X016892Y014945D02*
X016892Y015245D01*
X013052Y017025D02*
X012752Y017025D01*
X013052Y017325D01*
X013052Y017400D01*
X012977Y017475D01*
X012827Y017475D01*
X012752Y017400D01*
X012592Y017400D02*
X012592Y017100D01*
X012517Y017025D01*
X012367Y017025D01*
X012292Y017100D01*
X012292Y017400D01*
X012367Y017475D01*
X012517Y017475D01*
X012592Y017400D01*
X012442Y017175D02*
X012592Y017025D01*
X002302Y017025D02*
X002002Y017025D01*
X002152Y017025D02*
X002152Y017475D01*
X002002Y017325D01*
X001842Y017400D02*
X001842Y017100D01*
X001767Y017025D01*
X001617Y017025D01*
X001542Y017100D01*
X001542Y017400D01*
X001617Y017475D01*
X001767Y017475D01*
X001842Y017400D01*
X001692Y017175D02*
X001842Y017025D01*
D14*
X016482Y003380D03*
D15*
X016417Y005430D02*
X016417Y005730D01*
X016417Y006030D01*
X016217Y006030D02*
X016217Y005730D01*
X016217Y005430D01*
D16*
X014977Y008180D02*
X014977Y009580D01*
X017557Y009580D01*
X017557Y008180D01*
X014977Y008180D01*
X016652Y013360D02*
X016967Y013675D01*
X016967Y015632D01*
X016960Y015632D02*
X016680Y015632D01*
X016680Y017128D02*
X016960Y017128D01*
X016967Y017128D02*
X016967Y019085D01*
X016652Y019400D01*
X016652Y013360D01*
X019881Y013360D01*
X019566Y013675D01*
X016967Y013675D01*
X019566Y013675D02*
X019566Y019085D01*
X019881Y019400D01*
X019881Y013360D01*
X019566Y019085D02*
X016967Y019085D01*
X016652Y019400D02*
X019881Y019400D01*
D17*
X011247Y018417D02*
X011247Y018110D01*
X010940Y018417D01*
X010863Y018417D01*
X010786Y018341D01*
X010786Y018187D01*
X010863Y018110D01*
X010863Y017957D02*
X011016Y017957D01*
X011093Y017880D01*
X011093Y017650D01*
X011093Y017803D02*
X011247Y017957D01*
X011247Y017650D02*
X010786Y017650D01*
X010786Y017880D01*
X010863Y017957D01*
X005747Y017957D02*
X005593Y017803D01*
X005593Y017880D02*
X005593Y017650D01*
X005747Y017650D02*
X005286Y017650D01*
X005286Y017880D01*
X005363Y017957D01*
X005516Y017957D01*
X005593Y017880D01*
X005670Y018110D02*
X005747Y018187D01*
X005747Y018341D01*
X005670Y018417D01*
X005593Y018417D01*
X005516Y018341D01*
X005516Y018264D01*
X005516Y018341D02*
X005440Y018417D01*
X005363Y018417D01*
X005286Y018341D01*
X005286Y018187D01*
X005363Y018110D01*
X000747Y017957D02*
X000593Y017803D01*
X000593Y017880D02*
X000593Y017650D01*
X000747Y017650D02*
X000286Y017650D01*
X000286Y017880D01*
X000363Y017957D01*
X000516Y017957D01*
X000593Y017880D01*
X000516Y018110D02*
X000516Y018417D01*
X000286Y018341D02*
X000516Y018110D01*
X000286Y018341D02*
X000747Y018341D01*
X015287Y009380D02*
X015440Y009380D01*
X015363Y009380D02*
X015363Y008920D01*
X015287Y008920D02*
X015440Y008920D01*
X015594Y008997D02*
X015670Y008920D01*
X015824Y008920D01*
X015901Y008997D01*
X016054Y009150D02*
X016361Y009150D01*
X016284Y008920D02*
X016284Y009380D01*
X016054Y009150D01*
X015901Y009304D02*
X015824Y009380D01*
X015670Y009380D01*
X015594Y009304D01*
X015594Y008997D01*
D18*
X017491Y017782D02*
X017491Y018333D01*
X017070Y018057D01*
X017491Y017782D01*
D19*
X014617Y004130D03*
D20*
X014617Y004755D03*
X014617Y002405D03*
D21*
X012017Y008210D03*
X012017Y011050D03*
D22*
X012497Y017920D03*
X006997Y017920D03*
X001747Y017920D03*
D23*
X003517Y019230D03*
X008767Y019230D03*
X014267Y019230D03*
D24*
X015992Y018980D03*
X012542Y018980D03*
X010492Y018980D03*
X007042Y018980D03*
X005242Y018980D03*
X001792Y018980D03*
D25*
X003017Y018980D03*
X004017Y018980D03*
X008267Y018980D03*
X009267Y018980D03*
X013767Y018980D03*
X014767Y018980D03*
M02*
