%
M48
M72
T01C0.0197
T02C0.0236
T03C0.0320
T04C0.0360
T05C0.0394
T06C0.0400
T07C0.0440
T08C0.0470
%
T01
X15017Y8980
X15467Y8980
X15517Y9480
X16017Y9480
X16017Y8980
X16517Y8980
X17017Y8980
X17017Y9480
X16517Y9480
X17017Y9980
X17017Y10480
X16517Y10480
X16517Y10980
X17017Y10980
X17017Y11480
X16517Y11480
X16017Y11480
X16017Y10980
X15517Y10980
X15517Y11480
X15017Y11480
X15017Y10980
X15017Y10480
X15517Y10480
X16017Y10480
X15517Y9980
X15017Y9980
X15017Y9480
X17517Y9480
X17517Y8980
X17517Y9980
X17517Y10480
X17517Y10980
X17517Y11480
T02
X3567Y16180
X4867Y14430
X8367Y12580
X9617Y11980
X10067Y11980
X11367Y10630
X11767Y9680
X12217Y9380
X11267Y8530
X10817Y8630
X10817Y9730
X9917Y9630
X7617Y9180
X6617Y7280
X5680Y6572
X7417Y5530
X11267Y7030
X14117Y6530
X14117Y7580
X14467Y9330
X13917Y11180
X12367Y11080
X13867Y13330
X14367Y13330
X15067Y13330
X15367Y12630
X14417Y14830
X12167Y15330
X11367Y15880
X10717Y16230
X10267Y13930
X17417Y6880
X17867Y7180
X17917Y6030
X17417Y6030
X17467Y5230
X17917Y5230
X18367Y5230
X18367Y6030
X17017Y3430
X17667Y2680
X15717Y3780
X14667Y4330
X13967Y4080
X18717Y12380
X18717Y13380
T03
X12017Y11630
X12017Y7630
X15817Y5730
X16817Y5730
X17067Y4380
X16067Y4380
T04
X6767Y14380
X7767Y14380
X8767Y14380
X9767Y14380
X10767Y14380
X10767Y15380
X9767Y15380
X8767Y15380
X7767Y15380
X6767Y15380
X15767Y14880
X15767Y13880
T05
X17767Y17380
X18767Y17380
X18767Y16380
X17767Y16380
X17767Y15380
X18767Y15380
T06
X2517Y18380
X3517Y18380
X4517Y18380
X7767Y18380
X8767Y18380
X9767Y18380
X13267Y18380
X14267Y18380
X15267Y18380
X13167Y11630
X13167Y10630
X13167Y9630
X13167Y8630
X13167Y7630
X13167Y6630
X13167Y5630
X13167Y4630
X13167Y3630
X13167Y2630
X13167Y1630
X13167Y630
X19167Y630
X19167Y1630
X19167Y2630
X19167Y3630
X19167Y4630
X19167Y5630
X19167Y6630
X19167Y7630
X19167Y8630
X19167Y9630
X19167Y10630
X19167Y11630
X10767Y11380
X10767Y10380
X9767Y10380
X9767Y11380
X8767Y11380
X8767Y10380
X7767Y10380
X7767Y11380
X3703Y3893
X3703Y2893
X3703Y1893
X3703Y893
X973Y876
X973Y1876
X973Y2876
X973Y3876
T07
X14617Y1580
X14617Y5580
T08
X2517Y5630
X2517Y7630
X2517Y9630
X2517Y11630
X2517Y13880
X2517Y15880
M30
