%
M48
M72
T01C0.0197
T02C0.0236
T03C0.0320
T04C0.0360
T05C0.0394
T06C0.0400
T07C0.0440
T08C0.0470
%
T01
X15017Y9030
X15467Y9030
X15517Y9530
X16017Y9530
X16017Y9030
X16517Y9030
X17017Y9030
X17017Y9530
X16517Y9530
X17017Y10030
X17017Y10530
X16517Y10530
X16517Y11030
X17017Y11030
X17017Y11530
X16517Y11530
X16017Y11530
X16017Y11030
X15517Y11030
X15517Y11530
X15017Y11530
X15017Y11030
X15017Y10530
X15517Y10530
X16017Y10530
X15517Y10030
X15017Y10030
X15017Y9530
X17517Y9530
X17517Y9030
X17517Y10030
X17517Y10530
X17517Y11030
X17517Y11530
T02
X3567Y16230
X4867Y14480
X8367Y12630
X9617Y12030
X10067Y12030
X11367Y10680
X11767Y9730
X12217Y9430
X11267Y8580
X10817Y8680
X10817Y9780
X9917Y9680
X7617Y9230
X6617Y7330
X5680Y6622
X7417Y5580
X11267Y7080
X14117Y6580
X14117Y7630
X14467Y9380
X13917Y11230
X12367Y11130
X13867Y13380
X14367Y13380
X15067Y13380
X15367Y12680
X14417Y14880
X12167Y15380
X11367Y15930
X10717Y16280
X10267Y13980
X17417Y6930
X17867Y7230
X17917Y6080
X17417Y6080
X17467Y5280
X17917Y5280
X18367Y5280
X18367Y6080
X17017Y3480
X17667Y2730
X15717Y3830
X14667Y4380
X13967Y4130
X18717Y12430
X18717Y13430
T03
X12017Y11680
X12017Y7680
X15817Y5780
X16817Y5780
X17067Y4430
X16067Y4430
T04
X6767Y14430
X7767Y14430
X8767Y14430
X9767Y14430
X10767Y14430
X10767Y15430
X9767Y15430
X8767Y15430
X7767Y15430
X6767Y15430
X15767Y14930
X15767Y13930
T05
X17767Y17430
X18767Y17430
X18767Y16430
X17767Y16430
X17767Y15430
X18767Y15430
T06
X2517Y18430
X3517Y18430
X4517Y18430
X7767Y18430
X8767Y18430
X9767Y18430
X13267Y18430
X14267Y18430
X15267Y18430
X13167Y11680
X13167Y10680
X13167Y9680
X13167Y8680
X13167Y7680
X13167Y6680
X13167Y5680
X13167Y4680
X13167Y3680
X13167Y2680
X13167Y1680
X13167Y680
X19167Y680
X19167Y1680
X19167Y2680
X19167Y3680
X19167Y4680
X19167Y5680
X19167Y6680
X19167Y7680
X19167Y8680
X19167Y9680
X19167Y10680
X19167Y11680
X10767Y11430
X10767Y10430
X9767Y10430
X9767Y11430
X8767Y11430
X8767Y10430
X7767Y10430
X7767Y11430
X3703Y3943
X3703Y2943
X3703Y1943
X3703Y943
X973Y926
X973Y1926
X973Y2926
X973Y3926
T07
X14617Y1630
X14617Y5630
T08
X2517Y5680
X2517Y7680
X2517Y9680
X2517Y11680
X2517Y13930
X2517Y15930
M30
