G75*
%MOIN*%
%OFA0B0*%
%FSLAX24Y24*%
%IPPOS*%
%LPD*%
%AMOC8*
5,1,8,0,0,1.08239X$1,22.5*
%
%ADD10C,0.0000*%
%ADD11R,0.3000X0.3000*%
%ADD12OC8,0.0670*%
%ADD13C,0.0670*%
%ADD14OC8,0.0560*%
%ADD15C,0.0640*%
%ADD16C,0.0600*%
%ADD17OC8,0.0600*%
%ADD18OC8,0.0634*%
%ADD19OC8,0.0640*%
%ADD20C,0.0700*%
%ADD21C,0.0745*%
%ADD22C,0.0600*%
D10*
X000267Y000180D02*
X000267Y019865D01*
X019952Y019865D01*
X019952Y000180D01*
X012326Y000180D01*
X012326Y004836D01*
X005161Y004836D01*
X005161Y000180D01*
X000267Y000180D01*
D11*
X016267Y009930D03*
D12*
X016067Y004430D03*
D13*
X017067Y004430D03*
D14*
X016817Y005780D03*
X015817Y005780D03*
X012017Y007680D03*
X012017Y011680D03*
D15*
X012867Y011680D02*
X013467Y011680D01*
X013467Y010680D02*
X012867Y010680D01*
X012867Y009680D02*
X013467Y009680D01*
X013467Y008680D02*
X012867Y008680D01*
X012867Y007680D02*
X013467Y007680D01*
X013467Y006680D02*
X012867Y006680D01*
X012867Y005680D02*
X013467Y005680D01*
X013467Y004680D02*
X012867Y004680D01*
X012867Y003680D02*
X013467Y003680D01*
X013467Y002680D02*
X012867Y002680D01*
X012867Y001680D02*
X013467Y001680D01*
X013467Y000680D02*
X012867Y000680D01*
X018867Y000680D02*
X019467Y000680D01*
X019467Y001680D02*
X018867Y001680D01*
X018867Y002680D02*
X019467Y002680D01*
X019467Y003680D02*
X018867Y003680D01*
X018867Y004680D02*
X019467Y004680D01*
X019467Y005680D02*
X018867Y005680D01*
X018867Y006680D02*
X019467Y006680D01*
X019467Y007680D02*
X018867Y007680D01*
X018867Y008680D02*
X019467Y008680D01*
X019467Y009680D02*
X018867Y009680D01*
X018867Y010680D02*
X019467Y010680D01*
X019467Y011680D02*
X018867Y011680D01*
X015267Y018130D02*
X015267Y018730D01*
X014267Y018730D02*
X014267Y018130D01*
X013267Y018130D02*
X013267Y018730D01*
X009767Y018730D02*
X009767Y018130D01*
X008767Y018130D02*
X008767Y018730D01*
X007767Y018730D02*
X007767Y018130D01*
X004517Y018130D02*
X004517Y018730D01*
X003517Y018730D02*
X003517Y018130D01*
X002517Y018130D02*
X002517Y018730D01*
X003403Y003943D02*
X004003Y003943D01*
X004003Y002943D02*
X003403Y002943D01*
X003403Y001943D02*
X004003Y001943D01*
X004003Y000943D02*
X003403Y000943D01*
X001273Y000926D02*
X000673Y000926D01*
X000673Y001926D02*
X001273Y001926D01*
X001273Y002926D02*
X000673Y002926D01*
X000673Y003926D02*
X001273Y003926D01*
D16*
X010767Y014430D03*
D17*
X010767Y015430D03*
X009767Y015430D03*
X009767Y014430D03*
X008767Y014430D03*
X008767Y015430D03*
X007767Y015430D03*
X006767Y015430D03*
X006767Y014430D03*
X007767Y014430D03*
D18*
X017767Y015430D03*
X018767Y015430D03*
X018767Y016430D03*
X017767Y016430D03*
X017767Y017430D03*
X018767Y017430D03*
D19*
X010767Y011430D03*
X010767Y010430D03*
X009767Y010430D03*
X009767Y011430D03*
X008767Y011430D03*
X008767Y010430D03*
X007767Y010430D03*
X007767Y011430D03*
D20*
X014617Y005630D03*
X014617Y001630D03*
D21*
X002869Y005680D02*
X002164Y005680D01*
X002164Y007680D02*
X002869Y007680D01*
X002869Y009680D02*
X002164Y009680D01*
X002164Y011680D02*
X002869Y011680D01*
X002869Y013930D02*
X002164Y013930D01*
X002164Y015930D02*
X002869Y015930D01*
D22*
X015487Y014930D02*
X016047Y014930D01*
X016047Y013930D02*
X015487Y013930D01*
M02*
