G75*
%MOIN*%
%OFA0B0*%
%FSLAX24Y24*%
%IPPOS*%
%LPD*%
%AMOC8*
5,1,8,0,0,1.08239X$1,22.5*
%
%ADD10C,0.0000*%
%ADD11OC8,0.0630*%
%ADD12C,0.0630*%
%ADD13OC8,0.0520*%
%ADD14R,0.0591X0.0787*%
%ADD15R,0.1496X0.0787*%
%ADD16C,0.0600*%
%ADD17C,0.0560*%
%ADD18OC8,0.0560*%
%ADD19OC8,0.0594*%
%ADD20OC8,0.0600*%
%ADD21C,0.0660*%
%ADD22R,0.0630X0.0512*%
%ADD23C,0.0705*%
%ADD24C,0.0560*%
%ADD25C,0.0240*%
%ADD26C,0.1000*%
%ADD27C,0.0160*%
%ADD28C,0.0320*%
%ADD29R,0.0356X0.0356*%
%ADD30C,0.0400*%
%ADD31C,0.0317*%
%ADD32C,0.0100*%
%ADD33C,0.0120*%
D10*
X000267Y000180D02*
X000267Y019865D01*
X019952Y019865D01*
X019952Y000180D01*
X012326Y000180D01*
X012326Y004836D01*
X005161Y004836D01*
X005161Y000180D01*
X000267Y000180D01*
D11*
X016067Y004430D03*
D12*
X017067Y004430D03*
D13*
X016817Y005780D03*
X015817Y005780D03*
X012017Y007680D03*
X012017Y011680D03*
D14*
X015361Y007690D03*
X016267Y007690D03*
X017172Y007690D03*
D15*
X016267Y010170D03*
D16*
X018867Y009680D02*
X019467Y009680D01*
X019467Y008680D02*
X018867Y008680D01*
X018867Y007680D02*
X019467Y007680D01*
X019467Y006680D02*
X018867Y006680D01*
X018867Y005680D02*
X019467Y005680D01*
X019467Y004680D02*
X018867Y004680D01*
X018867Y003680D02*
X019467Y003680D01*
X019467Y002680D02*
X018867Y002680D01*
X018867Y001680D02*
X019467Y001680D01*
X019467Y000680D02*
X018867Y000680D01*
X013467Y000680D02*
X012867Y000680D01*
X012867Y001680D02*
X013467Y001680D01*
X013467Y002680D02*
X012867Y002680D01*
X012867Y003680D02*
X013467Y003680D01*
X013467Y004680D02*
X012867Y004680D01*
X012867Y005680D02*
X013467Y005680D01*
X013467Y006680D02*
X012867Y006680D01*
X012867Y007680D02*
X013467Y007680D01*
X013467Y008680D02*
X012867Y008680D01*
X012867Y009680D02*
X013467Y009680D01*
X013467Y010680D02*
X012867Y010680D01*
X012867Y011680D02*
X013467Y011680D01*
X018867Y011680D02*
X019467Y011680D01*
X019467Y010680D02*
X018867Y010680D01*
X015267Y018130D02*
X015267Y018730D01*
X014267Y018730D02*
X014267Y018130D01*
X013267Y018130D02*
X013267Y018730D01*
X009767Y018730D02*
X009767Y018130D01*
X008767Y018130D02*
X008767Y018730D01*
X007767Y018730D02*
X007767Y018130D01*
X004517Y018130D02*
X004517Y018730D01*
X003517Y018730D02*
X003517Y018130D01*
X002517Y018130D02*
X002517Y018730D01*
X003403Y003943D02*
X004003Y003943D01*
X004003Y002943D02*
X003403Y002943D01*
X003403Y001943D02*
X004003Y001943D01*
X004003Y000943D02*
X003403Y000943D01*
X001273Y000926D02*
X000673Y000926D01*
X000673Y001926D02*
X001273Y001926D01*
X001273Y002926D02*
X000673Y002926D01*
X000673Y003926D02*
X001273Y003926D01*
D17*
X010767Y014430D03*
D18*
X010767Y015430D03*
X009767Y015430D03*
X009767Y014430D03*
X008767Y014430D03*
X008767Y015430D03*
X007767Y015430D03*
X006767Y015430D03*
X006767Y014430D03*
X007767Y014430D03*
D19*
X017767Y015430D03*
X018767Y015430D03*
X018767Y016430D03*
X017767Y016430D03*
X017767Y017430D03*
X018767Y017430D03*
D20*
X010767Y011430D03*
X010767Y010430D03*
X009767Y010430D03*
X009767Y011430D03*
X008767Y011430D03*
X008767Y010430D03*
X007767Y010430D03*
X007767Y011430D03*
D21*
X014617Y005630D03*
X014617Y001630D03*
D22*
X011767Y017806D03*
X011767Y018554D03*
X006267Y018554D03*
X006267Y017806D03*
X001267Y017806D03*
X001267Y018554D03*
D23*
X002164Y015930D02*
X002869Y015930D01*
X002869Y013930D02*
X002164Y013930D01*
X002164Y011680D02*
X002869Y011680D01*
X002869Y009680D02*
X002164Y009680D01*
X002164Y007680D02*
X002869Y007680D01*
X002869Y005680D02*
X002164Y005680D01*
D24*
X001180Y005311D02*
X002029Y004636D01*
X002029Y003257D01*
X001467Y002955D01*
X000973Y002926D01*
X000973Y001926D02*
X001507Y001912D01*
X002707Y002733D01*
X002709Y004570D01*
X003686Y005329D01*
X003660Y007393D01*
X003347Y007680D01*
X002517Y007680D01*
X001180Y008990D02*
X001807Y009617D01*
X002453Y009617D01*
X002517Y009680D01*
X001180Y008990D02*
X001180Y005311D01*
X003747Y004491D02*
X003703Y003943D01*
X003747Y004491D02*
X004402Y005006D01*
X004400Y005930D01*
X004400Y006030D01*
X004390Y011035D01*
X003739Y011656D01*
X002541Y011656D01*
X002517Y011680D01*
X005677Y012770D02*
X002517Y015930D01*
X005677Y012770D02*
X005680Y006622D01*
X015487Y013930D02*
X016047Y013930D01*
X016047Y014930D02*
X015487Y014930D01*
D25*
X013267Y018430D02*
X013143Y018554D01*
X011767Y018554D01*
X007767Y018430D02*
X007643Y018554D01*
X006267Y018554D01*
X002517Y018430D02*
X002393Y018554D01*
X001267Y018554D01*
X015361Y007690D02*
X015517Y007284D01*
X015517Y006480D01*
X015817Y006180D01*
X015817Y005780D01*
X015817Y004830D01*
X016067Y004430D01*
X016517Y004980D02*
X016317Y005480D01*
X016317Y008830D01*
X016517Y009030D01*
X017172Y007690D02*
X017017Y007284D01*
X017017Y006430D01*
X016817Y006180D01*
X016817Y005780D01*
X016667Y004980D02*
X016517Y004980D01*
X016667Y004980D02*
X017067Y004430D01*
D26*
X015267Y017180D02*
X011717Y017180D01*
X010417Y017180D01*
X009767Y017180D01*
X006267Y017180D01*
X004517Y017180D01*
X002517Y017180D01*
X002517Y015930D01*
X002517Y017180D02*
X001267Y017180D01*
X004517Y017180D02*
X004517Y018430D01*
X009767Y018430D02*
X009767Y017180D01*
X015267Y017180D02*
X015267Y018430D01*
D27*
X015287Y018450D02*
X015747Y018450D01*
X015747Y018768D01*
X015735Y018842D01*
X015711Y018914D01*
X015677Y018982D01*
X015633Y019043D01*
X015579Y019096D01*
X015518Y019141D01*
X015451Y019175D01*
X015379Y019198D01*
X015304Y019210D01*
X015287Y019210D01*
X015287Y018450D01*
X015287Y018410D01*
X015747Y018410D01*
X015747Y018092D01*
X015735Y018018D01*
X015711Y017946D01*
X015677Y017878D01*
X015633Y017817D01*
X015579Y017764D01*
X015518Y017719D01*
X015451Y017685D01*
X015379Y017662D01*
X015304Y017650D01*
X015287Y017650D01*
X015287Y018410D01*
X015247Y018410D01*
X015247Y017650D01*
X015229Y017650D01*
X015154Y017662D01*
X015082Y017685D01*
X015015Y017719D01*
X014954Y017764D01*
X014901Y017817D01*
X014856Y017878D01*
X014822Y017946D01*
X014798Y018018D01*
X014787Y018092D01*
X014787Y018410D01*
X015247Y018410D01*
X015247Y018450D01*
X015247Y019210D01*
X015229Y019210D01*
X015154Y019198D01*
X015082Y019175D01*
X015015Y019141D01*
X014954Y019096D01*
X014901Y019043D01*
X014856Y018982D01*
X014822Y018914D01*
X014798Y018842D01*
X014787Y018768D01*
X014787Y018450D01*
X015247Y018450D01*
X015287Y018450D01*
X015287Y018408D02*
X015247Y018408D01*
X015247Y018566D02*
X015287Y018566D01*
X015287Y018725D02*
X015247Y018725D01*
X015247Y018883D02*
X015287Y018883D01*
X015287Y019042D02*
X015247Y019042D01*
X015247Y019200D02*
X015287Y019200D01*
X015367Y019200D02*
X019772Y019200D01*
X019772Y019042D02*
X015634Y019042D01*
X015722Y018883D02*
X019772Y018883D01*
X019772Y018725D02*
X015747Y018725D01*
X015747Y018566D02*
X019772Y018566D01*
X019772Y018408D02*
X015747Y018408D01*
X015747Y018249D02*
X019772Y018249D01*
X019772Y018091D02*
X015746Y018091D01*
X015705Y017932D02*
X019772Y017932D01*
X019772Y017774D02*
X019070Y017774D01*
X018956Y017888D02*
X018577Y017888D01*
X018309Y017620D01*
X018309Y017240D01*
X018379Y017171D01*
X018269Y017171D01*
X018180Y017134D01*
X018113Y017066D01*
X017934Y016888D01*
X017577Y016888D01*
X017360Y016671D01*
X010819Y016671D01*
X010730Y016634D01*
X010715Y016619D01*
X010472Y016619D01*
X010378Y016525D01*
X010378Y016035D01*
X010472Y015941D01*
X010961Y015941D01*
X011028Y016008D01*
X011028Y015792D01*
X010949Y015871D01*
X010584Y015871D01*
X010326Y015613D01*
X010326Y015247D01*
X010584Y014989D01*
X010949Y014989D01*
X011133Y015173D01*
X011176Y015130D01*
X011176Y014640D01*
X011160Y014671D01*
X011118Y014730D01*
X011066Y014781D01*
X011008Y014823D01*
X010943Y014856D01*
X010874Y014879D01*
X010803Y014890D01*
X010777Y014890D01*
X010777Y014440D01*
X010757Y014440D01*
X010757Y014890D01*
X010730Y014890D01*
X010659Y014879D01*
X010590Y014856D01*
X010526Y014823D01*
X010467Y014781D01*
X010416Y014730D01*
X010373Y014671D01*
X010340Y014607D01*
X010318Y014538D01*
X010307Y014466D01*
X010307Y014440D01*
X010757Y014440D01*
X010757Y014420D01*
X010777Y014420D01*
X010777Y013970D01*
X010803Y013970D01*
X010874Y013981D01*
X010943Y014004D01*
X011008Y014037D01*
X011066Y014079D01*
X011118Y014130D01*
X011160Y014189D01*
X011176Y014220D01*
X011176Y013411D01*
X010605Y013982D01*
X010605Y013999D01*
X010659Y013981D01*
X010730Y013970D01*
X010757Y013970D01*
X010757Y014420D01*
X010307Y014420D01*
X010307Y014394D01*
X010318Y014322D01*
X010319Y014319D01*
X010207Y014319D01*
X010207Y014613D01*
X009949Y014871D01*
X009584Y014871D01*
X009326Y014613D01*
X009326Y014247D01*
X009526Y014047D01*
X009526Y013739D01*
X009523Y013701D01*
X009525Y013696D01*
X009424Y013810D01*
X009421Y013816D01*
X009392Y013845D01*
X009365Y013876D01*
X009358Y013879D01*
X009353Y013884D01*
X009315Y013900D01*
X009279Y013917D01*
X009271Y013918D01*
X009265Y013921D01*
X009224Y013921D01*
X009183Y013923D01*
X009176Y013921D01*
X008757Y013921D01*
X008679Y013989D01*
X008949Y013989D01*
X009207Y014247D01*
X009207Y014613D01*
X008949Y014871D01*
X008584Y014871D01*
X008507Y014794D01*
X008507Y014874D01*
X008509Y014916D01*
X008507Y014922D01*
X008507Y014928D01*
X008491Y014967D01*
X008477Y015006D01*
X008473Y015011D01*
X008471Y015016D01*
X008441Y015046D01*
X008207Y015303D01*
X008207Y015613D01*
X008031Y015789D01*
X008503Y015789D01*
X008326Y015613D01*
X008326Y015247D01*
X008584Y014989D01*
X008949Y014989D01*
X009207Y015247D01*
X009207Y015613D01*
X009031Y015789D01*
X009367Y015789D01*
X009435Y015721D01*
X009326Y015613D01*
X009326Y015247D01*
X009584Y014989D01*
X009949Y014989D01*
X010207Y015247D01*
X010207Y015613D01*
X009983Y015837D01*
X009971Y015866D01*
X009671Y016166D01*
X009603Y016234D01*
X009515Y016271D01*
X007605Y016271D01*
X007596Y016274D01*
X007557Y016271D01*
X007519Y016271D01*
X007510Y016267D01*
X007500Y016266D01*
X007466Y016249D01*
X007430Y016234D01*
X007424Y016227D01*
X007415Y016223D01*
X007390Y016194D01*
X007363Y016166D01*
X007359Y016158D01*
X007090Y015844D01*
X007063Y015816D01*
X007059Y015808D01*
X007053Y015800D01*
X007045Y015775D01*
X006949Y015871D01*
X006584Y015871D01*
X006360Y015646D01*
X006330Y015634D01*
X006263Y015566D01*
X005863Y015166D01*
X005826Y015078D01*
X005826Y014392D01*
X005700Y014536D01*
X005507Y014767D01*
X005507Y014846D01*
X005511Y014860D01*
X005507Y014894D01*
X005507Y014928D01*
X005502Y014941D01*
X005500Y014955D01*
X005484Y014985D01*
X005471Y015016D01*
X005461Y015026D01*
X005454Y015039D01*
X005427Y015060D01*
X005403Y015084D01*
X005390Y015089D01*
X003905Y016268D01*
X003905Y016475D01*
X003811Y016569D01*
X003322Y016569D01*
X003228Y016475D01*
X003228Y016324D01*
X003216Y016336D01*
X003148Y016385D01*
X003074Y016423D01*
X002994Y016449D01*
X002911Y016462D01*
X002554Y016462D01*
X002554Y015968D01*
X002479Y015968D01*
X002479Y016462D01*
X002122Y016462D01*
X002039Y016449D01*
X001960Y016423D01*
X001885Y016385D01*
X001817Y016336D01*
X001758Y016277D01*
X001709Y016209D01*
X001671Y016134D01*
X001645Y016055D01*
X001632Y015972D01*
X001632Y015968D01*
X002479Y015968D01*
X002479Y015892D01*
X002554Y015892D01*
X002554Y015397D01*
X002911Y015398D01*
X002994Y015411D01*
X003074Y015437D01*
X003148Y015475D01*
X003216Y015524D01*
X003275Y015583D01*
X003325Y015651D01*
X003363Y015726D01*
X003389Y015805D01*
X003402Y015888D01*
X003402Y015891D01*
X003606Y015891D01*
X004957Y014819D01*
X004622Y014819D01*
X004528Y014725D01*
X004528Y014235D01*
X004622Y014141D01*
X004848Y014141D01*
X005976Y012888D01*
X005976Y008482D01*
X006013Y008394D01*
X006080Y008326D01*
X006735Y007672D01*
X006688Y007691D01*
X006545Y007691D01*
X006492Y007669D01*
X006372Y007669D01*
X006278Y007575D01*
X006278Y007455D01*
X006256Y007402D01*
X006256Y006872D01*
X005809Y006391D01*
X004916Y006391D01*
X004839Y006467D01*
X004831Y010953D01*
X004832Y010958D01*
X005976Y010958D01*
X005976Y010800D02*
X004831Y010800D01*
X004832Y010958D02*
X004830Y011041D01*
X004830Y011124D01*
X004828Y011128D01*
X004828Y011133D01*
X004795Y011209D01*
X004763Y011285D01*
X004759Y011289D01*
X004757Y011293D01*
X004697Y011351D01*
X004639Y011409D01*
X004634Y011411D01*
X004047Y011971D01*
X003988Y012030D01*
X003983Y012032D01*
X003979Y012035D01*
X003903Y012065D01*
X003826Y012097D01*
X003821Y012097D01*
X003816Y012099D01*
X003733Y012097D01*
X003178Y012097D01*
X003160Y012115D01*
X002971Y012193D01*
X002062Y012193D01*
X001873Y012115D01*
X001729Y011971D01*
X001651Y011782D01*
X001651Y011578D01*
X001729Y011389D01*
X001873Y011245D01*
X002062Y011167D01*
X002971Y011167D01*
X003088Y011215D01*
X003562Y011215D01*
X003949Y010846D01*
X003956Y007721D01*
X003905Y007770D01*
X003898Y007773D01*
X003651Y007999D01*
X003596Y008054D01*
X003587Y008058D01*
X003579Y008064D01*
X003506Y008091D01*
X003434Y008121D01*
X003424Y008121D01*
X003414Y008124D01*
X003337Y008121D01*
X003146Y008121D01*
X002971Y008193D01*
X002062Y008193D01*
X001873Y008115D01*
X001729Y007971D01*
X001651Y007782D01*
X001651Y007578D01*
X001729Y007389D01*
X001873Y007245D01*
X002062Y007167D01*
X002971Y007167D01*
X003146Y007239D01*
X003176Y007239D01*
X003222Y007197D01*
X003237Y006038D01*
X003160Y006115D01*
X002971Y006193D01*
X002062Y006193D01*
X001873Y006115D01*
X001729Y005971D01*
X001651Y005782D01*
X001651Y005578D01*
X001699Y005461D01*
X001621Y005524D01*
X001621Y008807D01*
X001989Y009176D01*
X002040Y009176D01*
X002062Y009167D01*
X002971Y009167D01*
X003160Y009245D01*
X003304Y009389D01*
X003382Y009578D01*
X003382Y009782D01*
X003304Y009971D01*
X003160Y010115D01*
X002971Y010193D01*
X002062Y010193D01*
X001873Y010115D01*
X001816Y010057D01*
X001719Y010057D01*
X001557Y009990D01*
X001433Y009866D01*
X000806Y009239D01*
X000739Y009078D01*
X000739Y005373D01*
X000732Y005348D01*
X000739Y005286D01*
X000739Y005223D01*
X000749Y005200D01*
X000752Y005174D01*
X000782Y005119D01*
X000806Y005061D01*
X000825Y005043D01*
X000837Y005021D01*
X000886Y004982D01*
X000930Y004937D01*
X000954Y004928D01*
X001588Y004423D01*
X001588Y004262D01*
X001534Y004317D01*
X001365Y004387D01*
X000581Y004387D01*
X000447Y004331D01*
X000447Y019685D01*
X019772Y019685D01*
X019772Y012026D01*
X019728Y012071D01*
X019637Y012108D01*
X019637Y012744D01*
X019589Y012862D01*
X019339Y013112D01*
X019248Y013202D01*
X019130Y013251D01*
X019055Y013251D01*
X019055Y013675D01*
X018961Y013769D01*
X018718Y013769D01*
X018507Y013980D01*
X018507Y015015D01*
X018569Y014953D01*
X018748Y014953D01*
X018748Y015412D01*
X018785Y015412D01*
X018785Y015448D01*
X019244Y015448D01*
X019244Y015628D01*
X019147Y015724D01*
X019153Y015726D01*
X019177Y015750D01*
X019390Y015921D01*
X019403Y015926D01*
X019427Y015950D01*
X019454Y015972D01*
X019461Y015984D01*
X019471Y015994D01*
X019484Y016026D01*
X019501Y016056D01*
X019502Y016069D01*
X019507Y016082D01*
X019507Y016117D01*
X019511Y016151D01*
X019507Y016164D01*
X019507Y016643D01*
X019511Y016654D01*
X019507Y016691D01*
X019507Y016728D01*
X019503Y016738D01*
X019502Y016749D01*
X019485Y016782D01*
X019471Y016816D01*
X019463Y016824D01*
X019458Y016834D01*
X019429Y016858D01*
X019403Y016884D01*
X019393Y016888D01*
X019129Y017108D01*
X019110Y017127D01*
X019224Y017240D01*
X019224Y017620D01*
X018956Y017888D01*
X019224Y017615D02*
X019772Y017615D01*
X019772Y017457D02*
X019224Y017457D01*
X019224Y017298D02*
X019772Y017298D01*
X019772Y017140D02*
X019123Y017140D01*
X019281Y016981D02*
X019772Y016981D01*
X019772Y016823D02*
X019465Y016823D01*
X019510Y016664D02*
X019772Y016664D01*
X019772Y016506D02*
X019507Y016506D01*
X019507Y016347D02*
X019772Y016347D01*
X019772Y016189D02*
X019507Y016189D01*
X019486Y016030D02*
X019772Y016030D01*
X019772Y015872D02*
X019329Y015872D01*
X019158Y015713D02*
X019772Y015713D01*
X019772Y015555D02*
X019244Y015555D01*
X019244Y015412D02*
X018785Y015412D01*
X018785Y014953D01*
X018964Y014953D01*
X019244Y015232D01*
X019244Y015412D01*
X019244Y015396D02*
X019772Y015396D01*
X019772Y015238D02*
X019244Y015238D01*
X019090Y015079D02*
X019772Y015079D01*
X019772Y014921D02*
X018507Y014921D01*
X018507Y014762D02*
X019772Y014762D01*
X019772Y014604D02*
X018507Y014604D01*
X018507Y014445D02*
X019772Y014445D01*
X019772Y014287D02*
X018507Y014287D01*
X018507Y014128D02*
X019772Y014128D01*
X019772Y013970D02*
X018518Y013970D01*
X018676Y013811D02*
X019772Y013811D01*
X019772Y013653D02*
X019055Y013653D01*
X019055Y013494D02*
X019772Y013494D01*
X019772Y013336D02*
X019055Y013336D01*
X019273Y013177D02*
X019772Y013177D01*
X019772Y013019D02*
X019432Y013019D01*
X019589Y012860D02*
X019772Y012860D01*
X019772Y012702D02*
X019637Y012702D01*
X019637Y012543D02*
X019772Y012543D01*
X019772Y012385D02*
X019637Y012385D01*
X019637Y012226D02*
X019772Y012226D01*
X019772Y012068D02*
X019731Y012068D01*
X019772Y011334D02*
X019772Y011052D01*
X019718Y011091D01*
X019651Y011125D01*
X019579Y011148D01*
X019504Y011160D01*
X019187Y011160D01*
X019187Y010700D01*
X019147Y010700D01*
X019147Y011160D01*
X018829Y011160D01*
X018754Y011148D01*
X018682Y011125D01*
X018615Y011091D01*
X018607Y011085D01*
X018607Y011289D01*
X018775Y011219D01*
X019558Y011219D01*
X019728Y011289D01*
X019772Y011334D01*
X019772Y011275D02*
X019693Y011275D01*
X019667Y011117D02*
X019772Y011117D01*
X019187Y011117D02*
X019147Y011117D01*
X019147Y010958D02*
X019187Y010958D01*
X019187Y010800D02*
X019147Y010800D01*
X019147Y010660D02*
X019187Y010660D01*
X019187Y010200D01*
X019504Y010200D01*
X019579Y010212D01*
X019651Y010235D01*
X019718Y010269D01*
X019772Y010308D01*
X019772Y010026D01*
X019728Y010071D01*
X019558Y010141D01*
X018775Y010141D01*
X018607Y010071D01*
X018607Y010275D01*
X018615Y010269D01*
X018682Y010235D01*
X018754Y010212D01*
X018829Y010200D01*
X019147Y010200D01*
X019147Y010660D01*
X019147Y010641D02*
X019187Y010641D01*
X019187Y010483D02*
X019147Y010483D01*
X019147Y010324D02*
X019187Y010324D01*
X018607Y010166D02*
X019772Y010166D01*
X018666Y011117D02*
X018607Y011117D01*
X018607Y011275D02*
X018640Y011275D01*
X018367Y012130D02*
X018717Y012430D01*
X018367Y012130D02*
X018367Y006080D01*
X017917Y006080D02*
X017917Y006830D01*
X017867Y007230D01*
X017417Y006930D02*
X017417Y006080D01*
X017467Y005280D02*
X017467Y005080D01*
X017817Y004780D01*
X017817Y004030D01*
X017667Y003880D01*
X017667Y002730D01*
X017328Y002716D02*
X015293Y002716D01*
X015135Y002558D02*
X017328Y002558D01*
X017328Y002485D02*
X017422Y002391D01*
X017826Y002391D01*
X017826Y001982D01*
X017863Y001894D01*
X017930Y001826D01*
X018280Y001476D01*
X018369Y001439D01*
X018468Y001439D01*
X018476Y001419D01*
X018606Y001289D01*
X018775Y001219D01*
X019558Y001219D01*
X019728Y001289D01*
X019772Y001334D01*
X019772Y001026D01*
X019728Y001071D01*
X019558Y001141D01*
X018775Y001141D01*
X018606Y001071D01*
X018476Y000941D01*
X018406Y000772D01*
X018406Y000588D01*
X018476Y000419D01*
X018535Y000360D01*
X013798Y000360D01*
X013857Y000419D01*
X013876Y000465D01*
X013903Y000476D01*
X014203Y000776D01*
X014271Y000844D01*
X014307Y000932D01*
X014307Y001224D01*
X014349Y001194D01*
X014421Y001157D01*
X014497Y001133D01*
X014577Y001120D01*
X014587Y001120D01*
X014587Y001600D01*
X014647Y001600D01*
X014647Y001660D01*
X015127Y001660D01*
X015127Y001670D01*
X015114Y001749D01*
X015089Y001826D01*
X015053Y001897D01*
X015006Y001962D01*
X014949Y002019D01*
X014884Y002066D01*
X014812Y002103D01*
X014736Y002127D01*
X014709Y002132D01*
X015853Y003276D01*
X015921Y003344D01*
X015957Y003432D01*
X015957Y003491D01*
X015961Y003491D01*
X016055Y003585D01*
X016055Y003935D01*
X016067Y003935D01*
X016272Y003935D01*
X016562Y004225D01*
X016562Y004430D01*
X016562Y004635D01*
X016497Y004699D01*
X016515Y004699D01*
X016524Y004699D01*
X016613Y004577D01*
X016591Y004525D01*
X016591Y004335D01*
X016663Y004161D01*
X016797Y004027D01*
X016972Y003954D01*
X017091Y003954D01*
X016991Y003819D01*
X016772Y003819D01*
X016678Y003725D01*
X016678Y003235D01*
X016772Y003141D01*
X017261Y003141D01*
X017355Y003235D01*
X017355Y003569D01*
X017426Y003665D01*
X017426Y003069D01*
X017422Y003069D01*
X017328Y002975D01*
X017328Y002485D01*
X017414Y002399D02*
X014976Y002399D01*
X014818Y002241D02*
X017826Y002241D01*
X017826Y002082D02*
X014853Y002082D01*
X015034Y001924D02*
X017850Y001924D01*
X017991Y001765D02*
X015109Y001765D01*
X015127Y001600D02*
X014647Y001600D01*
X014647Y001120D01*
X014657Y001120D01*
X014736Y001133D01*
X014812Y001157D01*
X014884Y001194D01*
X014949Y001241D01*
X015006Y001298D01*
X015053Y001363D01*
X015089Y001434D01*
X015114Y001511D01*
X015127Y001590D01*
X015127Y001600D01*
X015094Y001448D02*
X018348Y001448D01*
X018417Y001680D02*
X018067Y002030D01*
X018067Y004930D01*
X017917Y005080D01*
X017917Y005280D01*
X018367Y005280D02*
X018367Y003930D01*
X018617Y003680D01*
X019167Y003680D01*
X017426Y003509D02*
X017355Y003509D01*
X017355Y003350D02*
X017426Y003350D01*
X017426Y003192D02*
X017312Y003192D01*
X017386Y003033D02*
X015610Y003033D01*
X015452Y002875D02*
X017328Y002875D01*
X016722Y003192D02*
X015769Y003192D01*
X015923Y003350D02*
X016678Y003350D01*
X016678Y003509D02*
X015979Y003509D01*
X016055Y003667D02*
X016678Y003667D01*
X016996Y003826D02*
X016055Y003826D01*
X016067Y003935D02*
X016067Y004430D01*
X016562Y004430D01*
X016067Y004430D01*
X016067Y004430D01*
X016067Y004430D01*
X016067Y004925D01*
X016236Y004925D01*
X016236Y004926D01*
X016057Y005374D01*
X016050Y005391D01*
X015999Y005340D01*
X015817Y005340D01*
X015817Y005780D01*
X015817Y005780D01*
X015817Y005780D01*
X015817Y006220D01*
X015999Y006220D01*
X016036Y006183D01*
X016036Y007135D01*
X015905Y007135D01*
X015820Y007220D01*
X015800Y007186D01*
X015767Y007152D01*
X015726Y007128D01*
X015680Y007116D01*
X015429Y007116D01*
X015429Y007622D01*
X015294Y007622D01*
X015294Y007116D01*
X015057Y007116D01*
X015057Y006780D01*
X015571Y006266D01*
X015603Y006189D01*
X015634Y006220D01*
X015817Y006220D01*
X015817Y005780D01*
X015817Y005340D01*
X015634Y005340D01*
X015607Y005367D01*
X015607Y004671D01*
X015862Y004925D01*
X016067Y004925D01*
X016067Y004430D01*
X016067Y004430D01*
X016067Y002880D01*
X014867Y001630D01*
X014617Y001630D01*
X014647Y001607D02*
X018150Y001607D01*
X018417Y001680D02*
X019167Y001680D01*
X018606Y001290D02*
X014997Y001290D01*
X014726Y001131D02*
X018752Y001131D01*
X018508Y000973D02*
X014307Y000973D01*
X014307Y001131D02*
X014507Y001131D01*
X014587Y001131D02*
X014647Y001131D01*
X014647Y001290D02*
X014587Y001290D01*
X014587Y001448D02*
X014647Y001448D01*
X014067Y001830D02*
X014067Y000980D01*
X013767Y000680D01*
X013167Y000680D01*
X013924Y000497D02*
X018444Y000497D01*
X018406Y000656D02*
X014083Y000656D01*
X014241Y000814D02*
X018424Y000814D01*
X019582Y001131D02*
X019772Y001131D01*
X019772Y001290D02*
X019728Y001290D01*
X016900Y003984D02*
X016321Y003984D01*
X016479Y004143D02*
X016681Y004143D01*
X016605Y004301D02*
X016562Y004301D01*
X016562Y004460D02*
X016591Y004460D01*
X016583Y004618D02*
X016562Y004618D01*
X016232Y004935D02*
X015607Y004935D01*
X015607Y004777D02*
X015713Y004777D01*
X015607Y005094D02*
X016169Y005094D01*
X016106Y005252D02*
X015607Y005252D01*
X015817Y005411D02*
X015817Y005411D01*
X015817Y005569D02*
X015817Y005569D01*
X015817Y005728D02*
X015817Y005728D01*
X015817Y005886D02*
X015817Y005886D01*
X015817Y006045D02*
X015817Y006045D01*
X015817Y006203D02*
X015817Y006203D01*
X016016Y006203D02*
X016036Y006203D01*
X016036Y006362D02*
X015476Y006362D01*
X015597Y006203D02*
X015617Y006203D01*
X015367Y006130D02*
X014817Y006680D01*
X014817Y008030D01*
X013667Y009180D01*
X012467Y009180D01*
X012217Y009430D01*
X012105Y009769D02*
X012105Y009975D01*
X012011Y010069D01*
X011522Y010069D01*
X011428Y009975D01*
X011428Y009749D01*
X011136Y009487D01*
X011130Y009484D01*
X011101Y009455D01*
X011070Y009427D01*
X011067Y009421D01*
X011063Y009416D01*
X011057Y009404D01*
X011057Y009441D01*
X011061Y009441D01*
X011155Y009535D01*
X011155Y010025D01*
X011098Y010082D01*
X011247Y010231D01*
X011247Y010341D01*
X011611Y010341D01*
X011705Y010435D01*
X011705Y010439D01*
X012468Y010439D01*
X012476Y010419D01*
X012606Y010289D01*
X012775Y010219D01*
X013558Y010219D01*
X013728Y010289D01*
X013857Y010419D01*
X013927Y010588D01*
X013927Y010772D01*
X013878Y010891D01*
X013901Y010891D01*
X014226Y010536D01*
X014226Y009719D01*
X014222Y009719D01*
X014128Y009625D01*
X014128Y009135D01*
X014222Y009041D01*
X014606Y009041D01*
X014606Y008693D01*
X014729Y008569D01*
X016036Y008569D01*
X016036Y008244D01*
X015905Y008244D01*
X015820Y008160D01*
X015800Y008194D01*
X015767Y008228D01*
X015726Y008251D01*
X015680Y008264D01*
X015429Y008264D01*
X015429Y007757D01*
X015294Y007757D01*
X015294Y008264D01*
X015042Y008264D01*
X014996Y008251D01*
X014958Y008229D01*
X013871Y009316D01*
X013813Y009374D01*
X013857Y009419D01*
X013927Y009588D01*
X013927Y009772D01*
X013857Y009941D01*
X013728Y010071D01*
X013558Y010141D01*
X012775Y010141D01*
X012606Y010071D01*
X012476Y009941D01*
X012406Y009772D01*
X012406Y009769D01*
X012105Y009769D01*
X012105Y009849D02*
X012438Y009849D01*
X012542Y010007D02*
X012073Y010007D01*
X011767Y009730D02*
X011267Y009280D01*
X011267Y008580D01*
X010817Y008680D02*
X010817Y009780D01*
X011155Y009849D02*
X011428Y009849D01*
X011460Y010007D02*
X011155Y010007D01*
X011181Y010166D02*
X014226Y010166D01*
X014226Y010324D02*
X013762Y010324D01*
X013717Y010180D02*
X011017Y010180D01*
X010767Y010430D01*
X010747Y010450D02*
X010747Y010410D01*
X010287Y010410D01*
X010287Y010231D01*
X010486Y010032D01*
X010478Y010025D01*
X010478Y009535D01*
X010572Y009441D01*
X010576Y009441D01*
X010576Y009019D01*
X010572Y009019D01*
X010478Y008925D01*
X010478Y008467D01*
X010301Y008469D01*
X010157Y008699D01*
X010157Y009341D01*
X010161Y009341D01*
X010255Y009435D01*
X010255Y009925D01*
X010161Y010019D01*
X010007Y010019D01*
X010227Y010239D01*
X010227Y010621D01*
X010159Y010689D01*
X010347Y010689D01*
X010287Y010629D01*
X010287Y010450D01*
X010747Y010450D01*
X010287Y010483D02*
X010227Y010483D01*
X010227Y010324D02*
X010287Y010324D01*
X010352Y010166D02*
X010154Y010166D01*
X010173Y010007D02*
X010478Y010007D01*
X010478Y009849D02*
X010255Y009849D01*
X010255Y009690D02*
X010478Y009690D01*
X010482Y009532D02*
X010255Y009532D01*
X010193Y009373D02*
X010576Y009373D01*
X010576Y009215D02*
X010157Y009215D01*
X010157Y009056D02*
X010576Y009056D01*
X010478Y008898D02*
X010157Y008898D01*
X010157Y008739D02*
X010478Y008739D01*
X010478Y008581D02*
X010231Y008581D01*
X009917Y008630D02*
X009917Y009680D01*
X010207Y010641D02*
X010299Y010641D01*
X010967Y010930D02*
X007517Y010930D01*
X007267Y011180D01*
X007267Y015680D01*
X007567Y016030D01*
X009467Y016030D01*
X009767Y015730D01*
X009767Y015430D01*
X010107Y015713D02*
X010426Y015713D01*
X010326Y015555D02*
X010207Y015555D01*
X010207Y015396D02*
X010326Y015396D01*
X010336Y015238D02*
X010197Y015238D01*
X010039Y015079D02*
X010494Y015079D01*
X010267Y014880D02*
X010267Y017030D01*
X010417Y017180D01*
X010803Y016664D02*
X000447Y016664D01*
X000447Y016506D02*
X003259Y016506D01*
X003228Y016347D02*
X003201Y016347D01*
X003567Y016230D02*
X005267Y014880D01*
X005267Y014680D01*
X005517Y014380D01*
X006567Y013180D01*
X006567Y009080D01*
X007967Y007680D01*
X011317Y007680D01*
X011767Y007180D01*
X012267Y007180D01*
X012617Y007680D01*
X013167Y007680D01*
X014117Y007630D02*
X014117Y007380D01*
X013417Y006680D01*
X013167Y006680D01*
X013717Y006180D02*
X012567Y006180D01*
X012167Y006580D01*
X011717Y006580D01*
X011267Y007080D01*
X012117Y006080D02*
X008667Y006080D01*
X006217Y008530D01*
X006217Y012980D01*
X004867Y014480D01*
X004528Y014445D02*
X000447Y014445D01*
X000447Y014287D02*
X001795Y014287D01*
X001729Y014221D02*
X001651Y014032D01*
X001651Y013828D01*
X001729Y013639D01*
X001873Y013495D01*
X002062Y013417D01*
X002971Y013417D01*
X003160Y013495D01*
X003304Y013639D01*
X003382Y013828D01*
X003382Y014032D01*
X003304Y014221D01*
X003160Y014365D01*
X002971Y014443D01*
X002062Y014443D01*
X001873Y014365D01*
X001729Y014221D01*
X001691Y014128D02*
X000447Y014128D01*
X000447Y013970D02*
X001651Y013970D01*
X001658Y013811D02*
X000447Y013811D01*
X000447Y013653D02*
X001724Y013653D01*
X001876Y013494D02*
X000447Y013494D01*
X000447Y013336D02*
X005573Y013336D01*
X005430Y013494D02*
X003158Y013494D01*
X003310Y013653D02*
X005288Y013653D01*
X005145Y013811D02*
X003375Y013811D01*
X003382Y013970D02*
X005002Y013970D01*
X004860Y014128D02*
X003343Y014128D01*
X003238Y014287D02*
X004528Y014287D01*
X004528Y014604D02*
X000447Y014604D01*
X000447Y014762D02*
X004565Y014762D01*
X004829Y014921D02*
X000447Y014921D01*
X000447Y015079D02*
X004629Y015079D01*
X004429Y015238D02*
X000447Y015238D01*
X000447Y015396D02*
X004230Y015396D01*
X004030Y015555D02*
X003247Y015555D01*
X003356Y015713D02*
X003831Y015713D01*
X003631Y015872D02*
X003399Y015872D01*
X004006Y016189D02*
X007385Y016189D01*
X007250Y016030D02*
X004206Y016030D01*
X004405Y015872D02*
X007114Y015872D01*
X006767Y015430D02*
X006467Y015430D01*
X006067Y015030D01*
X006067Y014330D01*
X006667Y013680D01*
X006967Y013330D01*
X006967Y009930D01*
X007617Y009280D01*
X007617Y009230D01*
X006460Y007947D02*
X004837Y007947D01*
X004836Y008105D02*
X006301Y008105D01*
X006143Y008264D02*
X004836Y008264D01*
X004836Y008422D02*
X006001Y008422D01*
X005976Y008581D02*
X004835Y008581D01*
X004835Y008739D02*
X005976Y008739D01*
X005976Y008898D02*
X004835Y008898D01*
X004834Y009056D02*
X005976Y009056D01*
X005976Y009215D02*
X004834Y009215D01*
X004834Y009373D02*
X005976Y009373D01*
X005976Y009532D02*
X004833Y009532D01*
X004833Y009690D02*
X005976Y009690D01*
X005976Y009849D02*
X004833Y009849D01*
X004832Y010007D02*
X005976Y010007D01*
X005976Y010166D02*
X004832Y010166D01*
X004832Y010324D02*
X005976Y010324D01*
X005976Y010483D02*
X004831Y010483D01*
X004831Y010641D02*
X005976Y010641D01*
X005976Y011117D02*
X004830Y011117D01*
X004767Y011275D02*
X005976Y011275D01*
X005976Y011434D02*
X004610Y011434D01*
X004444Y011592D02*
X005976Y011592D01*
X005976Y011751D02*
X004278Y011751D01*
X004112Y011909D02*
X005976Y011909D01*
X005976Y012068D02*
X003897Y012068D01*
X003666Y011117D02*
X000447Y011117D01*
X000447Y011275D02*
X001843Y011275D01*
X001711Y011434D02*
X000447Y011434D01*
X000447Y011592D02*
X001651Y011592D01*
X001651Y011751D02*
X000447Y011751D01*
X000447Y011909D02*
X001704Y011909D01*
X001826Y012068D02*
X000447Y012068D01*
X000447Y012226D02*
X005976Y012226D01*
X005976Y012385D02*
X000447Y012385D01*
X000447Y012543D02*
X005976Y012543D01*
X005976Y012702D02*
X000447Y012702D01*
X000447Y012860D02*
X005976Y012860D01*
X005858Y013019D02*
X000447Y013019D01*
X000447Y013177D02*
X005716Y013177D01*
X005780Y014445D02*
X005826Y014445D01*
X005826Y014604D02*
X005644Y014604D01*
X005512Y014762D02*
X005826Y014762D01*
X005826Y014921D02*
X005507Y014921D01*
X005408Y015079D02*
X005826Y015079D01*
X005934Y015238D02*
X005204Y015238D01*
X005004Y015396D02*
X006092Y015396D01*
X006251Y015555D02*
X004804Y015555D01*
X004605Y015713D02*
X006426Y015713D01*
X007767Y015430D02*
X008267Y014880D01*
X008267Y014030D01*
X008667Y013680D01*
X009217Y013680D01*
X009617Y013230D01*
X009617Y012030D01*
X010067Y012030D02*
X010067Y013380D01*
X009767Y013730D01*
X009767Y014430D01*
X010058Y014762D02*
X010448Y014762D01*
X010339Y014604D02*
X010207Y014604D01*
X010207Y014445D02*
X010307Y014445D01*
X010717Y014430D02*
X010267Y014880D01*
X010717Y014430D02*
X010767Y014430D01*
X010757Y014445D02*
X010777Y014445D01*
X010777Y014287D02*
X010757Y014287D01*
X010757Y014128D02*
X010777Y014128D01*
X010618Y013970D02*
X011176Y013970D01*
X011176Y014128D02*
X011115Y014128D01*
X011176Y013811D02*
X010776Y013811D01*
X010935Y013653D02*
X011176Y013653D01*
X011176Y013494D02*
X011093Y013494D01*
X011417Y013380D02*
X011767Y013030D01*
X015967Y013030D01*
X016317Y012680D01*
X016317Y012380D01*
X016117Y012180D01*
X016117Y011930D01*
X016267Y011780D01*
X016267Y010170D01*
X016036Y008422D02*
X014765Y008422D01*
X014907Y008340D02*
X013967Y009280D01*
X013967Y009980D01*
X013717Y010180D01*
X013791Y010007D02*
X014226Y010007D01*
X014226Y009849D02*
X013896Y009849D01*
X013927Y009690D02*
X014193Y009690D01*
X014128Y009532D02*
X013904Y009532D01*
X013814Y009373D02*
X014128Y009373D01*
X014128Y009215D02*
X013973Y009215D01*
X014131Y009056D02*
X014207Y009056D01*
X014290Y008898D02*
X014606Y008898D01*
X014606Y008739D02*
X014448Y008739D01*
X014607Y008581D02*
X014718Y008581D01*
X014907Y008340D02*
X015357Y007990D01*
X015361Y007690D01*
X015294Y007788D02*
X015429Y007788D01*
X015429Y007947D02*
X015294Y007947D01*
X015294Y008105D02*
X015429Y008105D01*
X015429Y008264D02*
X015294Y008264D01*
X015042Y008264D02*
X014924Y008264D01*
X014517Y007880D02*
X014217Y008180D01*
X010167Y008230D01*
X009917Y008630D01*
X011152Y009532D02*
X011186Y009532D01*
X011155Y009690D02*
X011362Y009690D01*
X011247Y010324D02*
X012571Y010324D01*
X013167Y010680D02*
X011367Y010680D01*
X010967Y010930D02*
X011167Y011130D01*
X012367Y011130D01*
X011517Y012030D02*
X011767Y012280D01*
X015767Y012280D01*
X015867Y012180D01*
X016117Y012180D01*
X015992Y012055D01*
X016117Y011930D01*
X015992Y012055D02*
X015867Y012180D01*
X015367Y012680D02*
X011567Y012680D01*
X010267Y013980D01*
X009526Y013970D02*
X008701Y013970D01*
X009088Y014128D02*
X009445Y014128D01*
X009326Y014287D02*
X009207Y014287D01*
X009207Y014445D02*
X009326Y014445D01*
X009326Y014604D02*
X009207Y014604D01*
X009058Y014762D02*
X009475Y014762D01*
X009494Y015079D02*
X009039Y015079D01*
X009197Y015238D02*
X009336Y015238D01*
X009326Y015396D02*
X009207Y015396D01*
X009207Y015555D02*
X009326Y015555D01*
X009426Y015713D02*
X009107Y015713D01*
X009649Y016189D02*
X010378Y016189D01*
X010378Y016347D02*
X003905Y016347D01*
X003875Y016506D02*
X010378Y016506D01*
X010717Y016280D02*
X010867Y016430D01*
X017767Y016430D01*
X017817Y016430D01*
X018317Y016930D01*
X018967Y016930D01*
X019267Y016680D01*
X019267Y016130D01*
X019017Y015930D01*
X018617Y015930D01*
X018267Y015580D01*
X018267Y013880D01*
X018717Y013430D01*
X018748Y015079D02*
X018785Y015079D01*
X018785Y015238D02*
X018748Y015238D01*
X018748Y015396D02*
X018785Y015396D01*
X018267Y015930D02*
X011367Y015930D01*
X011028Y015872D02*
X009966Y015872D01*
X009807Y016030D02*
X010383Y016030D01*
X010767Y015430D02*
X011217Y015430D01*
X011417Y015230D01*
X011417Y013380D01*
X011517Y012030D02*
X010667Y012030D01*
X010067Y011430D01*
X009767Y011430D01*
X009617Y011430D01*
X009067Y011980D01*
X008317Y011980D01*
X007767Y011430D01*
X008367Y012630D02*
X007767Y013930D01*
X007767Y014430D01*
X008411Y015079D02*
X008494Y015079D01*
X008508Y014921D02*
X011176Y014921D01*
X011176Y015079D02*
X011039Y015079D01*
X011085Y014762D02*
X011176Y014762D01*
X010777Y014762D02*
X010757Y014762D01*
X010757Y014604D02*
X010777Y014604D01*
X009526Y013811D02*
X009423Y013811D01*
X008336Y015238D02*
X008267Y015238D01*
X008326Y015396D02*
X008207Y015396D01*
X008207Y015555D02*
X008326Y015555D01*
X008426Y015713D02*
X008107Y015713D01*
X006692Y017406D02*
X006726Y017440D01*
X006749Y017481D01*
X006762Y017526D01*
X006762Y017758D01*
X006315Y017758D01*
X006315Y017854D01*
X006762Y017854D01*
X006762Y018086D01*
X006749Y018131D01*
X006726Y018172D01*
X006704Y018194D01*
X006742Y018232D01*
X006742Y018273D01*
X007306Y018273D01*
X007306Y018038D01*
X007376Y017869D01*
X007506Y017739D01*
X007675Y017669D01*
X007858Y017669D01*
X008028Y017739D01*
X008157Y017869D01*
X008227Y018038D01*
X008227Y018822D01*
X008157Y018991D01*
X008028Y019121D01*
X007858Y019191D01*
X007675Y019191D01*
X007506Y019121D01*
X007376Y018991D01*
X007311Y018835D01*
X006742Y018835D01*
X006742Y018876D01*
X006648Y018971D01*
X005885Y018971D01*
X005791Y018876D01*
X005791Y018232D01*
X005829Y018194D01*
X005808Y018172D01*
X005784Y018131D01*
X005772Y018086D01*
X005772Y017854D01*
X006219Y017854D01*
X006219Y017758D01*
X006315Y017758D01*
X006315Y017370D01*
X006605Y017370D01*
X006651Y017382D01*
X006692Y017406D01*
X006735Y017457D02*
X011298Y017457D01*
X011308Y017440D02*
X011341Y017406D01*
X011382Y017382D01*
X011428Y017370D01*
X011719Y017370D01*
X011719Y017758D01*
X011815Y017758D01*
X011815Y017854D01*
X012262Y017854D01*
X012262Y018086D01*
X012249Y018131D01*
X012226Y018172D01*
X012204Y018194D01*
X012242Y018232D01*
X012242Y018273D01*
X012806Y018273D01*
X012806Y018038D01*
X012876Y017869D01*
X013006Y017739D01*
X013175Y017669D01*
X013358Y017669D01*
X013528Y017739D01*
X013657Y017869D01*
X013727Y018038D01*
X013727Y018822D01*
X013657Y018991D01*
X013528Y019121D01*
X013358Y019191D01*
X013175Y019191D01*
X013006Y019121D01*
X012876Y018991D01*
X012811Y018835D01*
X012242Y018835D01*
X012242Y018876D01*
X012148Y018971D01*
X011385Y018971D01*
X011291Y018876D01*
X011291Y018232D01*
X011329Y018194D01*
X011308Y018172D01*
X011284Y018131D01*
X011272Y018086D01*
X011272Y017854D01*
X011719Y017854D01*
X011719Y017758D01*
X011272Y017758D01*
X011272Y017526D01*
X011284Y017481D01*
X011308Y017440D01*
X011272Y017615D02*
X006762Y017615D01*
X006762Y017932D02*
X007350Y017932D01*
X007306Y018091D02*
X006760Y018091D01*
X006742Y018249D02*
X007306Y018249D01*
X007472Y017774D02*
X006315Y017774D01*
X006267Y017806D02*
X006267Y017180D01*
X006219Y017370D02*
X005928Y017370D01*
X005882Y017382D01*
X005841Y017406D01*
X005808Y017440D01*
X005784Y017481D01*
X005772Y017526D01*
X005772Y017758D01*
X006219Y017758D01*
X006219Y017370D01*
X006219Y017457D02*
X006315Y017457D01*
X006315Y017615D02*
X006219Y017615D01*
X006219Y017774D02*
X004839Y017774D01*
X004829Y017764D02*
X004883Y017817D01*
X004927Y017878D01*
X004961Y017946D01*
X004985Y018018D01*
X004997Y018092D01*
X004997Y018410D01*
X004537Y018410D01*
X004537Y018450D01*
X004997Y018450D01*
X004997Y018768D01*
X004985Y018842D01*
X004961Y018914D01*
X004927Y018982D01*
X004883Y019043D01*
X004829Y019096D01*
X004768Y019141D01*
X004701Y019175D01*
X004629Y019198D01*
X004554Y019210D01*
X004537Y019210D01*
X004537Y018450D01*
X004497Y018450D01*
X004497Y019210D01*
X004479Y019210D01*
X004404Y019198D01*
X004332Y019175D01*
X004265Y019141D01*
X004204Y019096D01*
X004151Y019043D01*
X004106Y018982D01*
X004072Y018914D01*
X004048Y018842D01*
X004037Y018768D01*
X004037Y018450D01*
X004497Y018450D01*
X004497Y018410D01*
X004537Y018410D01*
X004537Y017650D01*
X004554Y017650D01*
X004629Y017662D01*
X004701Y017685D01*
X004768Y017719D01*
X004829Y017764D01*
X004955Y017932D02*
X005772Y017932D01*
X005773Y018091D02*
X004996Y018091D01*
X004997Y018249D02*
X005791Y018249D01*
X005791Y018408D02*
X004997Y018408D01*
X004997Y018566D02*
X005791Y018566D01*
X005791Y018725D02*
X004997Y018725D01*
X004972Y018883D02*
X005798Y018883D01*
X004884Y019042D02*
X007427Y019042D01*
X007331Y018883D02*
X006736Y018883D01*
X005772Y017615D02*
X001762Y017615D01*
X001762Y017526D02*
X001762Y017758D01*
X001315Y017758D01*
X001315Y017854D01*
X001762Y017854D01*
X001762Y018086D01*
X001749Y018131D01*
X001726Y018172D01*
X001704Y018194D01*
X001742Y018232D01*
X001742Y018273D01*
X002056Y018273D01*
X002056Y018038D01*
X002126Y017869D01*
X002256Y017739D01*
X002425Y017669D01*
X002608Y017669D01*
X002778Y017739D01*
X002907Y017869D01*
X002977Y018038D01*
X002977Y018822D01*
X002907Y018991D01*
X002778Y019121D01*
X002608Y019191D01*
X002425Y019191D01*
X002256Y019121D01*
X002126Y018991D01*
X002061Y018835D01*
X001742Y018835D01*
X001742Y018876D01*
X001648Y018971D01*
X000885Y018971D01*
X000791Y018876D01*
X000791Y018232D01*
X000829Y018194D01*
X000808Y018172D01*
X000784Y018131D01*
X000772Y018086D01*
X000772Y017854D01*
X001219Y017854D01*
X001219Y017758D01*
X001315Y017758D01*
X001315Y017370D01*
X001605Y017370D01*
X001651Y017382D01*
X001692Y017406D01*
X001726Y017440D01*
X001749Y017481D01*
X001762Y017526D01*
X001735Y017457D02*
X005798Y017457D01*
X004537Y017774D02*
X004497Y017774D01*
X004497Y017650D02*
X004497Y018410D01*
X004037Y018410D01*
X004037Y018092D01*
X004048Y018018D01*
X004072Y017946D01*
X004106Y017878D01*
X004151Y017817D01*
X004204Y017764D01*
X004265Y017719D01*
X004332Y017685D01*
X004404Y017662D01*
X004479Y017650D01*
X004497Y017650D01*
X004497Y017932D02*
X004537Y017932D01*
X004537Y018091D02*
X004497Y018091D01*
X004497Y018249D02*
X004537Y018249D01*
X004537Y018408D02*
X004497Y018408D01*
X004497Y018566D02*
X004537Y018566D01*
X004537Y018725D02*
X004497Y018725D01*
X004497Y018883D02*
X004537Y018883D01*
X004537Y019042D02*
X004497Y019042D01*
X004497Y019200D02*
X004537Y019200D01*
X004617Y019200D02*
X009666Y019200D01*
X009654Y019198D02*
X009582Y019175D01*
X009515Y019141D01*
X009454Y019096D01*
X009401Y019043D01*
X009356Y018982D01*
X009322Y018914D01*
X009298Y018842D01*
X009287Y018768D01*
X009287Y018450D01*
X009747Y018450D01*
X009747Y019210D01*
X009729Y019210D01*
X009654Y019198D01*
X009747Y019200D02*
X009787Y019200D01*
X009787Y019210D02*
X009787Y018450D01*
X010247Y018450D01*
X010247Y018768D01*
X010235Y018842D01*
X010211Y018914D01*
X010177Y018982D01*
X010133Y019043D01*
X010079Y019096D01*
X010018Y019141D01*
X009951Y019175D01*
X009879Y019198D01*
X009804Y019210D01*
X009787Y019210D01*
X009867Y019200D02*
X015166Y019200D01*
X014900Y019042D02*
X014607Y019042D01*
X014657Y018991D02*
X014528Y019121D01*
X014358Y019191D01*
X014175Y019191D01*
X014006Y019121D01*
X013876Y018991D01*
X013806Y018822D01*
X013806Y018038D01*
X013876Y017869D01*
X014006Y017739D01*
X014175Y017669D01*
X014358Y017669D01*
X014528Y017739D01*
X014657Y017869D01*
X014727Y018038D01*
X014727Y018822D01*
X014657Y018991D01*
X014702Y018883D02*
X014812Y018883D01*
X014787Y018725D02*
X014727Y018725D01*
X014727Y018566D02*
X014787Y018566D01*
X014787Y018408D02*
X014727Y018408D01*
X014727Y018249D02*
X014787Y018249D01*
X014787Y018091D02*
X014727Y018091D01*
X014683Y017932D02*
X014829Y017932D01*
X014944Y017774D02*
X014562Y017774D01*
X013972Y017774D02*
X013562Y017774D01*
X013683Y017932D02*
X013850Y017932D01*
X013806Y018091D02*
X013727Y018091D01*
X013727Y018249D02*
X013806Y018249D01*
X013806Y018408D02*
X013727Y018408D01*
X013727Y018566D02*
X013806Y018566D01*
X013806Y018725D02*
X013727Y018725D01*
X013702Y018883D02*
X013831Y018883D01*
X013927Y019042D02*
X013607Y019042D01*
X012927Y019042D02*
X010134Y019042D01*
X010222Y018883D02*
X011298Y018883D01*
X011291Y018725D02*
X010247Y018725D01*
X010247Y018566D02*
X011291Y018566D01*
X011291Y018408D02*
X010247Y018408D01*
X010247Y018410D02*
X010247Y018092D01*
X010235Y018018D01*
X010211Y017946D01*
X010177Y017878D01*
X010133Y017817D01*
X010079Y017764D01*
X010018Y017719D01*
X009951Y017685D01*
X009879Y017662D01*
X009804Y017650D01*
X009787Y017650D01*
X009787Y018410D01*
X009787Y018450D01*
X009747Y018450D01*
X009747Y018410D01*
X009787Y018410D01*
X010247Y018410D01*
X010247Y018249D02*
X011291Y018249D01*
X011273Y018091D02*
X010246Y018091D01*
X010205Y017932D02*
X011272Y017932D01*
X011719Y017774D02*
X010089Y017774D01*
X009787Y017774D02*
X009747Y017774D01*
X009747Y017650D02*
X009747Y018410D01*
X009287Y018410D01*
X009287Y018092D01*
X009298Y018018D01*
X009322Y017946D01*
X009356Y017878D01*
X009401Y017817D01*
X009454Y017764D01*
X009515Y017719D01*
X009582Y017685D01*
X009654Y017662D01*
X009729Y017650D01*
X009747Y017650D01*
X009747Y017932D02*
X009787Y017932D01*
X009787Y018091D02*
X009747Y018091D01*
X009747Y018249D02*
X009787Y018249D01*
X009787Y018408D02*
X009747Y018408D01*
X009747Y018566D02*
X009787Y018566D01*
X009787Y018725D02*
X009747Y018725D01*
X009747Y018883D02*
X009787Y018883D01*
X009787Y019042D02*
X009747Y019042D01*
X009400Y019042D02*
X009107Y019042D01*
X009157Y018991D02*
X009028Y019121D01*
X008858Y019191D01*
X008675Y019191D01*
X008506Y019121D01*
X008376Y018991D01*
X008306Y018822D01*
X008306Y018038D01*
X008376Y017869D01*
X008506Y017739D01*
X008675Y017669D01*
X008858Y017669D01*
X009028Y017739D01*
X009157Y017869D01*
X009227Y018038D01*
X009227Y018822D01*
X009157Y018991D01*
X009202Y018883D02*
X009312Y018883D01*
X009287Y018725D02*
X009227Y018725D01*
X009227Y018566D02*
X009287Y018566D01*
X009287Y018408D02*
X009227Y018408D01*
X009227Y018249D02*
X009287Y018249D01*
X009287Y018091D02*
X009227Y018091D01*
X009183Y017932D02*
X009329Y017932D01*
X009444Y017774D02*
X009062Y017774D01*
X008472Y017774D02*
X008062Y017774D01*
X008183Y017932D02*
X008350Y017932D01*
X008306Y018091D02*
X008227Y018091D01*
X008227Y018249D02*
X008306Y018249D01*
X008306Y018408D02*
X008227Y018408D01*
X008227Y018566D02*
X008306Y018566D01*
X008306Y018725D02*
X008227Y018725D01*
X008202Y018883D02*
X008331Y018883D01*
X008427Y019042D02*
X008107Y019042D01*
X011767Y017806D02*
X011767Y017230D01*
X011717Y017180D01*
X011815Y017370D02*
X012105Y017370D01*
X012151Y017382D01*
X012192Y017406D01*
X012226Y017440D01*
X012249Y017481D01*
X012262Y017526D01*
X012262Y017758D01*
X011815Y017758D01*
X011815Y017370D01*
X011815Y017457D02*
X011719Y017457D01*
X011719Y017615D02*
X011815Y017615D01*
X011815Y017774D02*
X012972Y017774D01*
X012850Y017932D02*
X012262Y017932D01*
X012260Y018091D02*
X012806Y018091D01*
X012806Y018249D02*
X012242Y018249D01*
X012236Y018883D02*
X012831Y018883D01*
X012262Y017615D02*
X017309Y017615D01*
X017309Y017620D02*
X017309Y017240D01*
X017577Y016972D01*
X017956Y016972D01*
X018224Y017240D01*
X018224Y017620D01*
X017956Y017888D01*
X017577Y017888D01*
X017309Y017620D01*
X017309Y017457D02*
X012235Y017457D01*
X012167Y015380D02*
X013467Y015380D01*
X013867Y015030D01*
X013867Y013380D01*
X014367Y013380D02*
X014367Y014880D01*
X014417Y014880D01*
X015017Y015430D02*
X015017Y013280D01*
X015067Y013380D01*
X013917Y011230D02*
X014467Y010630D01*
X014467Y009380D01*
X014226Y010483D02*
X013884Y010483D01*
X013927Y010641D02*
X014130Y010641D01*
X013985Y010800D02*
X013916Y010800D01*
X015680Y008264D02*
X016036Y008264D01*
X015429Y007471D02*
X015294Y007471D01*
X015294Y007313D02*
X015429Y007313D01*
X015429Y007154D02*
X015294Y007154D01*
X015057Y006996D02*
X016036Y006996D01*
X016036Y006837D02*
X015057Y006837D01*
X015159Y006679D02*
X016036Y006679D01*
X016036Y006520D02*
X015317Y006520D01*
X015367Y006130D02*
X015367Y003880D01*
X013167Y001680D01*
X014067Y001830D02*
X015717Y003480D01*
X015717Y003830D01*
X016067Y003935D02*
X016067Y004430D01*
X016067Y004460D02*
X016067Y004460D01*
X016067Y004618D02*
X016067Y004618D01*
X016067Y004777D02*
X016067Y004777D01*
X016067Y004301D02*
X016067Y004301D01*
X016067Y004143D02*
X016067Y004143D01*
X016067Y003984D02*
X016067Y003984D01*
X015017Y004080D02*
X015017Y004980D01*
X015117Y005180D01*
X015117Y005880D01*
X014517Y006430D01*
X014517Y007880D01*
X015769Y007154D02*
X015886Y007154D01*
X014317Y004830D02*
X014317Y003830D01*
X014167Y003680D01*
X013167Y003680D01*
X013167Y004680D02*
X012817Y004680D01*
X012017Y005330D01*
X007617Y005330D01*
X007417Y005580D01*
X007167Y006080D02*
X007717Y006080D01*
X008017Y005780D01*
X011967Y005780D01*
X012667Y005180D01*
X012517Y005680D02*
X012117Y006080D01*
X012517Y005680D02*
X013167Y005680D01*
X015017Y004080D02*
X013617Y002680D01*
X013167Y002680D01*
X007167Y006080D02*
X006717Y005430D01*
X005267Y005430D01*
X004867Y004980D01*
X004867Y003480D01*
X004330Y002943D01*
X003703Y002943D01*
X003312Y002482D02*
X004095Y002482D01*
X004264Y002552D01*
X004394Y002682D01*
X004407Y002715D01*
X004466Y002739D01*
X004981Y003254D01*
X004981Y000360D01*
X000447Y000360D01*
X000447Y000521D01*
X000581Y000466D01*
X001365Y000466D01*
X001534Y000536D01*
X001663Y000665D01*
X001734Y000835D01*
X001734Y001018D01*
X001663Y001187D01*
X001534Y001317D01*
X001365Y001387D01*
X000581Y001387D01*
X000447Y001331D01*
X000447Y001521D01*
X000581Y001466D01*
X001365Y001466D01*
X001386Y001475D01*
X001461Y001473D01*
X001512Y001463D01*
X001548Y001471D01*
X001584Y001470D01*
X001633Y001488D01*
X001684Y001499D01*
X001714Y001520D01*
X001747Y001532D01*
X001785Y001569D01*
X002918Y002344D01*
X002957Y002359D01*
X002990Y002393D01*
X003028Y002419D01*
X003051Y002454D01*
X003081Y002483D01*
X003099Y002527D01*
X003124Y002566D01*
X003125Y002570D01*
X003142Y002552D01*
X003312Y002482D01*
X003312Y002404D02*
X003142Y002334D01*
X003013Y002204D01*
X002943Y002035D01*
X002943Y001851D01*
X003013Y001682D01*
X003142Y001552D01*
X003312Y001482D01*
X004095Y001482D01*
X004264Y001552D01*
X004394Y001682D01*
X004464Y001851D01*
X004464Y002035D01*
X004394Y002204D01*
X004264Y002334D01*
X004095Y002404D01*
X003312Y002404D01*
X003300Y002399D02*
X002999Y002399D01*
X003049Y002241D02*
X002767Y002241D01*
X002962Y002082D02*
X002536Y002082D01*
X002304Y001924D02*
X002943Y001924D01*
X002978Y001765D02*
X002072Y001765D01*
X001841Y001607D02*
X003088Y001607D01*
X003219Y001388D02*
X003291Y001411D01*
X003366Y001423D01*
X003683Y001423D01*
X003683Y000963D01*
X003683Y000923D01*
X002923Y000923D01*
X002923Y000905D01*
X002935Y000831D01*
X002958Y000759D01*
X002993Y000691D01*
X003037Y000630D01*
X003091Y000577D01*
X003152Y000533D01*
X003219Y000498D01*
X003291Y000475D01*
X003366Y000463D01*
X003683Y000463D01*
X003683Y000923D01*
X003723Y000923D01*
X003723Y000463D01*
X004041Y000463D01*
X004116Y000475D01*
X004188Y000498D01*
X004255Y000533D01*
X004316Y000577D01*
X004369Y000630D01*
X004414Y000691D01*
X004448Y000759D01*
X004471Y000831D01*
X004483Y000905D01*
X004483Y000923D01*
X003723Y000923D01*
X003723Y000963D01*
X003683Y000963D01*
X002923Y000963D01*
X002923Y000981D01*
X002935Y001055D01*
X002958Y001127D01*
X002993Y001195D01*
X003037Y001256D01*
X003091Y001309D01*
X003152Y001354D01*
X003219Y001388D01*
X003071Y001290D02*
X001561Y001290D01*
X001687Y001131D02*
X002960Y001131D01*
X002923Y000973D02*
X001734Y000973D01*
X001725Y000814D02*
X002941Y000814D01*
X003019Y000656D02*
X001653Y000656D01*
X001440Y000497D02*
X003223Y000497D01*
X003683Y000497D02*
X003723Y000497D01*
X003723Y000656D02*
X003683Y000656D01*
X003683Y000814D02*
X003723Y000814D01*
X003723Y000963D02*
X004483Y000963D01*
X004483Y000981D01*
X004471Y001055D01*
X004448Y001127D01*
X004414Y001195D01*
X004369Y001256D01*
X004316Y001309D01*
X004255Y001354D01*
X004188Y001388D01*
X004116Y001411D01*
X004041Y001423D01*
X003723Y001423D01*
X003723Y000963D01*
X003723Y000973D02*
X003683Y000973D01*
X003683Y001131D02*
X003723Y001131D01*
X003723Y001290D02*
X003683Y001290D01*
X004336Y001290D02*
X004981Y001290D01*
X004981Y001448D02*
X000447Y001448D01*
X000447Y000497D02*
X000506Y000497D01*
X003119Y002558D02*
X003137Y002558D01*
X004106Y002399D02*
X004981Y002399D01*
X004981Y002241D02*
X004357Y002241D01*
X004444Y002082D02*
X004981Y002082D01*
X004981Y001924D02*
X004464Y001924D01*
X004428Y001765D02*
X004981Y001765D01*
X004981Y001607D02*
X004318Y001607D01*
X004446Y001131D02*
X004981Y001131D01*
X004981Y000973D02*
X004483Y000973D01*
X004466Y000814D02*
X004981Y000814D01*
X004981Y000656D02*
X004388Y000656D01*
X004184Y000497D02*
X004981Y000497D01*
X004981Y002558D02*
X004269Y002558D01*
X004411Y002716D02*
X004981Y002716D01*
X004981Y002875D02*
X004602Y002875D01*
X004760Y003033D02*
X004981Y003033D01*
X004981Y003192D02*
X004919Y003192D01*
X003237Y006045D02*
X003230Y006045D01*
X003235Y006203D02*
X001621Y006203D01*
X001621Y006045D02*
X001803Y006045D01*
X001694Y005886D02*
X001621Y005886D01*
X001621Y005728D02*
X001651Y005728D01*
X001655Y005569D02*
X001621Y005569D01*
X000936Y004935D02*
X000447Y004935D01*
X000447Y004777D02*
X001144Y004777D01*
X001343Y004618D02*
X000447Y004618D01*
X000447Y004460D02*
X001543Y004460D01*
X001550Y004301D02*
X001588Y004301D01*
X000793Y005094D02*
X000447Y005094D01*
X000447Y005252D02*
X000739Y005252D01*
X000739Y005411D02*
X000447Y005411D01*
X000447Y005569D02*
X000739Y005569D01*
X000739Y005728D02*
X000447Y005728D01*
X000447Y005886D02*
X000739Y005886D01*
X000739Y006045D02*
X000447Y006045D01*
X000447Y006203D02*
X000739Y006203D01*
X000739Y006362D02*
X000447Y006362D01*
X000447Y006520D02*
X000739Y006520D01*
X000739Y006679D02*
X000447Y006679D01*
X000447Y006837D02*
X000739Y006837D01*
X000739Y006996D02*
X000447Y006996D01*
X000447Y007154D02*
X000739Y007154D01*
X000739Y007313D02*
X000447Y007313D01*
X000447Y007471D02*
X000739Y007471D01*
X000739Y007630D02*
X000447Y007630D01*
X000447Y007788D02*
X000739Y007788D01*
X000739Y007947D02*
X000447Y007947D01*
X000447Y008105D02*
X000739Y008105D01*
X000739Y008264D02*
X000447Y008264D01*
X000447Y008422D02*
X000739Y008422D01*
X000739Y008581D02*
X000447Y008581D01*
X000447Y008739D02*
X000739Y008739D01*
X000739Y008898D02*
X000447Y008898D01*
X000447Y009056D02*
X000739Y009056D01*
X000796Y009215D02*
X000447Y009215D01*
X000447Y009373D02*
X000940Y009373D01*
X001098Y009532D02*
X000447Y009532D01*
X000447Y009690D02*
X001257Y009690D01*
X001415Y009849D02*
X000447Y009849D01*
X000447Y010007D02*
X001598Y010007D01*
X001995Y010166D02*
X000447Y010166D01*
X000447Y010324D02*
X003950Y010324D01*
X003951Y010166D02*
X003038Y010166D01*
X003268Y010007D02*
X003951Y010007D01*
X003951Y009849D02*
X003355Y009849D01*
X003382Y009690D02*
X003952Y009690D01*
X003952Y009532D02*
X003363Y009532D01*
X003288Y009373D02*
X003952Y009373D01*
X003953Y009215D02*
X003086Y009215D01*
X003953Y009056D02*
X001869Y009056D01*
X001711Y008898D02*
X003953Y008898D01*
X003954Y008739D02*
X001621Y008739D01*
X001621Y008581D02*
X003954Y008581D01*
X003954Y008422D02*
X001621Y008422D01*
X001621Y008264D02*
X003954Y008264D01*
X003955Y008105D02*
X003472Y008105D01*
X003708Y007947D02*
X003955Y007947D01*
X003955Y007788D02*
X003882Y007788D01*
X003223Y007154D02*
X001621Y007154D01*
X001621Y006996D02*
X003225Y006996D01*
X003227Y006837D02*
X001621Y006837D01*
X001621Y006679D02*
X003229Y006679D01*
X003231Y006520D02*
X001621Y006520D01*
X001621Y006362D02*
X003233Y006362D01*
X004839Y006520D02*
X005929Y006520D01*
X006077Y006679D02*
X004839Y006679D01*
X004839Y006837D02*
X006224Y006837D01*
X006256Y006996D02*
X004838Y006996D01*
X004838Y007154D02*
X006256Y007154D01*
X006256Y007313D02*
X004838Y007313D01*
X004837Y007471D02*
X006278Y007471D01*
X006333Y007630D02*
X004837Y007630D01*
X004837Y007788D02*
X006618Y007788D01*
X003950Y010483D02*
X000447Y010483D01*
X000447Y010641D02*
X003950Y010641D01*
X003949Y010800D02*
X000447Y010800D01*
X000447Y010958D02*
X003832Y010958D01*
X001863Y008105D02*
X001621Y008105D01*
X001621Y007947D02*
X001719Y007947D01*
X001653Y007788D02*
X001621Y007788D01*
X001621Y007630D02*
X001651Y007630D01*
X001621Y007471D02*
X001695Y007471D01*
X001621Y007313D02*
X001806Y007313D01*
X002122Y015398D02*
X002479Y015398D01*
X002479Y015892D01*
X001632Y015892D01*
X001632Y015888D01*
X001645Y015805D01*
X001671Y015726D01*
X001709Y015651D01*
X001758Y015583D01*
X001817Y015524D01*
X001885Y015475D01*
X001960Y015437D01*
X002039Y015411D01*
X002122Y015398D01*
X002479Y015555D02*
X002554Y015555D01*
X002554Y015713D02*
X002479Y015713D01*
X002479Y015872D02*
X002554Y015872D01*
X002554Y016030D02*
X002479Y016030D01*
X002479Y016189D02*
X002554Y016189D01*
X002554Y016347D02*
X002479Y016347D01*
X001832Y016347D02*
X000447Y016347D01*
X000447Y016189D02*
X001698Y016189D01*
X001641Y016030D02*
X000447Y016030D01*
X000447Y015872D02*
X001634Y015872D01*
X001677Y015713D02*
X000447Y015713D01*
X000447Y015555D02*
X001787Y015555D01*
X000447Y016823D02*
X017512Y016823D01*
X017569Y016981D02*
X000447Y016981D01*
X000447Y017140D02*
X017410Y017140D01*
X017309Y017298D02*
X000447Y017298D01*
X000447Y017457D02*
X000798Y017457D01*
X000808Y017440D02*
X000841Y017406D01*
X000882Y017382D01*
X000928Y017370D01*
X001219Y017370D01*
X001219Y017758D01*
X000772Y017758D01*
X000772Y017526D01*
X000784Y017481D01*
X000808Y017440D01*
X000772Y017615D02*
X000447Y017615D01*
X000447Y017774D02*
X001219Y017774D01*
X001267Y017806D02*
X001267Y017180D01*
X001219Y017457D02*
X001315Y017457D01*
X001315Y017615D02*
X001219Y017615D01*
X001315Y017774D02*
X002222Y017774D01*
X002100Y017932D02*
X001762Y017932D01*
X001760Y018091D02*
X002056Y018091D01*
X002056Y018249D02*
X001742Y018249D01*
X001736Y018883D02*
X002081Y018883D01*
X002177Y019042D02*
X000447Y019042D01*
X000447Y019200D02*
X004416Y019200D01*
X004150Y019042D02*
X003857Y019042D01*
X003907Y018991D02*
X003778Y019121D01*
X003608Y019191D01*
X003425Y019191D01*
X003256Y019121D01*
X003126Y018991D01*
X003056Y018822D01*
X003056Y018038D01*
X003126Y017869D01*
X003256Y017739D01*
X003425Y017669D01*
X003608Y017669D01*
X003778Y017739D01*
X003907Y017869D01*
X003977Y018038D01*
X003977Y018822D01*
X003907Y018991D01*
X003952Y018883D02*
X004062Y018883D01*
X004037Y018725D02*
X003977Y018725D01*
X003977Y018566D02*
X004037Y018566D01*
X004037Y018408D02*
X003977Y018408D01*
X003977Y018249D02*
X004037Y018249D01*
X004037Y018091D02*
X003977Y018091D01*
X003933Y017932D02*
X004079Y017932D01*
X004194Y017774D02*
X003812Y017774D01*
X003222Y017774D02*
X002812Y017774D01*
X002933Y017932D02*
X003100Y017932D01*
X003056Y018091D02*
X002977Y018091D01*
X002977Y018249D02*
X003056Y018249D01*
X003056Y018408D02*
X002977Y018408D01*
X002977Y018566D02*
X003056Y018566D01*
X003056Y018725D02*
X002977Y018725D01*
X002952Y018883D02*
X003081Y018883D01*
X003177Y019042D02*
X002857Y019042D01*
X000798Y018883D02*
X000447Y018883D01*
X000447Y018725D02*
X000791Y018725D01*
X000791Y018566D02*
X000447Y018566D01*
X000447Y018408D02*
X000791Y018408D01*
X000791Y018249D02*
X000447Y018249D01*
X000447Y018091D02*
X000773Y018091D01*
X000772Y017932D02*
X000447Y017932D01*
X000447Y019359D02*
X019772Y019359D01*
X019772Y019517D02*
X000447Y019517D01*
X000447Y019676D02*
X019772Y019676D01*
X018463Y017774D02*
X018070Y017774D01*
X018224Y017615D02*
X018309Y017615D01*
X018309Y017457D02*
X018224Y017457D01*
X018224Y017298D02*
X018309Y017298D01*
X018194Y017140D02*
X018123Y017140D01*
X018027Y016981D02*
X017965Y016981D01*
X018767Y016430D02*
X018267Y015930D01*
X017767Y015430D02*
X016767Y015430D01*
X016567Y015630D01*
X015217Y015630D01*
X015017Y015430D01*
X015247Y017774D02*
X015287Y017774D01*
X015287Y017932D02*
X015247Y017932D01*
X015247Y018091D02*
X015287Y018091D01*
X015287Y018249D02*
X015247Y018249D01*
X015589Y017774D02*
X017463Y017774D01*
D28*
X019267Y018430D02*
X015267Y018430D01*
X018767Y015430D02*
X019267Y015430D01*
X019617Y015730D01*
X019617Y018080D01*
X019267Y018430D01*
X016867Y013930D02*
X015767Y013930D01*
X016867Y013930D02*
X018017Y012930D01*
X019067Y012930D01*
X019317Y012680D01*
X019317Y012030D01*
X019167Y011880D01*
X019167Y011680D01*
X018017Y012930D02*
X018017Y008380D01*
X017627Y007690D01*
X017172Y007690D01*
D29*
X017867Y007230D03*
X017417Y006930D03*
X017417Y006080D03*
X017917Y006080D03*
X018367Y006080D03*
X018367Y005280D03*
X017917Y005280D03*
X017467Y005280D03*
X015717Y003830D03*
X014667Y004380D03*
X013967Y004130D03*
X014117Y006580D03*
X014117Y007630D03*
X014467Y009380D03*
X013917Y011230D03*
X012367Y011130D03*
X011367Y010680D03*
X011767Y009730D03*
X012217Y009430D03*
X011267Y008580D03*
X010817Y008680D03*
X010817Y009780D03*
X009917Y009680D03*
X007617Y009230D03*
X006617Y007330D03*
X005680Y006622D03*
X007417Y005580D03*
X011267Y007080D03*
X010067Y012030D03*
X009617Y012030D03*
X008367Y012630D03*
X010267Y013980D03*
X012167Y015380D03*
X011367Y015930D03*
X010717Y016280D03*
X013867Y013380D03*
X014367Y013380D03*
X015067Y013380D03*
X015367Y012680D03*
X014417Y014880D03*
X018717Y013430D03*
X018717Y012430D03*
X017017Y003480D03*
X017667Y002730D03*
X004867Y014480D03*
X003567Y016230D03*
D30*
X006617Y007330D02*
X006617Y006730D01*
X005967Y006030D01*
X004767Y006030D01*
X004417Y005680D01*
X004400Y005930D02*
X004400Y006030D01*
X004400Y006030D01*
X004767Y006030D01*
X004367Y006430D01*
D31*
X015017Y009030D03*
X015467Y009030D03*
X015517Y009530D03*
X016017Y009530D03*
X016017Y009030D03*
X016517Y009030D03*
X017017Y009030D03*
X017017Y009530D03*
X016517Y009530D03*
X017017Y010030D03*
X017017Y010530D03*
X016517Y010530D03*
X016517Y011030D03*
X017017Y011030D03*
X017017Y011530D03*
X016517Y011530D03*
X016017Y011530D03*
X016017Y011030D03*
X015517Y011030D03*
X015517Y011530D03*
X015017Y011530D03*
X015017Y011030D03*
X015017Y010530D03*
X015517Y010530D03*
X016017Y010530D03*
X015517Y010030D03*
X015017Y010030D03*
X015017Y009530D03*
X017517Y009530D03*
X017517Y009030D03*
X017517Y010030D03*
X017517Y010530D03*
X017517Y011030D03*
X017517Y011530D03*
D32*
X017717Y011508D02*
X014817Y011508D01*
X014817Y011606D02*
X017717Y011606D01*
X017717Y011705D02*
X014817Y011705D01*
X014817Y011730D02*
X017717Y011730D01*
X017717Y008780D01*
X014817Y008780D01*
X014817Y011730D01*
X014817Y011409D02*
X017717Y011409D01*
X017717Y011311D02*
X014817Y011311D01*
X014817Y011212D02*
X017717Y011212D01*
X017717Y011114D02*
X014817Y011114D01*
X014817Y011015D02*
X017717Y011015D01*
X017717Y010917D02*
X014817Y010917D01*
X014817Y010818D02*
X017717Y010818D01*
X017717Y010720D02*
X014817Y010720D01*
X014817Y010621D02*
X015379Y010621D01*
X015379Y010622D02*
X015369Y010584D01*
X015369Y010220D01*
X016217Y010220D01*
X016217Y010714D01*
X015499Y010714D01*
X015461Y010704D01*
X015427Y010684D01*
X015399Y010656D01*
X015379Y010622D01*
X015369Y010523D02*
X014817Y010523D01*
X014817Y010424D02*
X015369Y010424D01*
X015369Y010326D02*
X014817Y010326D01*
X014817Y010227D02*
X015369Y010227D01*
X015369Y010120D02*
X015369Y009757D01*
X015379Y009719D01*
X015399Y009684D01*
X015427Y009656D01*
X015461Y009637D01*
X015499Y009626D01*
X016217Y009626D01*
X016217Y010120D01*
X016317Y010120D01*
X016317Y010220D01*
X017165Y010220D01*
X017165Y010584D01*
X017154Y010622D01*
X017135Y010656D01*
X017107Y010684D01*
X017073Y010704D01*
X017034Y010714D01*
X016317Y010714D01*
X016317Y010220D01*
X016217Y010220D01*
X016217Y010120D01*
X015369Y010120D01*
X015369Y010030D02*
X014817Y010030D01*
X014817Y009932D02*
X015369Y009932D01*
X015369Y009833D02*
X014817Y009833D01*
X014817Y009735D02*
X015375Y009735D01*
X015463Y009636D02*
X014817Y009636D01*
X014817Y009538D02*
X017717Y009538D01*
X017717Y009636D02*
X017070Y009636D01*
X017073Y009637D02*
X017107Y009656D01*
X017135Y009684D01*
X017154Y009719D01*
X017165Y009757D01*
X017165Y010120D01*
X016317Y010120D01*
X016317Y009626D01*
X017034Y009626D01*
X017073Y009637D01*
X017159Y009735D02*
X017717Y009735D01*
X017717Y009833D02*
X017165Y009833D01*
X017165Y009932D02*
X017717Y009932D01*
X017717Y010030D02*
X017165Y010030D01*
X017165Y010227D02*
X017717Y010227D01*
X017717Y010129D02*
X016317Y010129D01*
X016317Y010227D02*
X016217Y010227D01*
X016217Y010129D02*
X014817Y010129D01*
X014817Y009439D02*
X017717Y009439D01*
X017717Y009341D02*
X014817Y009341D01*
X014817Y009242D02*
X017717Y009242D01*
X017717Y009144D02*
X014817Y009144D01*
X014817Y009045D02*
X017717Y009045D01*
X017717Y008947D02*
X014817Y008947D01*
X014817Y008848D02*
X017717Y008848D01*
X017717Y010326D02*
X017165Y010326D01*
X017165Y010424D02*
X017717Y010424D01*
X017717Y010523D02*
X017165Y010523D01*
X017155Y010621D02*
X017717Y010621D01*
X016317Y010621D02*
X016217Y010621D01*
X016217Y010523D02*
X016317Y010523D01*
X016317Y010424D02*
X016217Y010424D01*
X016217Y010326D02*
X016317Y010326D01*
X016317Y010030D02*
X016217Y010030D01*
X016217Y009932D02*
X016317Y009932D01*
X016317Y009833D02*
X016217Y009833D01*
X016217Y009735D02*
X016317Y009735D01*
X016317Y009636D02*
X016217Y009636D01*
X014117Y006580D02*
X014117Y005480D01*
X013917Y005280D02*
X013917Y006030D01*
D33*
X013717Y006180D01*
X014117Y005480D02*
X014192Y005355D01*
X014667Y004780D01*
X014667Y004380D01*
X014317Y004830D02*
X013917Y005280D01*
X013667Y005180D02*
X013967Y004780D01*
X013967Y004130D01*
X013667Y005180D02*
X012667Y005180D01*
X017067Y005080D02*
X017067Y005430D01*
X017317Y005730D01*
X018467Y005730D01*
X018517Y005680D01*
X019167Y005680D01*
X017567Y004630D02*
X017567Y004230D01*
X017017Y003480D01*
X017567Y004630D02*
X017067Y005080D01*
M02*
