G75*
%MOIN*%
%OFA0B0*%
%FSLAX24Y24*%
%IPPOS*%
%LPD*%
%AMOC8*
5,1,8,0,0,1.08239X$1,22.5*
%
%ADD10C,0.0000*%
%ADD11OC8,0.0630*%
%ADD12C,0.0630*%
%ADD13OC8,0.0520*%
%ADD14C,0.0600*%
%ADD15C,0.0560*%
%ADD16OC8,0.0560*%
%ADD17OC8,0.0594*%
%ADD18OC8,0.0600*%
%ADD19C,0.0660*%
%ADD20C,0.0705*%
%ADD21C,0.0560*%
%ADD22C,0.0240*%
%ADD23R,0.0356X0.0356*%
%ADD24C,0.0160*%
%ADD25C,0.1000*%
%ADD26C,0.0660*%
%ADD27C,0.0320*%
%ADD28C,0.0400*%
%ADD29C,0.0317*%
%ADD30C,0.0100*%
%ADD31C,0.0120*%
%ADD32C,0.0700*%
D10*
X000267Y000180D02*
X000267Y019865D01*
X019952Y019865D01*
X019952Y000180D01*
X012326Y000180D01*
X012326Y004836D01*
X005161Y004836D01*
X005161Y000180D01*
X000267Y000180D01*
D11*
X016067Y004430D03*
D12*
X017067Y004430D03*
D13*
X016817Y005780D03*
X015817Y005780D03*
X012017Y007680D03*
X012017Y011680D03*
D14*
X012867Y011680D02*
X013467Y011680D01*
X013467Y010680D02*
X012867Y010680D01*
X012867Y009680D02*
X013467Y009680D01*
X013467Y008680D02*
X012867Y008680D01*
X012867Y007680D02*
X013467Y007680D01*
X013467Y006680D02*
X012867Y006680D01*
X012867Y005680D02*
X013467Y005680D01*
X013467Y004680D02*
X012867Y004680D01*
X012867Y003680D02*
X013467Y003680D01*
X013467Y002680D02*
X012867Y002680D01*
X012867Y001680D02*
X013467Y001680D01*
X013467Y000680D02*
X012867Y000680D01*
X018867Y000680D02*
X019467Y000680D01*
X019467Y001680D02*
X018867Y001680D01*
X018867Y002680D02*
X019467Y002680D01*
X019467Y003680D02*
X018867Y003680D01*
X018867Y004680D02*
X019467Y004680D01*
X019467Y005680D02*
X018867Y005680D01*
X018867Y006680D02*
X019467Y006680D01*
X019467Y007680D02*
X018867Y007680D01*
X018867Y008680D02*
X019467Y008680D01*
X019467Y009680D02*
X018867Y009680D01*
X018867Y010680D02*
X019467Y010680D01*
X019467Y011680D02*
X018867Y011680D01*
X015267Y018130D02*
X015267Y018730D01*
X014267Y018730D02*
X014267Y018130D01*
X013267Y018130D02*
X013267Y018730D01*
X009767Y018730D02*
X009767Y018130D01*
X008767Y018130D02*
X008767Y018730D01*
X007767Y018730D02*
X007767Y018130D01*
X004517Y018130D02*
X004517Y018730D01*
X003517Y018730D02*
X003517Y018130D01*
X002517Y018130D02*
X002517Y018730D01*
X003403Y003943D02*
X004003Y003943D01*
X004003Y002943D02*
X003403Y002943D01*
X003403Y001943D02*
X004003Y001943D01*
X004003Y000943D02*
X003403Y000943D01*
X001273Y000926D02*
X000673Y000926D01*
X000673Y001926D02*
X001273Y001926D01*
X001273Y002926D02*
X000673Y002926D01*
X000673Y003926D02*
X001273Y003926D01*
D15*
X010767Y014430D03*
D16*
X010767Y015430D03*
X009767Y015430D03*
X009767Y014430D03*
X008767Y014430D03*
X008767Y015430D03*
X007767Y015430D03*
X006767Y015430D03*
X006767Y014430D03*
X007767Y014430D03*
D17*
X017767Y015430D03*
X018767Y015430D03*
X018767Y016430D03*
X017767Y016430D03*
X017767Y017430D03*
X018767Y017430D03*
D18*
X010767Y011430D03*
X010767Y010430D03*
X009767Y010430D03*
X009767Y011430D03*
X008767Y011430D03*
X008767Y010430D03*
X007767Y010430D03*
X007767Y011430D03*
D19*
X014617Y005630D03*
X014617Y001630D03*
D20*
X002869Y005680D02*
X002164Y005680D01*
X002164Y007680D02*
X002869Y007680D01*
X002869Y009680D02*
X002164Y009680D01*
X002164Y011680D02*
X002869Y011680D01*
X002869Y013930D02*
X002164Y013930D01*
X002164Y015930D02*
X002869Y015930D01*
D21*
X001267Y011180D02*
X001267Y004103D01*
X000973Y003926D01*
X002047Y005210D02*
X002517Y005680D01*
X002047Y005210D02*
X002047Y001321D01*
X001652Y000926D01*
X000973Y000926D01*
X002743Y001335D02*
X002730Y004418D01*
X003243Y004916D01*
X003989Y004936D01*
X003994Y004936D01*
X005680Y006622D01*
X002743Y001335D02*
X003280Y000937D01*
X003703Y000943D01*
X015487Y013930D02*
X016047Y013930D01*
X016047Y014930D02*
X015487Y014930D01*
D22*
X018267Y014430D02*
X018267Y010930D01*
X018517Y010680D01*
X018267Y010430D01*
X018267Y006930D01*
X017817Y006480D01*
X016267Y006480D01*
X015767Y005980D01*
X015817Y005780D01*
X018267Y010430D02*
X018267Y010680D01*
X018517Y010680D01*
X019167Y010680D01*
X018267Y010680D02*
X018267Y010930D01*
X018267Y014430D02*
X018767Y014930D01*
X018767Y015430D01*
D23*
X018717Y013430D03*
X018717Y012430D03*
X015367Y012680D03*
X015067Y013380D03*
X014367Y013380D03*
X013867Y013380D03*
X014417Y014880D03*
X012167Y015380D03*
X011367Y015930D03*
X010717Y016280D03*
X010267Y013980D03*
X010067Y012030D03*
X009617Y012030D03*
X008367Y012630D03*
X011367Y010680D03*
X011767Y009730D03*
X012217Y009430D03*
X011267Y008580D03*
X010817Y008680D03*
X010817Y009780D03*
X009917Y009680D03*
X007617Y009230D03*
X006617Y007330D03*
X005680Y006622D03*
X007417Y005580D03*
X011267Y007080D03*
X014117Y006580D03*
X014117Y007630D03*
X014467Y009380D03*
X013917Y011230D03*
X012367Y011130D03*
X017417Y006930D03*
X017867Y007230D03*
X017917Y006080D03*
X017417Y006080D03*
X017467Y005280D03*
X017917Y005280D03*
X018367Y005280D03*
X018367Y006080D03*
X017017Y003480D03*
X017667Y002730D03*
X015717Y003830D03*
X014667Y004380D03*
X013967Y004130D03*
X004867Y014480D03*
X003567Y016230D03*
D24*
X002517Y017280D01*
X002517Y018430D01*
X002056Y018408D02*
X000447Y018408D01*
X000447Y018566D02*
X002056Y018566D01*
X002056Y018725D02*
X000447Y018725D01*
X000447Y018883D02*
X002081Y018883D01*
X002056Y018822D02*
X002056Y018038D01*
X002126Y017869D01*
X002256Y017739D01*
X002276Y017731D01*
X002276Y017232D01*
X002313Y017144D01*
X002380Y017076D01*
X003013Y016443D01*
X002994Y016449D01*
X002911Y016462D01*
X002554Y016462D01*
X002554Y015968D01*
X002479Y015968D01*
X002479Y016462D01*
X002122Y016462D01*
X002039Y016449D01*
X001960Y016423D01*
X001885Y016385D01*
X001817Y016336D01*
X001758Y016277D01*
X001709Y016209D01*
X001671Y016134D01*
X001645Y016055D01*
X001632Y015972D01*
X001632Y015968D01*
X002479Y015968D01*
X002479Y015892D01*
X002554Y015892D01*
X002554Y015397D01*
X002911Y015398D01*
X002994Y015411D01*
X003074Y015437D01*
X003148Y015475D01*
X003216Y015524D01*
X003275Y015583D01*
X003325Y015651D01*
X003363Y015726D01*
X003389Y015805D01*
X003402Y015888D01*
X003402Y015891D01*
X003706Y015891D01*
X003706Y010884D01*
X003047Y010191D01*
X002977Y010191D01*
X002971Y010193D01*
X002062Y010193D01*
X001873Y010115D01*
X001729Y009971D01*
X001707Y009918D01*
X001707Y010927D01*
X001970Y011189D01*
X002008Y011189D01*
X002062Y011167D01*
X002095Y011167D01*
X002142Y011120D01*
X002385Y011019D01*
X002648Y011019D01*
X002891Y011120D01*
X002938Y011167D01*
X002971Y011167D01*
X003160Y011245D01*
X003304Y011389D01*
X003382Y011578D01*
X003382Y011782D01*
X003304Y011971D01*
X003177Y012098D01*
X003177Y013512D01*
X003304Y013639D01*
X003382Y013828D01*
X003382Y014032D01*
X003304Y014221D01*
X003160Y014365D01*
X002971Y014443D01*
X002938Y014443D01*
X002891Y014490D01*
X002648Y014591D01*
X002385Y014591D01*
X002142Y014490D01*
X002095Y014443D01*
X002062Y014443D01*
X001873Y014365D01*
X001729Y014221D01*
X001651Y014032D01*
X001651Y013828D01*
X001729Y013639D01*
X001856Y013512D01*
X001856Y012171D01*
X001669Y012171D01*
X001489Y012096D01*
X000851Y011458D01*
X000776Y011278D01*
X000776Y011082D01*
X000826Y010962D01*
X000826Y004387D01*
X000581Y004387D01*
X000447Y004331D01*
X000447Y019685D01*
X019772Y019685D01*
X019772Y012026D01*
X019728Y012071D01*
X019558Y012141D01*
X019011Y012141D01*
X019055Y012185D01*
X019055Y012675D01*
X018961Y012769D01*
X018957Y012769D01*
X018957Y013091D01*
X018961Y013091D01*
X019055Y013185D01*
X019055Y013675D01*
X018961Y013769D01*
X018472Y013769D01*
X018378Y013675D01*
X018378Y013185D01*
X018472Y013091D01*
X018476Y013091D01*
X018476Y012769D01*
X018472Y012769D01*
X018378Y012675D01*
X018378Y012185D01*
X018472Y012091D01*
X018655Y012091D01*
X018606Y012071D01*
X018476Y011941D01*
X018406Y011772D01*
X018406Y011588D01*
X018476Y011419D01*
X018606Y011289D01*
X018775Y011219D01*
X019558Y011219D01*
X019728Y011289D01*
X019772Y011334D01*
X019772Y011052D01*
X019718Y011091D01*
X019651Y011125D01*
X019579Y011148D01*
X019504Y011160D01*
X019187Y011160D01*
X019187Y010700D01*
X019147Y010700D01*
X019147Y011160D01*
X018829Y011160D01*
X018754Y011148D01*
X018682Y011125D01*
X018615Y011091D01*
X018554Y011046D01*
X018501Y010993D01*
X018456Y010932D01*
X018422Y010864D01*
X018398Y010792D01*
X018387Y010718D01*
X018387Y010700D01*
X019147Y010700D01*
X019147Y010660D01*
X019187Y010660D01*
X019187Y010200D01*
X019504Y010200D01*
X019579Y010212D01*
X019651Y010235D01*
X019718Y010269D01*
X019772Y010308D01*
X019772Y010026D01*
X019728Y010071D01*
X019558Y010141D01*
X018775Y010141D01*
X018606Y010071D01*
X018476Y009941D01*
X018406Y009772D01*
X018406Y009588D01*
X018476Y009419D01*
X018606Y009289D01*
X018775Y009219D01*
X019558Y009219D01*
X019728Y009289D01*
X019772Y009334D01*
X019772Y009026D01*
X019728Y009071D01*
X019558Y009141D01*
X018775Y009141D01*
X018606Y009071D01*
X018476Y008941D01*
X018406Y008772D01*
X018406Y008588D01*
X018476Y008419D01*
X018606Y008289D01*
X018775Y008219D01*
X019558Y008219D01*
X019728Y008289D01*
X019772Y008334D01*
X019772Y008026D01*
X019728Y008071D01*
X019558Y008141D01*
X018775Y008141D01*
X018606Y008071D01*
X018476Y007941D01*
X018406Y007772D01*
X018406Y007588D01*
X018476Y007419D01*
X018606Y007289D01*
X018775Y007219D01*
X019558Y007219D01*
X019728Y007289D01*
X019772Y007334D01*
X019772Y007026D01*
X019728Y007071D01*
X019558Y007141D01*
X018775Y007141D01*
X018606Y007071D01*
X018476Y006941D01*
X018406Y006772D01*
X018406Y006588D01*
X018476Y006419D01*
X018476Y006419D01*
X017672Y006419D01*
X017667Y006413D01*
X017661Y006419D01*
X017172Y006419D01*
X017078Y006325D01*
X017078Y006114D01*
X016991Y006201D01*
X016642Y006201D01*
X016396Y005954D01*
X016396Y005606D01*
X016642Y005359D01*
X016991Y005359D01*
X017128Y005496D01*
X017128Y005171D01*
X015184Y005171D01*
X015153Y005175D01*
X015136Y005171D01*
X015119Y005171D01*
X015090Y005159D01*
X015061Y005151D01*
X015047Y005141D01*
X015030Y005134D01*
X015009Y005112D01*
X014886Y005021D01*
X014366Y005021D01*
X014003Y005384D01*
X013915Y005421D01*
X013858Y005421D01*
X013927Y005588D01*
X013927Y005772D01*
X013858Y005939D01*
X013865Y005939D01*
X013881Y005946D01*
X013898Y005948D01*
X013925Y005964D01*
X013953Y005976D01*
X013965Y005988D01*
X013981Y005997D01*
X013999Y006022D01*
X014021Y006044D01*
X014027Y006060D01*
X014163Y006241D01*
X014361Y006241D01*
X014376Y006256D01*
X014376Y006061D01*
X014339Y006046D01*
X014201Y005908D01*
X014126Y005728D01*
X014126Y005532D01*
X014201Y005352D01*
X014339Y005214D01*
X014519Y005139D01*
X014714Y005139D01*
X014895Y005214D01*
X015033Y005352D01*
X015107Y005532D01*
X015107Y005728D01*
X015033Y005908D01*
X014895Y006046D01*
X014857Y006061D01*
X014857Y006778D01*
X014821Y006866D01*
X014379Y007308D01*
X014455Y007385D01*
X014455Y007875D01*
X014361Y007969D01*
X014357Y007969D01*
X014357Y008592D01*
X014710Y008200D01*
X014713Y008194D01*
X014742Y008164D01*
X014770Y008133D01*
X014776Y008131D01*
X014780Y008126D01*
X014819Y008110D01*
X014856Y008092D01*
X014863Y008092D01*
X014869Y008089D01*
X014910Y008089D01*
X014952Y008087D01*
X014958Y008089D01*
X017017Y008089D01*
X017176Y007930D01*
X017176Y007269D01*
X017172Y007269D01*
X017078Y007175D01*
X017078Y006685D01*
X017172Y006591D01*
X017661Y006591D01*
X017755Y006685D01*
X017755Y006891D01*
X018111Y006891D01*
X018205Y006985D01*
X018205Y007475D01*
X018111Y007569D01*
X018107Y007569D01*
X018107Y007957D01*
X018194Y008086D01*
X018212Y008180D01*
X018193Y008274D01*
X018187Y008283D01*
X018187Y014597D01*
X018478Y014929D01*
X018536Y014987D01*
X018569Y014953D01*
X018748Y014953D01*
X018748Y015412D01*
X018785Y015412D01*
X018785Y015448D01*
X019244Y015448D01*
X019244Y015628D01*
X018964Y015907D01*
X018785Y015907D01*
X018785Y015448D01*
X018748Y015448D01*
X018748Y015907D01*
X018569Y015907D01*
X018537Y015875D01*
X018537Y015889D01*
X018621Y015972D01*
X018956Y015972D01*
X019224Y016240D01*
X019224Y016620D01*
X018956Y016888D01*
X018577Y016888D01*
X018309Y016620D01*
X018309Y016285D01*
X018096Y016071D01*
X018096Y015748D01*
X017956Y015888D01*
X017577Y015888D01*
X017309Y015620D01*
X017309Y015240D01*
X017577Y014972D01*
X017929Y014972D01*
X017805Y014831D01*
X017746Y014771D01*
X017746Y014763D01*
X017740Y014757D01*
X017746Y014673D01*
X017746Y011941D01*
X014968Y011941D01*
X015368Y012341D01*
X015611Y012341D01*
X015705Y012435D01*
X015705Y012925D01*
X015611Y013019D01*
X015307Y013019D01*
X015307Y013041D01*
X015311Y013041D01*
X015405Y013135D01*
X015405Y013489D01*
X016134Y013489D01*
X016296Y013556D01*
X016420Y013680D01*
X016487Y013842D01*
X016487Y014018D01*
X016420Y014180D01*
X016296Y014304D01*
X016134Y014371D01*
X015399Y014371D01*
X015237Y014304D01*
X015184Y014251D01*
X013800Y014251D01*
X014131Y014582D01*
X014172Y014541D01*
X014661Y014541D01*
X014755Y014635D01*
X014755Y015125D01*
X014661Y015219D01*
X014657Y015219D01*
X014657Y016324D01*
X015610Y017189D01*
X017360Y017189D01*
X017379Y017171D01*
X016421Y017171D01*
X016378Y017172D01*
X016374Y017171D01*
X016369Y017171D01*
X016329Y017154D01*
X016289Y017139D01*
X016289Y017140D02*
X015555Y017140D01*
X015381Y016981D02*
X016117Y016981D01*
X016250Y017104D02*
X015635Y016536D01*
X015630Y016534D01*
X015600Y016504D01*
X015568Y016474D01*
X015566Y016470D01*
X015563Y016466D01*
X015546Y016427D01*
X015528Y016387D01*
X015528Y016382D01*
X015526Y016378D01*
X015526Y016335D01*
X015524Y016292D01*
X015526Y016287D01*
X015526Y015371D01*
X015399Y015371D01*
X015237Y015304D01*
X015113Y015180D01*
X015046Y015018D01*
X015046Y014842D01*
X015113Y014680D01*
X015237Y014556D01*
X015399Y014489D01*
X016134Y014489D01*
X016296Y014556D01*
X016420Y014680D01*
X016487Y014842D01*
X016487Y015018D01*
X016420Y015180D01*
X016296Y015304D01*
X016134Y015371D01*
X016007Y015371D01*
X016007Y016225D01*
X016511Y016689D01*
X017379Y016689D01*
X017309Y016620D01*
X017309Y016240D01*
X017577Y015972D01*
X017956Y015972D01*
X018224Y016240D01*
X018224Y016620D01*
X018154Y016689D01*
X018165Y016689D01*
X018171Y016692D01*
X018177Y016692D01*
X018215Y016710D01*
X018253Y016726D01*
X018258Y016731D01*
X018264Y016733D01*
X018291Y016764D01*
X018321Y016794D01*
X018323Y016800D01*
X018525Y017024D01*
X018577Y016972D01*
X018956Y016972D01*
X019224Y017240D01*
X019224Y017620D01*
X018956Y017888D01*
X018577Y017888D01*
X018309Y017620D01*
X018309Y017504D01*
X018224Y017409D01*
X018224Y017620D01*
X017956Y017888D01*
X017577Y017888D01*
X017360Y017671D01*
X015522Y017671D01*
X015480Y017673D01*
X015475Y017671D01*
X015469Y017671D01*
X015430Y017655D01*
X015390Y017640D01*
X015386Y017636D01*
X015380Y017634D01*
X015350Y017604D01*
X014452Y016788D01*
X014664Y017105D01*
X014700Y017141D01*
X014719Y017188D01*
X014748Y017231D01*
X014758Y017281D01*
X014777Y017328D01*
X014777Y017380D01*
X014787Y017431D01*
X014777Y017481D01*
X014777Y018532D01*
X014727Y018652D01*
X014727Y018822D01*
X014657Y018991D01*
X014528Y019121D01*
X014358Y019191D01*
X014175Y019191D01*
X014006Y019121D01*
X013876Y018991D01*
X013806Y018822D01*
X013806Y018652D01*
X013756Y018532D01*
X013756Y017585D01*
X013370Y017005D01*
X012664Y016299D01*
X012597Y016239D01*
X012592Y016228D01*
X012584Y016219D01*
X012549Y016136D01*
X012511Y016055D01*
X012511Y016043D01*
X012506Y016032D01*
X012506Y015942D01*
X012492Y015638D01*
X012411Y015719D01*
X012407Y015719D01*
X012407Y017874D01*
X012737Y018313D01*
X012806Y018313D01*
X012806Y018038D01*
X012876Y017869D01*
X013006Y017739D01*
X013175Y017669D01*
X013358Y017669D01*
X013528Y017739D01*
X013657Y017869D01*
X013727Y018038D01*
X013727Y018822D01*
X013657Y018991D01*
X013528Y019121D01*
X013358Y019191D01*
X013175Y019191D01*
X013006Y019121D01*
X012876Y018991D01*
X012806Y018822D01*
X012806Y018795D01*
X012647Y018795D01*
X012630Y018799D01*
X012600Y018795D01*
X012569Y018795D01*
X012553Y018788D01*
X012535Y018786D01*
X012509Y018770D01*
X012480Y018758D01*
X012468Y018746D01*
X012453Y018737D01*
X012434Y018712D01*
X012413Y018690D01*
X012406Y018674D01*
X011984Y018112D01*
X011963Y018090D01*
X011956Y018074D01*
X011945Y018060D01*
X011938Y018030D01*
X011926Y018002D01*
X011926Y017984D01*
X011922Y017967D01*
X011926Y017937D01*
X011926Y015719D01*
X011922Y015719D01*
X011828Y015625D01*
X011828Y015135D01*
X011922Y015041D01*
X012411Y015041D01*
X012468Y015097D01*
X012465Y015046D01*
X011300Y013841D01*
X010605Y013841D01*
X010605Y013999D01*
X010659Y013981D01*
X010730Y013970D01*
X010757Y013970D01*
X010757Y014420D01*
X010777Y014420D01*
X010777Y014440D01*
X011227Y014440D01*
X011227Y014466D01*
X011215Y014538D01*
X011193Y014607D01*
X011160Y014671D01*
X011118Y014730D01*
X011066Y014781D01*
X011008Y014823D01*
X010943Y014856D01*
X010874Y014879D01*
X010803Y014890D01*
X010777Y014890D01*
X010777Y014440D01*
X010757Y014440D01*
X010757Y014890D01*
X010730Y014890D01*
X010659Y014879D01*
X010590Y014856D01*
X010526Y014823D01*
X010467Y014781D01*
X010416Y014730D01*
X010373Y014671D01*
X010340Y014607D01*
X010318Y014538D01*
X010307Y014466D01*
X010307Y014440D01*
X010757Y014440D01*
X010757Y014420D01*
X010307Y014420D01*
X010307Y014394D01*
X010318Y014322D01*
X010319Y014319D01*
X010207Y014319D01*
X010207Y014613D01*
X009949Y014871D01*
X009584Y014871D01*
X009326Y014613D01*
X009326Y014247D01*
X009403Y014171D01*
X009131Y014171D01*
X009207Y014247D01*
X009207Y014613D01*
X008949Y014871D01*
X008666Y014871D01*
X008507Y015030D01*
X008507Y015066D01*
X008584Y014989D01*
X008949Y014989D01*
X009207Y015247D01*
X009207Y015580D01*
X009316Y015689D01*
X009403Y015689D01*
X009326Y015613D01*
X009326Y015247D01*
X009584Y014989D01*
X009949Y014989D01*
X010207Y015247D01*
X010207Y015613D01*
X010131Y015689D01*
X010403Y015689D01*
X010326Y015613D01*
X010326Y015247D01*
X010584Y014989D01*
X010949Y014989D01*
X011207Y015247D01*
X011207Y015591D01*
X011611Y015591D01*
X011705Y015685D01*
X011705Y016175D01*
X011611Y016269D01*
X011122Y016269D01*
X011055Y016202D01*
X011055Y016525D01*
X010961Y016619D01*
X010472Y016619D01*
X010378Y016525D01*
X010378Y016521D01*
X008619Y016521D01*
X008552Y016493D01*
X009056Y016997D01*
X009200Y017141D01*
X009277Y017328D01*
X009277Y018532D01*
X009227Y018652D01*
X009227Y018822D01*
X009157Y018991D01*
X009028Y019121D01*
X008858Y019191D01*
X008675Y019191D01*
X008506Y019121D01*
X008376Y018991D01*
X008306Y018822D01*
X008306Y018652D01*
X008256Y018532D01*
X008256Y017642D01*
X007805Y017191D01*
X006165Y017191D01*
X005977Y017113D01*
X005834Y016969D01*
X005107Y016243D01*
X005107Y017054D01*
X006366Y018313D01*
X007306Y018313D01*
X007306Y018038D01*
X007376Y017869D01*
X007506Y017739D01*
X007675Y017669D01*
X007858Y017669D01*
X008028Y017739D01*
X008157Y017869D01*
X008227Y018038D01*
X008227Y018822D01*
X008157Y018991D01*
X008028Y019121D01*
X007858Y019191D01*
X007675Y019191D01*
X007506Y019121D01*
X007376Y018991D01*
X007306Y018822D01*
X007306Y018795D01*
X006219Y018795D01*
X006130Y018758D01*
X006063Y018690D01*
X004663Y017290D01*
X004626Y017202D01*
X004626Y016993D01*
X004584Y017035D01*
X004027Y017631D01*
X004027Y018532D01*
X003977Y018652D01*
X003977Y018822D01*
X003907Y018991D01*
X003778Y019121D01*
X003608Y019191D01*
X003425Y019191D01*
X003256Y019121D01*
X003126Y018991D01*
X003056Y018822D01*
X003056Y018652D01*
X003006Y018532D01*
X003006Y017439D01*
X003003Y017346D01*
X003006Y017338D01*
X003006Y017328D01*
X003041Y017243D01*
X003074Y017156D01*
X003080Y017149D01*
X003084Y017141D01*
X003149Y017075D01*
X003622Y016569D01*
X003568Y016569D01*
X002757Y017380D01*
X002757Y017731D01*
X002778Y017739D01*
X002907Y017869D01*
X002977Y018038D01*
X002977Y018822D01*
X002907Y018991D01*
X002778Y019121D01*
X002608Y019191D01*
X002425Y019191D01*
X002256Y019121D01*
X002126Y018991D01*
X002056Y018822D01*
X002177Y019042D02*
X000447Y019042D01*
X000447Y019200D02*
X004416Y019200D01*
X004404Y019198D02*
X004332Y019175D01*
X004265Y019141D01*
X004204Y019096D01*
X004151Y019043D01*
X004106Y018982D01*
X004072Y018914D01*
X004048Y018842D01*
X004037Y018768D01*
X004037Y018450D01*
X004497Y018450D01*
X004497Y019210D01*
X004479Y019210D01*
X004404Y019198D01*
X004497Y019200D02*
X004537Y019200D01*
X004537Y019210D02*
X004537Y018450D01*
X004997Y018450D01*
X004997Y018768D01*
X004985Y018842D01*
X004961Y018914D01*
X004927Y018982D01*
X004883Y019043D01*
X004829Y019096D01*
X004768Y019141D01*
X004701Y019175D01*
X004629Y019198D01*
X004554Y019210D01*
X004537Y019210D01*
X004617Y019200D02*
X009666Y019200D01*
X009654Y019198D02*
X009582Y019175D01*
X009515Y019141D01*
X009454Y019096D01*
X009401Y019043D01*
X009356Y018982D01*
X009322Y018914D01*
X009298Y018842D01*
X009287Y018768D01*
X009287Y018450D01*
X009747Y018450D01*
X009747Y019210D01*
X009729Y019210D01*
X009654Y019198D01*
X009747Y019200D02*
X009787Y019200D01*
X009787Y019210D02*
X009787Y018450D01*
X010247Y018450D01*
X010247Y018768D01*
X010235Y018842D01*
X010211Y018914D01*
X010177Y018982D01*
X010133Y019043D01*
X010079Y019096D01*
X010018Y019141D01*
X009951Y019175D01*
X009879Y019198D01*
X009804Y019210D01*
X009787Y019210D01*
X009867Y019200D02*
X015166Y019200D01*
X015154Y019198D02*
X015082Y019175D01*
X015015Y019141D01*
X014954Y019096D01*
X014901Y019043D01*
X014856Y018982D01*
X014822Y018914D01*
X014798Y018842D01*
X014787Y018768D01*
X014787Y018450D01*
X015247Y018450D01*
X015247Y019210D01*
X015229Y019210D01*
X015154Y019198D01*
X015247Y019200D02*
X015287Y019200D01*
X015287Y019210D02*
X015287Y018450D01*
X015747Y018450D01*
X015747Y018768D01*
X015735Y018842D01*
X015711Y018914D01*
X015677Y018982D01*
X015633Y019043D01*
X015579Y019096D01*
X015518Y019141D01*
X015451Y019175D01*
X015379Y019198D01*
X015304Y019210D01*
X015287Y019210D01*
X015367Y019200D02*
X019772Y019200D01*
X019772Y019042D02*
X015634Y019042D01*
X015722Y018883D02*
X019772Y018883D01*
X019772Y018725D02*
X015747Y018725D01*
X015747Y018566D02*
X019772Y018566D01*
X019772Y018408D02*
X015747Y018408D01*
X015747Y018410D02*
X015747Y018092D01*
X015735Y018018D01*
X015711Y017946D01*
X015677Y017878D01*
X015633Y017817D01*
X015579Y017764D01*
X015518Y017719D01*
X015451Y017685D01*
X015379Y017662D01*
X015304Y017650D01*
X015287Y017650D01*
X015287Y018410D01*
X015287Y018450D01*
X015247Y018450D01*
X015247Y018410D01*
X015287Y018410D01*
X015747Y018410D01*
X015747Y018249D02*
X019772Y018249D01*
X019772Y018091D02*
X015746Y018091D01*
X015705Y017932D02*
X019772Y017932D01*
X019772Y017774D02*
X019070Y017774D01*
X019224Y017615D02*
X019772Y017615D01*
X019772Y017457D02*
X019224Y017457D01*
X019224Y017298D02*
X019772Y017298D01*
X019772Y017140D02*
X019123Y017140D01*
X018965Y016981D02*
X019772Y016981D01*
X019772Y016823D02*
X019021Y016823D01*
X019180Y016664D02*
X019772Y016664D01*
X019772Y016506D02*
X019224Y016506D01*
X019224Y016347D02*
X019772Y016347D01*
X019772Y016189D02*
X019172Y016189D01*
X019014Y016030D02*
X019772Y016030D01*
X019772Y015872D02*
X019000Y015872D01*
X018785Y015872D02*
X018748Y015872D01*
X018748Y015713D02*
X018785Y015713D01*
X018785Y015555D02*
X018748Y015555D01*
X018785Y015412D02*
X019244Y015412D01*
X019244Y015232D01*
X018964Y014953D01*
X018785Y014953D01*
X018785Y015412D01*
X018785Y015396D02*
X018748Y015396D01*
X018748Y015238D02*
X018785Y015238D01*
X018785Y015079D02*
X018748Y015079D01*
X018470Y014921D02*
X019772Y014921D01*
X019772Y015079D02*
X019090Y015079D01*
X019244Y015238D02*
X019772Y015238D01*
X019772Y015396D02*
X019244Y015396D01*
X019244Y015555D02*
X019772Y015555D01*
X019772Y015713D02*
X019158Y015713D01*
X018213Y016189D02*
X018172Y016189D01*
X018224Y016347D02*
X018309Y016347D01*
X018309Y016506D02*
X018224Y016506D01*
X018180Y016664D02*
X018354Y016664D01*
X018344Y016823D02*
X018512Y016823D01*
X018486Y016981D02*
X018569Y016981D01*
X018567Y017430D02*
X018117Y016930D01*
X016417Y016930D01*
X015767Y016330D01*
X015767Y014930D01*
X016007Y015396D02*
X017309Y015396D01*
X017312Y015238D02*
X016362Y015238D01*
X016462Y015079D02*
X017471Y015079D01*
X017745Y014762D02*
X016454Y014762D01*
X016487Y014921D02*
X017884Y014921D01*
X017746Y014604D02*
X016343Y014604D01*
X016313Y014287D02*
X017746Y014287D01*
X017746Y014445D02*
X013994Y014445D01*
X013835Y014287D02*
X015220Y014287D01*
X015190Y014604D02*
X014724Y014604D01*
X014755Y014762D02*
X015079Y014762D01*
X015046Y014921D02*
X014755Y014921D01*
X014755Y015079D02*
X015071Y015079D01*
X015171Y015238D02*
X014657Y015238D01*
X014657Y015396D02*
X015526Y015396D01*
X015526Y015555D02*
X014657Y015555D01*
X014657Y015713D02*
X015526Y015713D01*
X015526Y015872D02*
X014657Y015872D01*
X014657Y016030D02*
X015526Y016030D01*
X015526Y016189D02*
X014657Y016189D01*
X014683Y016347D02*
X015526Y016347D01*
X015602Y016506D02*
X014858Y016506D01*
X015032Y016664D02*
X015774Y016664D01*
X015945Y016823D02*
X015206Y016823D01*
X014839Y017140D02*
X014698Y017140D01*
X014665Y016981D02*
X014581Y016981D01*
X014491Y016823D02*
X014475Y016823D01*
X014417Y016430D02*
X015517Y017430D01*
X017767Y017430D01*
X018070Y017774D02*
X018463Y017774D01*
X018309Y017615D02*
X018224Y017615D01*
X018224Y017457D02*
X018267Y017457D01*
X018567Y017430D02*
X018767Y017430D01*
X017463Y017774D02*
X015589Y017774D01*
X015361Y017615D02*
X014777Y017615D01*
X014777Y017774D02*
X014944Y017774D01*
X014954Y017764D02*
X015015Y017719D01*
X015082Y017685D01*
X015154Y017662D01*
X015229Y017650D01*
X015247Y017650D01*
X015247Y018410D01*
X014787Y018410D01*
X014787Y018092D01*
X014798Y018018D01*
X014822Y017946D01*
X014856Y017878D01*
X014901Y017817D01*
X014954Y017764D01*
X014829Y017932D02*
X014777Y017932D01*
X014777Y018091D02*
X014787Y018091D01*
X014777Y018249D02*
X014787Y018249D01*
X014777Y018408D02*
X014787Y018408D01*
X014787Y018566D02*
X014763Y018566D01*
X014787Y018725D02*
X014727Y018725D01*
X014702Y018883D02*
X014812Y018883D01*
X014900Y019042D02*
X014607Y019042D01*
X015247Y019042D02*
X015287Y019042D01*
X015287Y018883D02*
X015247Y018883D01*
X015247Y018725D02*
X015287Y018725D01*
X015287Y018566D02*
X015247Y018566D01*
X015247Y018408D02*
X015287Y018408D01*
X015287Y018249D02*
X015247Y018249D01*
X015247Y018091D02*
X015287Y018091D01*
X015287Y017932D02*
X015247Y017932D01*
X015247Y017774D02*
X015287Y017774D01*
X015188Y017457D02*
X014782Y017457D01*
X014765Y017298D02*
X015014Y017298D01*
X014417Y016430D02*
X014417Y014880D01*
X016007Y015555D02*
X017309Y015555D01*
X017403Y015713D02*
X016007Y015713D01*
X016007Y015872D02*
X017561Y015872D01*
X017520Y016030D02*
X016007Y016030D01*
X016007Y016189D02*
X017361Y016189D01*
X017309Y016347D02*
X016140Y016347D01*
X016312Y016506D02*
X017309Y016506D01*
X017354Y016664D02*
X016483Y016664D01*
X016250Y017104D02*
X016280Y017134D01*
X016285Y017136D01*
X016289Y017139D01*
X018014Y016030D02*
X018096Y016030D01*
X018096Y015872D02*
X017972Y015872D01*
X018332Y014762D02*
X019772Y014762D01*
X019772Y014604D02*
X018193Y014604D01*
X018187Y014445D02*
X019772Y014445D01*
X019772Y014287D02*
X018187Y014287D01*
X018187Y014128D02*
X019772Y014128D01*
X019772Y013970D02*
X018187Y013970D01*
X018187Y013811D02*
X019772Y013811D01*
X019772Y013653D02*
X019055Y013653D01*
X019055Y013494D02*
X019772Y013494D01*
X019772Y013336D02*
X019055Y013336D01*
X019047Y013177D02*
X019772Y013177D01*
X019772Y013019D02*
X018957Y013019D01*
X018957Y012860D02*
X019772Y012860D01*
X019772Y012702D02*
X019029Y012702D01*
X019055Y012543D02*
X019772Y012543D01*
X019772Y012385D02*
X019055Y012385D01*
X019055Y012226D02*
X019772Y012226D01*
X019772Y012068D02*
X019731Y012068D01*
X019693Y011275D02*
X019772Y011275D01*
X019772Y011117D02*
X019667Y011117D01*
X019187Y011117D02*
X019147Y011117D01*
X019147Y010958D02*
X019187Y010958D01*
X019187Y010800D02*
X019147Y010800D01*
X019147Y010660D02*
X018387Y010660D01*
X018387Y010642D01*
X018398Y010568D01*
X018422Y010496D01*
X018456Y010428D01*
X018501Y010367D01*
X018554Y010314D01*
X018615Y010269D01*
X018682Y010235D01*
X018754Y010212D01*
X018829Y010200D01*
X019147Y010200D01*
X019147Y010660D01*
X019147Y010641D02*
X019187Y010641D01*
X019187Y010483D02*
X019147Y010483D01*
X019147Y010324D02*
X019187Y010324D01*
X019772Y010166D02*
X018187Y010166D01*
X018187Y010324D02*
X018544Y010324D01*
X018429Y010483D02*
X018187Y010483D01*
X018187Y010641D02*
X018387Y010641D01*
X018401Y010800D02*
X018187Y010800D01*
X018187Y010958D02*
X018475Y010958D01*
X018666Y011117D02*
X018187Y011117D01*
X018187Y011275D02*
X018640Y011275D01*
X018470Y011434D02*
X018187Y011434D01*
X018187Y011592D02*
X018406Y011592D01*
X018406Y011751D02*
X018187Y011751D01*
X018187Y011909D02*
X018463Y011909D01*
X018603Y012068D02*
X018187Y012068D01*
X018187Y012226D02*
X018378Y012226D01*
X018378Y012385D02*
X018187Y012385D01*
X018187Y012543D02*
X018378Y012543D01*
X018405Y012702D02*
X018187Y012702D01*
X018187Y012860D02*
X018476Y012860D01*
X018476Y013019D02*
X018187Y013019D01*
X018187Y013177D02*
X018386Y013177D01*
X018378Y013336D02*
X018187Y013336D01*
X018187Y013494D02*
X018378Y013494D01*
X018378Y013653D02*
X018187Y013653D01*
X017746Y013653D02*
X016392Y013653D01*
X016474Y013811D02*
X017746Y013811D01*
X017746Y013970D02*
X016487Y013970D01*
X016442Y014128D02*
X017746Y014128D01*
X017746Y013494D02*
X016146Y013494D01*
X015612Y013019D02*
X017746Y013019D01*
X017746Y013177D02*
X015405Y013177D01*
X015405Y013336D02*
X017746Y013336D01*
X017746Y012860D02*
X015705Y012860D01*
X015705Y012702D02*
X017746Y012702D01*
X017746Y012543D02*
X015705Y012543D01*
X015655Y012385D02*
X017746Y012385D01*
X017746Y012226D02*
X015253Y012226D01*
X015095Y012068D02*
X017746Y012068D01*
X018717Y012430D02*
X018717Y013430D01*
X015367Y012680D02*
X014567Y011880D01*
X014567Y010080D01*
X014117Y009630D01*
X014117Y007630D01*
X014455Y007630D02*
X017176Y007630D01*
X017176Y007788D02*
X014455Y007788D01*
X014384Y007947D02*
X017160Y007947D01*
X017417Y008030D02*
X017117Y008330D01*
X014917Y008330D01*
X014467Y008830D01*
X014467Y009380D01*
X013767Y009680D02*
X013167Y009680D01*
X013767Y009680D02*
X014267Y010180D01*
X014267Y012180D01*
X015067Y012980D01*
X015067Y013380D01*
X014367Y013380D02*
X014367Y012780D01*
X013967Y012380D01*
X013967Y011430D01*
X013917Y011380D01*
X013917Y011230D01*
X013167Y011680D02*
X012017Y011680D01*
X011767Y011280D02*
X011567Y011530D01*
X011567Y011830D01*
X011867Y012130D01*
X012717Y012130D01*
X013867Y013380D01*
X012344Y014921D02*
X008617Y014921D01*
X008267Y014930D02*
X008767Y014430D01*
X009058Y014762D02*
X009475Y014762D01*
X009326Y014604D02*
X009207Y014604D01*
X009207Y014445D02*
X009326Y014445D01*
X009326Y014287D02*
X009207Y014287D01*
X009039Y015079D02*
X009494Y015079D01*
X009336Y015238D02*
X009197Y015238D01*
X009207Y015396D02*
X009326Y015396D01*
X009326Y015555D02*
X009207Y015555D01*
X009217Y015930D02*
X011367Y015930D01*
X011705Y015872D02*
X011926Y015872D01*
X011926Y016030D02*
X011705Y016030D01*
X011692Y016189D02*
X011926Y016189D01*
X011926Y016347D02*
X011055Y016347D01*
X011055Y016506D02*
X011926Y016506D01*
X011926Y016664D02*
X008723Y016664D01*
X008582Y016506D02*
X008564Y016506D01*
X008667Y016280D02*
X008267Y015880D01*
X008267Y014930D01*
X008767Y015430D02*
X008767Y015480D01*
X009217Y015930D01*
X008667Y016280D02*
X010717Y016280D01*
X010326Y015555D02*
X010207Y015555D01*
X010207Y015396D02*
X010326Y015396D01*
X010336Y015238D02*
X010197Y015238D01*
X010039Y015079D02*
X010494Y015079D01*
X010448Y014762D02*
X010058Y014762D01*
X010207Y014604D02*
X010339Y014604D01*
X010307Y014445D02*
X010207Y014445D01*
X010267Y013980D02*
X010067Y013980D01*
X010017Y013930D01*
X007267Y013930D01*
X006767Y014430D01*
X004867Y014480D02*
X004867Y017154D01*
X006267Y018554D01*
X007643Y018554D01*
X007767Y018430D01*
X007306Y018249D02*
X006302Y018249D01*
X006144Y018091D02*
X007306Y018091D01*
X007350Y017932D02*
X005985Y017932D01*
X005827Y017774D02*
X007472Y017774D01*
X007912Y017298D02*
X005351Y017298D01*
X005193Y017140D02*
X006042Y017140D01*
X005845Y016981D02*
X005107Y016981D01*
X005107Y016823D02*
X005687Y016823D01*
X005528Y016664D02*
X005107Y016664D01*
X005107Y016506D02*
X005370Y016506D01*
X005211Y016347D02*
X005107Y016347D01*
X004626Y017140D02*
X004486Y017140D01*
X004338Y017298D02*
X004670Y017298D01*
X004829Y017457D02*
X004190Y017457D01*
X004043Y017615D02*
X004987Y017615D01*
X004829Y017764D02*
X004883Y017817D01*
X004927Y017878D01*
X004961Y017946D01*
X004985Y018018D01*
X004997Y018092D01*
X004997Y018410D01*
X004537Y018410D01*
X004537Y018450D01*
X004497Y018450D01*
X004497Y018410D01*
X004537Y018410D01*
X004537Y017650D01*
X004554Y017650D01*
X004629Y017662D01*
X004701Y017685D01*
X004768Y017719D01*
X004829Y017764D01*
X004839Y017774D02*
X005146Y017774D01*
X005304Y017932D02*
X004955Y017932D01*
X004996Y018091D02*
X005463Y018091D01*
X005621Y018249D02*
X004997Y018249D01*
X004997Y018408D02*
X005780Y018408D01*
X005938Y018566D02*
X004997Y018566D01*
X004997Y018725D02*
X006097Y018725D01*
X004972Y018883D02*
X007331Y018883D01*
X007427Y019042D02*
X004884Y019042D01*
X004537Y019042D02*
X004497Y019042D01*
X004497Y018883D02*
X004537Y018883D01*
X004537Y018725D02*
X004497Y018725D01*
X004497Y018566D02*
X004537Y018566D01*
X004537Y018408D02*
X004497Y018408D01*
X004497Y018410D02*
X004497Y017650D01*
X004479Y017650D01*
X004404Y017662D01*
X004332Y017685D01*
X004265Y017719D01*
X004204Y017764D01*
X004151Y017817D01*
X004106Y017878D01*
X004072Y017946D01*
X004048Y018018D01*
X004037Y018092D01*
X004037Y018410D01*
X004497Y018410D01*
X004497Y018249D02*
X004537Y018249D01*
X004537Y018091D02*
X004497Y018091D01*
X004497Y017932D02*
X004537Y017932D01*
X004537Y017774D02*
X004497Y017774D01*
X004194Y017774D02*
X004027Y017774D01*
X004027Y017932D02*
X004079Y017932D01*
X004037Y018091D02*
X004027Y018091D01*
X004027Y018249D02*
X004037Y018249D01*
X004027Y018408D02*
X004037Y018408D01*
X004037Y018566D02*
X004013Y018566D01*
X004037Y018725D02*
X003977Y018725D01*
X003952Y018883D02*
X004062Y018883D01*
X004150Y019042D02*
X003857Y019042D01*
X003177Y019042D02*
X002857Y019042D01*
X002952Y018883D02*
X003081Y018883D01*
X003056Y018725D02*
X002977Y018725D01*
X002977Y018566D02*
X003020Y018566D01*
X003006Y018408D02*
X002977Y018408D01*
X002977Y018249D02*
X003006Y018249D01*
X003006Y018091D02*
X002977Y018091D01*
X003006Y017932D02*
X002933Y017932D01*
X003006Y017774D02*
X002812Y017774D01*
X002757Y017615D02*
X003006Y017615D01*
X003006Y017457D02*
X002757Y017457D01*
X002839Y017298D02*
X003019Y017298D01*
X002998Y017140D02*
X003085Y017140D01*
X003156Y016981D02*
X003237Y016981D01*
X003315Y016823D02*
X003385Y016823D01*
X003473Y016664D02*
X003533Y016664D01*
X002951Y016506D02*
X000447Y016506D01*
X000447Y016664D02*
X002792Y016664D01*
X002634Y016823D02*
X000447Y016823D01*
X000447Y016981D02*
X002475Y016981D01*
X002317Y017140D02*
X000447Y017140D01*
X000447Y017298D02*
X002276Y017298D01*
X002276Y017457D02*
X000447Y017457D01*
X000447Y017615D02*
X002276Y017615D01*
X002222Y017774D02*
X000447Y017774D01*
X000447Y017932D02*
X002100Y017932D01*
X002056Y018091D02*
X000447Y018091D01*
X000447Y018249D02*
X002056Y018249D01*
X000447Y019359D02*
X019772Y019359D01*
X019772Y019517D02*
X000447Y019517D01*
X000447Y019676D02*
X019772Y019676D01*
X013927Y019042D02*
X013607Y019042D01*
X013702Y018883D02*
X013831Y018883D01*
X013806Y018725D02*
X013727Y018725D01*
X013727Y018566D02*
X013770Y018566D01*
X013756Y018408D02*
X013727Y018408D01*
X013727Y018249D02*
X013756Y018249D01*
X013756Y018091D02*
X013727Y018091D01*
X013756Y017932D02*
X013683Y017932D01*
X013756Y017774D02*
X013562Y017774D01*
X013756Y017615D02*
X012407Y017615D01*
X012407Y017457D02*
X013671Y017457D01*
X013565Y017298D02*
X012407Y017298D01*
X012407Y017140D02*
X013459Y017140D01*
X013345Y016981D02*
X012407Y016981D01*
X012407Y016823D02*
X013187Y016823D01*
X013028Y016664D02*
X012407Y016664D01*
X012407Y016506D02*
X012870Y016506D01*
X012711Y016347D02*
X012407Y016347D01*
X012407Y016189D02*
X012571Y016189D01*
X012506Y016030D02*
X012407Y016030D01*
X012407Y015872D02*
X012503Y015872D01*
X012496Y015713D02*
X012417Y015713D01*
X012167Y015380D02*
X012167Y017954D01*
X012617Y018554D01*
X013143Y018554D01*
X013267Y018430D01*
X012806Y018249D02*
X012689Y018249D01*
X012806Y018091D02*
X012570Y018091D01*
X012451Y017932D02*
X012850Y017932D01*
X012972Y017774D02*
X012407Y017774D01*
X011926Y017774D02*
X010089Y017774D01*
X010079Y017764D02*
X010133Y017817D01*
X010177Y017878D01*
X010211Y017946D01*
X010235Y018018D01*
X010247Y018092D01*
X010247Y018410D01*
X009787Y018410D01*
X009787Y018450D01*
X009747Y018450D01*
X009747Y018410D01*
X009787Y018410D01*
X009787Y017650D01*
X009804Y017650D01*
X009879Y017662D01*
X009951Y017685D01*
X010018Y017719D01*
X010079Y017764D01*
X010205Y017932D02*
X011926Y017932D01*
X011963Y018091D02*
X010246Y018091D01*
X010247Y018249D02*
X012087Y018249D01*
X012206Y018408D02*
X010247Y018408D01*
X010247Y018566D02*
X012325Y018566D01*
X012444Y018725D02*
X010247Y018725D01*
X010222Y018883D02*
X012831Y018883D01*
X012927Y019042D02*
X010134Y019042D01*
X009787Y019042D02*
X009747Y019042D01*
X009747Y018883D02*
X009787Y018883D01*
X009787Y018725D02*
X009747Y018725D01*
X009747Y018566D02*
X009787Y018566D01*
X009787Y018408D02*
X009747Y018408D01*
X009747Y018410D02*
X009747Y017650D01*
X009729Y017650D01*
X009654Y017662D01*
X009582Y017685D01*
X009515Y017719D01*
X009454Y017764D01*
X009401Y017817D01*
X009356Y017878D01*
X009322Y017946D01*
X009298Y018018D01*
X009287Y018092D01*
X009287Y018410D01*
X009747Y018410D01*
X009747Y018249D02*
X009787Y018249D01*
X009787Y018091D02*
X009747Y018091D01*
X009747Y017932D02*
X009787Y017932D01*
X009787Y017774D02*
X009747Y017774D01*
X009444Y017774D02*
X009277Y017774D01*
X009277Y017932D02*
X009329Y017932D01*
X009287Y018091D02*
X009277Y018091D01*
X009277Y018249D02*
X009287Y018249D01*
X009277Y018408D02*
X009287Y018408D01*
X009287Y018566D02*
X009263Y018566D01*
X009287Y018725D02*
X009227Y018725D01*
X009202Y018883D02*
X009312Y018883D01*
X009400Y019042D02*
X009107Y019042D01*
X008427Y019042D02*
X008107Y019042D01*
X008202Y018883D02*
X008331Y018883D01*
X008306Y018725D02*
X008227Y018725D01*
X008227Y018566D02*
X008270Y018566D01*
X008256Y018408D02*
X008227Y018408D01*
X008227Y018249D02*
X008256Y018249D01*
X008256Y018091D02*
X008227Y018091D01*
X008256Y017932D02*
X008183Y017932D01*
X008256Y017774D02*
X008062Y017774D01*
X008229Y017615D02*
X005668Y017615D01*
X005510Y017457D02*
X008071Y017457D01*
X008881Y016823D02*
X011926Y016823D01*
X011926Y016981D02*
X009040Y016981D01*
X009198Y017140D02*
X011926Y017140D01*
X011926Y017298D02*
X009265Y017298D01*
X009277Y017457D02*
X011926Y017457D01*
X011926Y017615D02*
X009277Y017615D01*
X011207Y015555D02*
X011828Y015555D01*
X011828Y015396D02*
X011207Y015396D01*
X011197Y015238D02*
X011828Y015238D01*
X011884Y015079D02*
X011039Y015079D01*
X011085Y014762D02*
X012191Y014762D01*
X012037Y014604D02*
X011194Y014604D01*
X011227Y014445D02*
X011884Y014445D01*
X011731Y014287D02*
X011204Y014287D01*
X011193Y014253D02*
X011215Y014322D01*
X011227Y014394D01*
X011227Y014420D01*
X010777Y014420D01*
X010777Y013970D01*
X010803Y013970D01*
X010874Y013981D01*
X010943Y014004D01*
X011008Y014037D01*
X011066Y014079D01*
X011118Y014130D01*
X011160Y014189D01*
X011193Y014253D01*
X011115Y014128D02*
X011578Y014128D01*
X011425Y013970D02*
X010605Y013970D01*
X010757Y014128D02*
X010777Y014128D01*
X010777Y014287D02*
X010757Y014287D01*
X010757Y014445D02*
X010777Y014445D01*
X010777Y014604D02*
X010757Y014604D01*
X010757Y014762D02*
X010777Y014762D01*
X011705Y015713D02*
X011916Y015713D01*
X012449Y015079D02*
X012467Y015079D01*
X010067Y012030D02*
X010117Y011880D01*
X010267Y011680D01*
X010267Y010180D01*
X010817Y009780D01*
X011267Y009180D02*
X012067Y008380D01*
X012067Y007730D01*
X012017Y007680D01*
X012517Y007180D01*
X014167Y007180D01*
X014617Y006730D01*
X014617Y005630D01*
X015057Y005411D02*
X015564Y005411D01*
X015634Y005340D02*
X015817Y005340D01*
X015999Y005340D01*
X016257Y005598D01*
X016257Y005780D01*
X016257Y005962D01*
X015999Y006220D01*
X015817Y006220D01*
X015817Y005780D01*
X016257Y005780D01*
X015817Y005780D01*
X015817Y005780D01*
X015817Y005340D01*
X015817Y005780D01*
X015817Y005780D01*
X015817Y005780D01*
X015817Y006220D01*
X015634Y006220D01*
X015377Y005962D01*
X015377Y005780D01*
X015377Y005598D01*
X015634Y005340D01*
X015817Y005411D02*
X015817Y005411D01*
X015817Y005569D02*
X015817Y005569D01*
X015817Y005728D02*
X015817Y005728D01*
X015817Y005780D02*
X015377Y005780D01*
X015817Y005780D01*
X015817Y005780D01*
X015817Y005886D02*
X015817Y005886D01*
X015817Y006045D02*
X015817Y006045D01*
X015817Y006203D02*
X015817Y006203D01*
X016016Y006203D02*
X017078Y006203D01*
X017115Y006362D02*
X014857Y006362D01*
X014857Y006520D02*
X018434Y006520D01*
X018406Y006679D02*
X017749Y006679D01*
X017755Y006837D02*
X018433Y006837D01*
X018531Y006996D02*
X018205Y006996D01*
X018205Y007154D02*
X019772Y007154D01*
X019772Y007313D02*
X019751Y007313D01*
X019772Y008105D02*
X019644Y008105D01*
X019665Y008264D02*
X019772Y008264D01*
X019742Y009056D02*
X019772Y009056D01*
X019772Y009215D02*
X018187Y009215D01*
X018187Y009373D02*
X018522Y009373D01*
X018430Y009532D02*
X018187Y009532D01*
X018187Y009690D02*
X018406Y009690D01*
X018438Y009849D02*
X018187Y009849D01*
X018187Y010007D02*
X018542Y010007D01*
X018591Y009056D02*
X018187Y009056D01*
X018187Y008898D02*
X018458Y008898D01*
X018406Y008739D02*
X018187Y008739D01*
X018187Y008581D02*
X018409Y008581D01*
X018475Y008422D02*
X018187Y008422D01*
X018195Y008264D02*
X018668Y008264D01*
X018689Y008105D02*
X018197Y008105D01*
X018107Y007947D02*
X018482Y007947D01*
X018413Y007788D02*
X018107Y007788D01*
X018107Y007630D02*
X018406Y007630D01*
X018455Y007471D02*
X018205Y007471D01*
X018205Y007313D02*
X018583Y007313D01*
X017867Y007230D02*
X017867Y008030D01*
X017967Y008180D01*
X017417Y008030D02*
X017417Y006930D01*
X017085Y006679D02*
X014857Y006679D01*
X014833Y006837D02*
X017078Y006837D01*
X017078Y006996D02*
X014692Y006996D01*
X014533Y007154D02*
X017078Y007154D01*
X017176Y007313D02*
X014383Y007313D01*
X014455Y007471D02*
X017176Y007471D01*
X017417Y006080D02*
X017467Y005980D01*
X017467Y005280D01*
X017128Y005252D02*
X014933Y005252D01*
X014983Y005094D02*
X014294Y005094D01*
X014301Y005252D02*
X014135Y005252D01*
X014176Y005411D02*
X013939Y005411D01*
X013919Y005569D02*
X014126Y005569D01*
X014126Y005728D02*
X013927Y005728D01*
X013880Y005886D02*
X014192Y005886D01*
X014337Y006045D02*
X014021Y006045D01*
X014135Y006203D02*
X014376Y006203D01*
X014117Y006580D02*
X013817Y006180D01*
X011217Y006180D01*
X010817Y006580D01*
X010817Y008680D01*
X011267Y008580D02*
X011267Y007080D01*
X011267Y009180D02*
X008367Y009180D01*
X007767Y009780D01*
X007767Y010430D01*
X007617Y009230D02*
X007617Y006030D01*
X007417Y005580D01*
X007078Y005569D02*
X004137Y005569D01*
X004301Y005728D02*
X007078Y005728D01*
X007078Y005825D02*
X007078Y005421D01*
X005153Y005421D01*
X005143Y005424D01*
X005106Y005421D01*
X005069Y005421D01*
X005058Y005416D01*
X005047Y005415D01*
X005014Y005398D01*
X004980Y005384D01*
X004972Y005376D01*
X004962Y005371D01*
X004939Y005342D01*
X004913Y005316D01*
X004908Y005306D01*
X004689Y005042D01*
X004663Y005016D01*
X004658Y005006D01*
X004651Y004997D01*
X004640Y004962D01*
X004626Y004928D01*
X004626Y004917D01*
X004623Y004906D01*
X004626Y004869D01*
X004626Y002580D01*
X004322Y002276D01*
X004264Y002334D01*
X004095Y002404D01*
X003312Y002404D01*
X003142Y002334D01*
X003013Y002204D01*
X002943Y002035D01*
X002943Y001851D01*
X003013Y001682D01*
X003142Y001552D01*
X003312Y001482D01*
X004095Y001482D01*
X004264Y001552D01*
X004394Y001682D01*
X004407Y001715D01*
X004466Y001739D01*
X004981Y002254D01*
X004981Y000360D01*
X000447Y000360D01*
X000447Y000521D01*
X000581Y000466D01*
X001365Y000466D01*
X001413Y000486D01*
X001740Y000486D01*
X001902Y000553D01*
X002296Y000947D01*
X002420Y001071D01*
X002487Y001233D01*
X002487Y005027D01*
X002627Y005167D01*
X002971Y005167D01*
X002977Y005169D01*
X003512Y005169D01*
X003609Y005168D01*
X003614Y005169D01*
X003618Y005169D01*
X003708Y005206D01*
X003798Y005242D01*
X003802Y005245D01*
X003806Y005247D01*
X003875Y005316D01*
X006752Y008095D01*
X006756Y008097D01*
X006756Y007979D01*
X006445Y007669D01*
X006372Y007669D01*
X006278Y007575D01*
X006278Y007455D01*
X006256Y007402D01*
X006256Y007258D01*
X006278Y007205D01*
X006278Y007085D01*
X006372Y006991D01*
X006492Y006991D01*
X006545Y006969D01*
X006688Y006969D01*
X006741Y006991D01*
X006861Y006991D01*
X006955Y007085D01*
X006955Y007159D01*
X007376Y007579D01*
X007376Y006081D01*
X007304Y005919D01*
X007172Y005919D01*
X007078Y005825D01*
X007139Y005886D02*
X004465Y005886D01*
X004629Y006045D02*
X007360Y006045D01*
X007376Y006203D02*
X004793Y006203D01*
X004957Y006362D02*
X007376Y006362D01*
X007376Y006520D02*
X005121Y006520D01*
X005285Y006679D02*
X007376Y006679D01*
X007376Y006837D02*
X005449Y006837D01*
X005613Y006996D02*
X006368Y006996D01*
X006278Y007154D02*
X005777Y007154D01*
X005941Y007313D02*
X006256Y007313D01*
X006278Y007471D02*
X006106Y007471D01*
X006270Y007630D02*
X006333Y007630D01*
X006434Y007788D02*
X006565Y007788D01*
X006598Y007947D02*
X006723Y007947D01*
X007268Y007471D02*
X007376Y007471D01*
X007376Y007313D02*
X007109Y007313D01*
X006955Y007154D02*
X007376Y007154D01*
X007376Y006996D02*
X006866Y006996D01*
X005038Y005411D02*
X003973Y005411D01*
X003811Y005252D02*
X004863Y005252D01*
X004731Y005094D02*
X002553Y005094D01*
X002487Y004935D02*
X004629Y004935D01*
X004626Y004777D02*
X002487Y004777D01*
X002487Y004618D02*
X004626Y004618D01*
X004626Y004460D02*
X002487Y004460D01*
X002487Y004301D02*
X003110Y004301D01*
X003142Y004334D02*
X003013Y004204D01*
X002943Y004035D01*
X002943Y003851D01*
X003013Y003682D01*
X003142Y003552D01*
X003312Y003482D01*
X004095Y003482D01*
X004264Y003552D01*
X004394Y003682D01*
X004443Y003800D01*
X004505Y003875D01*
X004542Y003997D01*
X004530Y004124D01*
X004470Y004237D01*
X004372Y004318D01*
X004104Y004400D01*
X004095Y004404D01*
X004092Y004404D01*
X003999Y004432D01*
X003954Y004451D01*
X003938Y004451D01*
X003923Y004455D01*
X003875Y004451D01*
X003826Y004451D01*
X003812Y004445D01*
X003796Y004443D01*
X003753Y004420D01*
X003713Y004404D01*
X003312Y004404D01*
X003142Y004334D01*
X002987Y004143D02*
X002487Y004143D01*
X002487Y003984D02*
X002943Y003984D01*
X002953Y003826D02*
X002487Y003826D01*
X002487Y003667D02*
X003028Y003667D01*
X003248Y003509D02*
X002487Y003509D01*
X002487Y003350D02*
X003182Y003350D01*
X003142Y003334D02*
X003312Y003404D01*
X004095Y003404D01*
X004264Y003334D01*
X004394Y003204D01*
X004464Y003035D01*
X004464Y002851D01*
X004394Y002682D01*
X004264Y002552D01*
X004095Y002482D01*
X003312Y002482D01*
X003142Y002552D01*
X003013Y002682D01*
X002943Y002851D01*
X002943Y003035D01*
X003013Y003204D01*
X003142Y003334D01*
X003008Y003192D02*
X002487Y003192D01*
X002487Y003033D02*
X002943Y003033D01*
X002943Y002875D02*
X002487Y002875D01*
X002487Y002716D02*
X002999Y002716D01*
X003137Y002558D02*
X002487Y002558D01*
X002487Y002399D02*
X003300Y002399D01*
X003049Y002241D02*
X002487Y002241D01*
X002487Y002082D02*
X002962Y002082D01*
X002943Y001924D02*
X002487Y001924D01*
X002487Y001765D02*
X002978Y001765D01*
X003088Y001607D02*
X002487Y001607D01*
X002487Y001448D02*
X004981Y001448D01*
X004981Y001290D02*
X004336Y001290D01*
X004316Y001309D02*
X004255Y001354D01*
X004188Y001388D01*
X004116Y001411D01*
X004041Y001423D01*
X003723Y001423D01*
X003723Y000963D01*
X003683Y000963D01*
X003683Y000923D01*
X002923Y000923D01*
X002923Y000905D01*
X002935Y000831D01*
X002958Y000759D01*
X002993Y000691D01*
X003037Y000630D01*
X003091Y000577D01*
X003152Y000533D01*
X003219Y000498D01*
X003291Y000475D01*
X003366Y000463D01*
X003683Y000463D01*
X003683Y000923D01*
X003723Y000923D01*
X003723Y000463D01*
X004041Y000463D01*
X004116Y000475D01*
X004188Y000498D01*
X004255Y000533D01*
X004316Y000577D01*
X004369Y000630D01*
X004414Y000691D01*
X004448Y000759D01*
X004471Y000831D01*
X004483Y000905D01*
X004483Y000923D01*
X003723Y000923D01*
X003723Y000963D01*
X004483Y000963D01*
X004483Y000981D01*
X004471Y001055D01*
X004448Y001127D01*
X004414Y001195D01*
X004369Y001256D01*
X004316Y001309D01*
X004446Y001131D02*
X004981Y001131D01*
X004981Y000973D02*
X004483Y000973D01*
X004466Y000814D02*
X004981Y000814D01*
X004981Y000656D02*
X004388Y000656D01*
X004184Y000497D02*
X004981Y000497D01*
X004981Y001607D02*
X004318Y001607D01*
X004492Y001765D02*
X004981Y001765D01*
X004981Y001924D02*
X004651Y001924D01*
X004809Y002082D02*
X004981Y002082D01*
X004968Y002241D02*
X004981Y002241D01*
X004867Y002480D02*
X004867Y004880D01*
X005117Y005180D01*
X013867Y005180D01*
X014267Y004780D01*
X014967Y004780D01*
X015167Y004930D01*
X018167Y004930D01*
X018467Y004680D01*
X019167Y004680D01*
X019558Y004219D02*
X018775Y004219D01*
X018606Y004289D01*
X018476Y004419D01*
X018468Y004438D01*
X018441Y004436D01*
X018430Y004439D01*
X018419Y004439D01*
X018385Y004453D01*
X018349Y004464D01*
X018341Y004472D01*
X018330Y004476D01*
X018304Y004502D01*
X018080Y004689D01*
X017474Y004689D01*
X017542Y004525D01*
X017542Y004335D01*
X017470Y004161D01*
X017336Y004027D01*
X017161Y003954D01*
X016972Y003954D01*
X016797Y004027D01*
X016663Y004161D01*
X016591Y004335D01*
X016591Y004525D01*
X016659Y004689D01*
X016507Y004689D01*
X016562Y004635D01*
X016562Y004430D01*
X016067Y004430D01*
X016067Y004430D01*
X016562Y004430D01*
X016562Y004225D01*
X016272Y003935D01*
X016067Y003935D01*
X016067Y004430D01*
X016067Y004430D01*
X016067Y003935D01*
X016055Y003935D01*
X016055Y003721D01*
X016678Y003721D01*
X016678Y003725D01*
X016772Y003819D01*
X017261Y003819D01*
X017355Y003725D01*
X017355Y003235D01*
X017261Y003141D01*
X016772Y003141D01*
X016678Y003235D01*
X016678Y003239D01*
X014386Y003239D01*
X014357Y003235D01*
X014338Y003239D01*
X014319Y003239D01*
X014292Y003250D01*
X014264Y003257D01*
X014248Y003268D01*
X014230Y003276D01*
X014210Y003296D01*
X014187Y003313D01*
X014176Y003330D01*
X014163Y003344D01*
X014152Y003370D01*
X013927Y003735D01*
X013927Y003588D01*
X013857Y003419D01*
X013728Y003289D01*
X013558Y003219D01*
X012775Y003219D01*
X012606Y003289D01*
X012506Y003389D01*
X012506Y002971D01*
X012606Y003071D01*
X012775Y003141D01*
X013558Y003141D01*
X013728Y003071D01*
X013857Y002941D01*
X013927Y002772D01*
X013927Y002588D01*
X013857Y002419D01*
X013728Y002289D01*
X013558Y002219D01*
X012775Y002219D01*
X012606Y002289D01*
X012506Y002389D01*
X012506Y001971D01*
X012606Y002071D01*
X012775Y002141D01*
X013558Y002141D01*
X013728Y002071D01*
X013857Y001941D01*
X013927Y001772D01*
X013927Y001588D01*
X013857Y001419D01*
X013728Y001289D01*
X013558Y001219D01*
X012775Y001219D01*
X012606Y001289D01*
X012506Y001389D01*
X012506Y000971D01*
X012606Y001071D01*
X012775Y001141D01*
X013558Y001141D01*
X013728Y001071D01*
X013857Y000941D01*
X013927Y000772D01*
X013927Y000588D01*
X013857Y000419D01*
X013798Y000360D01*
X018535Y000360D01*
X018476Y000419D01*
X018406Y000588D01*
X018406Y000772D01*
X018476Y000941D01*
X018606Y001071D01*
X018775Y001141D01*
X019558Y001141D01*
X019728Y001071D01*
X019772Y001026D01*
X019772Y001334D01*
X019728Y001289D01*
X019558Y001219D01*
X018775Y001219D01*
X018606Y001289D01*
X018476Y001419D01*
X018406Y001588D01*
X018406Y001772D01*
X018476Y001941D01*
X018606Y002071D01*
X018775Y002141D01*
X019558Y002141D01*
X019728Y002071D01*
X019772Y002026D01*
X019772Y002334D01*
X019728Y002289D01*
X019558Y002219D01*
X018775Y002219D01*
X018606Y002289D01*
X018476Y002419D01*
X018468Y002439D01*
X017959Y002439D01*
X017911Y002391D01*
X017422Y002391D01*
X017328Y002485D01*
X017328Y002975D01*
X017422Y003069D01*
X017911Y003069D01*
X018005Y002975D01*
X018005Y002921D01*
X018468Y002921D01*
X018476Y002941D01*
X018606Y003071D01*
X018775Y003141D01*
X019558Y003141D01*
X019728Y003071D01*
X019772Y003026D01*
X019772Y003334D01*
X019728Y003289D01*
X019558Y003219D01*
X018775Y003219D01*
X018606Y003289D01*
X018476Y003419D01*
X018406Y003588D01*
X018406Y003772D01*
X018476Y003941D01*
X018606Y004071D01*
X018775Y004141D01*
X019558Y004141D01*
X019728Y004071D01*
X019772Y004026D01*
X019772Y004334D01*
X019728Y004289D01*
X019558Y004219D01*
X019739Y004301D02*
X019772Y004301D01*
X019772Y004143D02*
X017452Y004143D01*
X017528Y004301D02*
X018594Y004301D01*
X018365Y004460D02*
X017542Y004460D01*
X017504Y004618D02*
X018165Y004618D01*
X018367Y005280D02*
X018367Y006080D01*
X017917Y006080D02*
X017906Y005972D01*
X017906Y005341D01*
X017917Y005280D01*
X017128Y005411D02*
X017042Y005411D01*
X016591Y005411D02*
X016069Y005411D01*
X016228Y005569D02*
X016433Y005569D01*
X016396Y005728D02*
X016257Y005728D01*
X016257Y005886D02*
X016396Y005886D01*
X016486Y006045D02*
X016174Y006045D01*
X015617Y006203D02*
X014857Y006203D01*
X014896Y006045D02*
X015459Y006045D01*
X015377Y005886D02*
X015042Y005886D01*
X015107Y005728D02*
X015377Y005728D01*
X015405Y005569D02*
X015107Y005569D01*
X015247Y004689D02*
X015626Y004689D01*
X015572Y004635D01*
X015572Y004430D01*
X015572Y004225D01*
X015628Y004169D01*
X015472Y004169D01*
X015378Y004075D01*
X015378Y004071D01*
X015072Y004071D01*
X015005Y004216D01*
X015005Y004539D01*
X015015Y004539D01*
X015043Y004551D01*
X015073Y004559D01*
X015087Y004569D01*
X015103Y004576D01*
X015125Y004598D01*
X015247Y004689D01*
X015152Y004618D02*
X015572Y004618D01*
X015572Y004460D02*
X015005Y004460D01*
X015005Y004301D02*
X015572Y004301D01*
X015572Y004430D02*
X016067Y004430D01*
X016067Y004430D01*
X015572Y004430D01*
X015446Y004143D02*
X015039Y004143D01*
X014917Y003830D02*
X014667Y004380D01*
X014917Y003830D02*
X015717Y003830D01*
X016055Y003826D02*
X018428Y003826D01*
X018406Y003667D02*
X017355Y003667D01*
X017355Y003509D02*
X018439Y003509D01*
X018545Y003350D02*
X017355Y003350D01*
X017312Y003192D02*
X019772Y003192D01*
X019765Y003033D02*
X019772Y003033D01*
X019167Y002680D02*
X017717Y002680D01*
X017667Y002730D01*
X017328Y002716D02*
X013927Y002716D01*
X013915Y002558D02*
X017328Y002558D01*
X017414Y002399D02*
X013837Y002399D01*
X013610Y002241D02*
X018724Y002241D01*
X018633Y002082D02*
X014853Y002082D01*
X014884Y002066D02*
X014812Y002103D01*
X014736Y002127D01*
X014657Y002140D01*
X014647Y002140D01*
X014647Y001660D01*
X015127Y001660D01*
X015127Y001670D01*
X015114Y001749D01*
X015089Y001826D01*
X015053Y001897D01*
X015006Y001962D01*
X014949Y002019D01*
X014884Y002066D01*
X015034Y001924D02*
X018469Y001924D01*
X018406Y001765D02*
X015109Y001765D01*
X015127Y001600D02*
X014647Y001600D01*
X014647Y001660D01*
X014587Y001660D01*
X014587Y002140D01*
X014577Y002140D01*
X014497Y002127D01*
X014421Y002103D01*
X014349Y002066D01*
X014284Y002019D01*
X014228Y001962D01*
X014180Y001897D01*
X014144Y001826D01*
X014119Y001749D01*
X014107Y001670D01*
X014107Y001660D01*
X014587Y001660D01*
X014587Y001600D01*
X014647Y001600D01*
X014647Y001120D01*
X014657Y001120D01*
X014736Y001133D01*
X014812Y001157D01*
X014884Y001194D01*
X014949Y001241D01*
X015006Y001298D01*
X015053Y001363D01*
X015089Y001434D01*
X015114Y001511D01*
X015127Y001590D01*
X015127Y001600D01*
X015094Y001448D02*
X018464Y001448D01*
X018406Y001607D02*
X014647Y001607D01*
X014587Y001607D02*
X013927Y001607D01*
X013927Y001765D02*
X014124Y001765D01*
X014107Y001600D02*
X014107Y001590D01*
X014119Y001511D01*
X014144Y001434D01*
X014180Y001363D01*
X014228Y001298D01*
X014284Y001241D01*
X014349Y001194D01*
X014421Y001157D01*
X014497Y001133D01*
X014577Y001120D01*
X014587Y001120D01*
X014587Y001600D01*
X014107Y001600D01*
X014140Y001448D02*
X013869Y001448D01*
X013728Y001290D02*
X014236Y001290D01*
X014507Y001131D02*
X013582Y001131D01*
X013826Y000973D02*
X018508Y000973D01*
X018424Y000814D02*
X013910Y000814D01*
X013927Y000656D02*
X018406Y000656D01*
X018444Y000497D02*
X013890Y000497D01*
X014587Y001131D02*
X014647Y001131D01*
X014726Y001131D02*
X018752Y001131D01*
X018606Y001290D02*
X014997Y001290D01*
X014647Y001290D02*
X014587Y001290D01*
X014587Y001448D02*
X014647Y001448D01*
X014647Y001765D02*
X014587Y001765D01*
X014587Y001924D02*
X014647Y001924D01*
X014647Y002082D02*
X014587Y002082D01*
X014380Y002082D02*
X013700Y002082D01*
X013864Y001924D02*
X014200Y001924D01*
X013885Y002875D02*
X017328Y002875D01*
X017386Y003033D02*
X013765Y003033D01*
X013788Y003350D02*
X014160Y003350D01*
X014066Y003509D02*
X013894Y003509D01*
X013927Y003667D02*
X013969Y003667D01*
X014367Y003480D02*
X013967Y004130D01*
X014367Y003480D02*
X017017Y003480D01*
X016722Y003192D02*
X012506Y003192D01*
X012506Y003350D02*
X012545Y003350D01*
X012568Y003033D02*
X012506Y003033D01*
X012506Y002241D02*
X012724Y002241D01*
X012633Y002082D02*
X012506Y002082D01*
X012506Y001290D02*
X012606Y001290D01*
X012506Y001131D02*
X012752Y001131D01*
X012508Y000973D02*
X012506Y000973D01*
X016067Y003984D02*
X016067Y003984D01*
X016067Y004143D02*
X016067Y004143D01*
X016067Y004301D02*
X016067Y004301D01*
X016321Y003984D02*
X016900Y003984D01*
X016681Y004143D02*
X016479Y004143D01*
X016562Y004301D02*
X016605Y004301D01*
X016591Y004460D02*
X016562Y004460D01*
X016562Y004618D02*
X016630Y004618D01*
X017233Y003984D02*
X018519Y003984D01*
X018568Y003033D02*
X017947Y003033D01*
X017919Y002399D02*
X018496Y002399D01*
X019610Y002241D02*
X019772Y002241D01*
X019772Y002082D02*
X019700Y002082D01*
X019728Y001290D02*
X019772Y001290D01*
X019772Y001131D02*
X019582Y001131D01*
X014829Y008105D02*
X014357Y008105D01*
X014357Y008264D02*
X014653Y008264D01*
X014510Y008422D02*
X014357Y008422D01*
X014357Y008581D02*
X014367Y008581D01*
X012217Y009430D02*
X012217Y010980D01*
X012367Y011130D01*
X011767Y011280D02*
X011767Y009730D01*
X010787Y010450D02*
X010747Y010450D01*
X010747Y010910D01*
X010568Y010910D01*
X010507Y010850D01*
X010507Y011038D01*
X010576Y010969D01*
X010913Y010969D01*
X011028Y010864D01*
X011028Y010848D01*
X010965Y010910D01*
X010787Y010910D01*
X010787Y010450D01*
X010787Y010483D02*
X010747Y010483D01*
X010747Y010641D02*
X010787Y010641D01*
X010787Y010800D02*
X010747Y010800D01*
X010925Y010958D02*
X010507Y010958D01*
X010767Y011430D02*
X011367Y010880D01*
X011367Y010680D01*
X004626Y004301D02*
X004392Y004301D01*
X004520Y004143D02*
X004626Y004143D01*
X004626Y003984D02*
X004538Y003984D01*
X004464Y003826D02*
X004626Y003826D01*
X004626Y003667D02*
X004379Y003667D01*
X004158Y003509D02*
X004626Y003509D01*
X004626Y003350D02*
X004225Y003350D01*
X004399Y003192D02*
X004626Y003192D01*
X004626Y003033D02*
X004464Y003033D01*
X004464Y002875D02*
X004626Y002875D01*
X004626Y002716D02*
X004408Y002716D01*
X004269Y002558D02*
X004604Y002558D01*
X004445Y002399D02*
X004106Y002399D01*
X004330Y001943D02*
X003703Y001943D01*
X003683Y001423D02*
X003366Y001423D01*
X003291Y001411D01*
X003219Y001388D01*
X003152Y001354D01*
X003091Y001309D01*
X003037Y001256D01*
X002993Y001195D01*
X002958Y001127D01*
X002935Y001055D01*
X002923Y000981D01*
X002923Y000963D01*
X003683Y000963D01*
X003683Y001423D01*
X003683Y001290D02*
X003723Y001290D01*
X003723Y001131D02*
X003683Y001131D01*
X003683Y000973D02*
X003723Y000973D01*
X003723Y000814D02*
X003683Y000814D01*
X003683Y000656D02*
X003723Y000656D01*
X003723Y000497D02*
X003683Y000497D01*
X003223Y000497D02*
X001767Y000497D01*
X002004Y000656D02*
X003019Y000656D01*
X002941Y000814D02*
X002163Y000814D01*
X002321Y000973D02*
X002923Y000973D01*
X002960Y001131D02*
X002445Y001131D01*
X002487Y001290D02*
X003071Y001290D01*
X004330Y001943D02*
X004867Y002480D01*
X000826Y004460D02*
X000447Y004460D01*
X000447Y004618D02*
X000826Y004618D01*
X000826Y004777D02*
X000447Y004777D01*
X000447Y004935D02*
X000826Y004935D01*
X000826Y005094D02*
X000447Y005094D01*
X000447Y005252D02*
X000826Y005252D01*
X000826Y005411D02*
X000447Y005411D01*
X000447Y005569D02*
X000826Y005569D01*
X000826Y005728D02*
X000447Y005728D01*
X000447Y005886D02*
X000826Y005886D01*
X000826Y006045D02*
X000447Y006045D01*
X000447Y006203D02*
X000826Y006203D01*
X000826Y006362D02*
X000447Y006362D01*
X000447Y006520D02*
X000826Y006520D01*
X000826Y006679D02*
X000447Y006679D01*
X000447Y006837D02*
X000826Y006837D01*
X000826Y006996D02*
X000447Y006996D01*
X000447Y007154D02*
X000826Y007154D01*
X000826Y007313D02*
X000447Y007313D01*
X000447Y007471D02*
X000826Y007471D01*
X000826Y007630D02*
X000447Y007630D01*
X000447Y007788D02*
X000826Y007788D01*
X000826Y007947D02*
X000447Y007947D01*
X000447Y008105D02*
X000826Y008105D01*
X000826Y008264D02*
X000447Y008264D01*
X000447Y008422D02*
X000826Y008422D01*
X000826Y008581D02*
X000447Y008581D01*
X000447Y008739D02*
X000826Y008739D01*
X000826Y008898D02*
X000447Y008898D01*
X000447Y009056D02*
X000826Y009056D01*
X000826Y009215D02*
X000447Y009215D01*
X000447Y009373D02*
X000826Y009373D01*
X000826Y009532D02*
X000447Y009532D01*
X000447Y009690D02*
X000826Y009690D01*
X000826Y009849D02*
X000447Y009849D01*
X000447Y010007D02*
X000826Y010007D01*
X000826Y010166D02*
X000447Y010166D01*
X000447Y010324D02*
X000826Y010324D01*
X000826Y010483D02*
X000447Y010483D01*
X000447Y010641D02*
X000826Y010641D01*
X000826Y010800D02*
X000447Y010800D01*
X000447Y010958D02*
X000826Y010958D01*
X000776Y011117D02*
X000447Y011117D01*
X000447Y011275D02*
X000776Y011275D01*
X000841Y011434D02*
X000447Y011434D01*
X000447Y011592D02*
X000985Y011592D01*
X001143Y011751D02*
X000447Y011751D01*
X000447Y011909D02*
X001302Y011909D01*
X001460Y012068D02*
X000447Y012068D01*
X000447Y012226D02*
X001856Y012226D01*
X001856Y012385D02*
X000447Y012385D01*
X000447Y012543D02*
X001856Y012543D01*
X001856Y012702D02*
X000447Y012702D01*
X000447Y012860D02*
X001856Y012860D01*
X001856Y013019D02*
X000447Y013019D01*
X000447Y013177D02*
X001856Y013177D01*
X001856Y013336D02*
X000447Y013336D01*
X000447Y013494D02*
X001856Y013494D01*
X001724Y013653D02*
X000447Y013653D01*
X000447Y013811D02*
X001658Y013811D01*
X001651Y013970D02*
X000447Y013970D01*
X000447Y014128D02*
X001691Y014128D01*
X001795Y014287D02*
X000447Y014287D01*
X000447Y014445D02*
X002097Y014445D01*
X002936Y014445D02*
X003706Y014445D01*
X003706Y014287D02*
X003238Y014287D01*
X003343Y014128D02*
X003706Y014128D01*
X003706Y013970D02*
X003382Y013970D01*
X003375Y013811D02*
X003706Y013811D01*
X003706Y013653D02*
X003310Y013653D01*
X003177Y013494D02*
X003706Y013494D01*
X003706Y013336D02*
X003177Y013336D01*
X003177Y013177D02*
X003706Y013177D01*
X003706Y013019D02*
X003177Y013019D01*
X003177Y012860D02*
X003706Y012860D01*
X003706Y012702D02*
X003177Y012702D01*
X003177Y012543D02*
X003706Y012543D01*
X003706Y012385D02*
X003177Y012385D01*
X003177Y012226D02*
X003706Y012226D01*
X003706Y012068D02*
X003207Y012068D01*
X003330Y011909D02*
X003706Y011909D01*
X003706Y011751D02*
X003382Y011751D01*
X003382Y011592D02*
X003706Y011592D01*
X003706Y011434D02*
X003323Y011434D01*
X003190Y011275D02*
X003706Y011275D01*
X003706Y011117D02*
X002883Y011117D01*
X002151Y011117D02*
X001897Y011117D01*
X001739Y010958D02*
X003706Y010958D01*
X003626Y010800D02*
X001707Y010800D01*
X001707Y010641D02*
X003475Y010641D01*
X003325Y010483D02*
X001707Y010483D01*
X001707Y010324D02*
X003174Y010324D01*
X001995Y010166D02*
X001707Y010166D01*
X001707Y010007D02*
X001765Y010007D01*
X000447Y014604D02*
X003706Y014604D01*
X003706Y014762D02*
X000447Y014762D01*
X000447Y014921D02*
X003706Y014921D01*
X003706Y015079D02*
X000447Y015079D01*
X000447Y015238D02*
X003706Y015238D01*
X003706Y015396D02*
X000447Y015396D01*
X000447Y015555D02*
X001787Y015555D01*
X001758Y015583D02*
X001817Y015524D01*
X001885Y015475D01*
X001960Y015437D01*
X002039Y015411D01*
X002122Y015398D01*
X002479Y015398D01*
X002479Y015892D01*
X001632Y015892D01*
X001632Y015888D01*
X001645Y015805D01*
X001671Y015726D01*
X001709Y015651D01*
X001758Y015583D01*
X001677Y015713D02*
X000447Y015713D01*
X000447Y015872D02*
X001634Y015872D01*
X001641Y016030D02*
X000447Y016030D01*
X000447Y016189D02*
X001698Y016189D01*
X001832Y016347D02*
X000447Y016347D01*
X002479Y016347D02*
X002554Y016347D01*
X002554Y016189D02*
X002479Y016189D01*
X002479Y016030D02*
X002554Y016030D01*
X002554Y015872D02*
X002479Y015872D01*
X002479Y015713D02*
X002554Y015713D01*
X002554Y015555D02*
X002479Y015555D01*
X003247Y015555D02*
X003706Y015555D01*
X003706Y015713D02*
X003356Y015713D01*
X003399Y015872D02*
X003706Y015872D01*
X000506Y000497D02*
X000447Y000497D01*
D25*
X002517Y011680D02*
X002517Y013930D01*
D26*
X002517Y011680D02*
X001767Y011680D01*
X001267Y011180D01*
D27*
X007117Y011780D02*
X007717Y012180D01*
X008867Y012180D01*
X009167Y012480D01*
X012217Y012480D01*
X013667Y013930D01*
X015767Y013930D01*
X004217Y004030D02*
X003890Y004130D01*
X003703Y003943D01*
D28*
X006617Y007330D02*
X007117Y007830D01*
X007117Y011780D01*
D29*
X015017Y011530D03*
X015517Y011530D03*
X016017Y011530D03*
X016017Y011030D03*
X015517Y011030D03*
X015017Y011030D03*
X015017Y010530D03*
X015517Y010530D03*
X016017Y010530D03*
X015517Y010030D03*
X015017Y010030D03*
X015017Y009530D03*
X015517Y009530D03*
X016017Y009530D03*
X016017Y009030D03*
X015467Y009030D03*
X015017Y009030D03*
X016517Y009030D03*
X017017Y009030D03*
X017017Y009530D03*
X016517Y009530D03*
X017017Y010030D03*
X017017Y010530D03*
X016517Y010530D03*
X016517Y011030D03*
X017017Y011030D03*
X017017Y011530D03*
X016517Y011530D03*
X017517Y011530D03*
X017517Y011030D03*
X017517Y010530D03*
X017517Y010030D03*
X017517Y009530D03*
X017517Y009030D03*
D30*
X017717Y009045D02*
X014817Y009045D01*
X014817Y008947D02*
X017717Y008947D01*
X017717Y008848D02*
X014817Y008848D01*
X014817Y008780D02*
X014817Y011730D01*
X017717Y011730D01*
X017717Y008780D01*
X014817Y008780D01*
X014817Y009144D02*
X017717Y009144D01*
X017717Y009242D02*
X014817Y009242D01*
X014817Y009341D02*
X017717Y009341D01*
X017717Y009439D02*
X014817Y009439D01*
X014817Y009538D02*
X017717Y009538D01*
X017717Y009636D02*
X014817Y009636D01*
X014817Y009735D02*
X017717Y009735D01*
X017717Y009833D02*
X014817Y009833D01*
X014817Y009932D02*
X017717Y009932D01*
X017717Y010030D02*
X014817Y010030D01*
X014817Y010129D02*
X017717Y010129D01*
X017717Y010227D02*
X014817Y010227D01*
X014817Y010326D02*
X017717Y010326D01*
X017717Y010424D02*
X014817Y010424D01*
X014817Y010523D02*
X017717Y010523D01*
X017717Y010621D02*
X014817Y010621D01*
X014817Y010720D02*
X017717Y010720D01*
X017717Y010818D02*
X014817Y010818D01*
X014817Y010917D02*
X017717Y010917D01*
X017717Y011015D02*
X014817Y011015D01*
X014817Y011114D02*
X017717Y011114D01*
X017717Y011212D02*
X014817Y011212D01*
X014817Y011311D02*
X017717Y011311D01*
X017717Y011409D02*
X014817Y011409D01*
X014817Y011508D02*
X017717Y011508D01*
X017717Y011606D02*
X014817Y011606D01*
X014817Y011705D02*
X017717Y011705D01*
D31*
X017967Y014680D02*
X018317Y015080D01*
X018317Y015980D01*
X018767Y016430D01*
X017967Y014680D02*
X017967Y008180D01*
X012067Y012830D02*
X014117Y014880D01*
X014417Y014880D01*
X012067Y012830D02*
X008617Y012830D01*
X008367Y012630D01*
X009267Y011680D02*
X009267Y010180D01*
X009717Y009730D01*
X009867Y009730D01*
X009917Y009680D01*
X009267Y011680D02*
X009617Y012030D01*
D32*
X011517Y013330D02*
X012967Y014830D01*
X013017Y015930D01*
X013767Y016680D01*
X014267Y017430D01*
X014267Y018430D01*
X008767Y018430D02*
X008767Y017430D01*
X008017Y016680D01*
X006267Y016680D01*
X005517Y015930D01*
X005517Y009680D01*
X003517Y007680D01*
X002517Y007680D01*
X002517Y005680D02*
X003517Y005680D01*
X006467Y008530D01*
X006467Y012330D01*
X007517Y013330D01*
X011517Y013330D01*
X004217Y010680D02*
X004217Y016680D01*
X003517Y017430D01*
X003517Y018430D01*
X004217Y010680D02*
X003267Y009680D01*
X002517Y009680D01*
M02*
